<svg xmlns="http://www.w3.org/2000/svg" version="1.1" width="500" height="500" style="background: #999999"> <polygon points="280,252 273,294 249,292 249,249 " style="fill:#303000;stroke:none"/><polygon points="249,249 249,292 226,294 219,252 " style="fill:#303000;stroke:none"/><polygon points="285,209 280,252 249,249 249,207 " style="fill:#303000;stroke:none"/><polygon points="249,207 249,249 219,252 214,209 " style="fill:#303000;stroke:none"/><polygon points="309,258 296,299 273,294 280,252 " style="fill:#303000;stroke:none"/><polygon points="219,252 226,294 203,299 190,258 " style="fill:#303000;stroke:none"/><polygon points="319,217 309,258 280,252 285,209 " style="fill:#303000;stroke:none"/><polygon points="214,209 219,252 190,258 180,217 " style="fill:#303000;stroke:none"/><polygon points="273,294 266,334 249,333 249,292 " style="fill:#313100;stroke:none"/><polygon points="249,292 249,333 233,334 226,294 " style="fill:#313100;stroke:none"/><polygon points="289,169 285,209 249,207 249,166 " style="fill:#313100;stroke:none"/><polygon points="249,166 249,207 214,209 210,169 " style="fill:#313100;stroke:none"/><polygon points="296,299 282,338 266,334 273,294 " style="fill:#313100;stroke:none"/><polygon points="226,294 233,334 217,338 203,299 " style="fill:#313100;stroke:none"/><polygon points="335,268 317,307 296,299 309,258 " style="fill:#313100;stroke:none"/><polygon points="190,258 203,299 182,307 164,268 " style="fill:#323200;stroke:none"/><polygon points="351,228 335,268 309,258 319,217 " style="fill:#323200;stroke:none"/><polygon points="180,217 190,258 164,268 148,228 " style="fill:#323200;stroke:none"/><polygon points="327,177 319,217 285,209 289,169 " style="fill:#323200;stroke:none"/><polygon points="210,169 214,209 180,217 172,177 " style="fill:#323200;stroke:none"/><polygon points="317,307 296,343 282,338 296,299 " style="fill:#323200;stroke:none"/><polygon points="203,299 217,338 203,343 182,307 " style="fill:#323200;stroke:none"/><polygon points="359,282 335,317 317,307 335,268 " style="fill:#323200;stroke:none"/><polygon points="164,268 182,307 164,317 140,282 " style="fill:#333300;stroke:none"/><polygon points="362,190 351,228 319,217 327,177 " style="fill:#333300;stroke:none"/><polygon points="172,177 180,217 148,228 137,190 " style="fill:#333300;stroke:none"/><polygon points="335,317 309,351 296,343 317,307 " style="fill:#333300;stroke:none"/><polygon points="182,307 203,343 190,351 164,317 " style="fill:#333300;stroke:none"/><polygon points="266,334 258,372 249,371 249,333 " style="fill:#333300;stroke:none"/><polygon points="249,333 249,371 241,372 233,334 " style="fill:#333300;stroke:none"/><polygon points="291,131 289,169 249,166 249,128 " style="fill:#343400;stroke:none"/><polygon points="249,128 249,166 210,169 208,131 " style="fill:#343400;stroke:none"/><polygon points="282,338 266,373 258,372 266,334 " style="fill:#343400;stroke:none"/><polygon points="233,334 241,372 233,373 217,338 " style="fill:#343400;stroke:none"/><polygon points="378,244 359,282 335,268 351,228 " style="fill:#343400;stroke:none"/><polygon points="148,228 164,268 140,282 121,244 " style="fill:#343400;stroke:none"/><polygon points="296,343 273,376 266,373 282,338 " style="fill:#343400;stroke:none"/><polygon points="217,338 233,373 226,376 203,343 " style="fill:#343400;stroke:none"/><polygon points="332,140 327,177 289,169 291,131 " style="fill:#353500;stroke:none"/><polygon points="208,131 210,169 172,177 167,140 " style="fill:#353500;stroke:none"/><polygon points="309,351 280,380 273,376 296,343 " style="fill:#353500;stroke:none"/><polygon points="203,343 226,376 219,380 190,351 " style="fill:#353500;stroke:none"/><polygon points="351,330 319,360 309,351 335,317 " style="fill:#353500;stroke:none"/><polygon points="164,317 190,351 180,360 148,330 " style="fill:#353500;stroke:none"/><polygon points="378,298 351,330 335,317 359,282 " style="fill:#353500;stroke:none"/><polygon points="140,282 164,317 148,330 121,298 " style="fill:#363600;stroke:none"/><polygon points="392,208 378,244 351,228 362,190 " style="fill:#363600;stroke:none"/><polygon points="137,190 148,228 121,244 107,208 " style="fill:#363600;stroke:none"/><polygon points="319,360 285,384 280,380 309,351 " style="fill:#363600;stroke:none"/><polygon points="190,351 219,380 214,384 180,360 " style="fill:#363600;stroke:none"/><polygon points="369,154 362,190 327,177 332,140 " style="fill:#363600;stroke:none"/><polygon points="167,140 172,177 137,190 130,154 " style="fill:#363600;stroke:none"/><polygon points="401,264 378,298 359,282 378,244 " style="fill:#373700;stroke:none"/><polygon points="121,244 140,282 121,298 98,264 " style="fill:#373700;stroke:none"/><polygon points="250,404 249,371 258,372 " style="fill:#373700;stroke:none"/><polygon points="250,404 241,372 249,371 " style="fill:#373700;stroke:none"/><polygon points="250,404 258,372 266,373 " style="fill:#373700;stroke:none"/><polygon points="250,404 233,373 241,372 " style="fill:#373700;stroke:none"/><polygon points="250,404 266,373 273,376 " style="fill:#373700;stroke:none"/><polygon points="250,404 226,376 233,373 " style="fill:#373700;stroke:none"/><polygon points="362,345 327,370 319,360 351,330 " style="fill:#383800;stroke:none"/><polygon points="148,330 180,360 172,370 137,345 " style="fill:#383800;stroke:none"/><polygon points="327,370 289,390 285,384 319,360 " style="fill:#383800;stroke:none"/><polygon points="180,360 214,384 210,390 172,370 " style="fill:#383800;stroke:none"/><polygon points="250,404 273,376 280,380 " style="fill:#383800;stroke:none"/><polygon points="250,404 219,380 226,376 " style="fill:#383800;stroke:none"/><polygon points="292,98 291,131 249,128 249,95 " style="fill:#383800;stroke:none"/><polygon points="249,95 249,128 208,131 207,98 " style="fill:#393900;stroke:none"/><polygon points="250,404 280,380 285,384 " style="fill:#393900;stroke:none"/><polygon points="250,404 214,384 219,380 " style="fill:#393900;stroke:none"/><polygon points="392,317 362,345 351,330 378,298 " style="fill:#393900;stroke:none"/><polygon points="121,298 148,330 137,345 107,317 " style="fill:#393900;stroke:none"/><polygon points="250,404 285,384 289,390 " style="fill:#393900;stroke:none"/><polygon points="250,404 210,390 214,384 " style="fill:#393900;stroke:none"/><polygon points="333,107 332,140 291,131 292,98 " style="fill:#393900;stroke:none"/><polygon points="207,98 208,131 167,140 166,107 " style="fill:#404000;stroke:none"/><polygon points="332,381 291,395 289,390 327,370 " style="fill:#404000;stroke:none"/><polygon points="172,370 210,390 208,395 167,381 " style="fill:#404000;stroke:none"/><polygon points="250,404 289,390 291,395 " style="fill:#404000;stroke:none"/><polygon points="250,404 208,395 210,390 " style="fill:#404000;stroke:none"/><polygon points="418,229 401,264 378,244 392,208 " style="fill:#404000;stroke:none"/><polygon points="107,208 121,244 98,264 81,229 " style="fill:#404000;stroke:none"/><polygon points="401,172 392,208 362,190 369,154 " style="fill:#414100;stroke:none"/><polygon points="130,154 137,190 107,208 98,172 " style="fill:#414100;stroke:none"/><polygon points="369,361 332,381 327,370 362,345 " style="fill:#414100;stroke:none"/><polygon points="137,345 172,370 167,381 130,361 " style="fill:#414100;stroke:none"/><polygon points="250,404 291,395 292,401 " style="fill:#414100;stroke:none"/><polygon points="250,404 207,401 208,395 " style="fill:#414100;stroke:none"/><polygon points="418,286 392,317 378,298 401,264 " style="fill:#414100;stroke:none"/><polygon points="98,264 121,298 107,317 81,286 " style="fill:#414100;stroke:none"/><polygon points="333,392 292,401 291,395 332,381 " style="fill:#424200;stroke:none"/><polygon points="167,381 208,395 207,401 166,392 " style="fill:#424200;stroke:none"/><polygon points="250,404 292,401 291,407 " style="fill:#424200;stroke:none"/><polygon points="250,404 208,407 207,401 " style="fill:#424200;stroke:none"/><polygon points="371,121 369,154 332,140 333,107 " style="fill:#424200;stroke:none"/><polygon points="166,107 167,140 130,154 128,121 " style="fill:#424200;stroke:none"/><polygon points="401,338 369,361 362,345 392,317 " style="fill:#424200;stroke:none"/><polygon points="107,317 137,345 130,361 98,338 " style="fill:#434300;stroke:none"/><polygon points="250,404 291,407 289,413 " style="fill:#434300;stroke:none"/><polygon points="250,404 210,413 208,407 " style="fill:#434300;stroke:none"/><polygon points="250,404 289,413 285,418 " style="fill:#434300;stroke:none"/><polygon points="250,404 214,418 210,413 " style="fill:#434300;stroke:none"/><polygon points="332,404 291,407 292,401 333,392 " style="fill:#434300;stroke:none"/><polygon points="166,392 207,401 208,407 167,404 " style="fill:#434300;stroke:none"/><polygon points="371,378 333,392 332,381 369,361 " style="fill:#444400;stroke:none"/><polygon points="130,361 167,381 166,392 128,378 " style="fill:#444400;stroke:none"/><polygon points="250,404 285,418 280,423 " style="fill:#444400;stroke:none"/><polygon points="250,404 219,423 214,418 " style="fill:#444400;stroke:none"/><polygon points="428,195 418,229 392,208 401,172 " style="fill:#444400;stroke:none"/><polygon points="98,172 107,208 81,229 71,195 " style="fill:#444400;stroke:none"/><polygon points="250,404 280,423 273,426 " style="fill:#444400;stroke:none"/><polygon points="250,404 226,426 219,423 " style="fill:#444400;stroke:none"/><polygon points="291,71 292,98 249,95 249,68 " style="fill:#454500;stroke:none"/><polygon points="249,68 249,95 207,98 208,71 " style="fill:#454500;stroke:none"/><polygon points="436,254 418,286 401,264 418,229 " style="fill:#454500;stroke:none"/><polygon points="81,229 98,264 81,286 63,254 " style="fill:#454500;stroke:none"/><polygon points="250,404 273,426 266,429 " style="fill:#454500;stroke:none"/><polygon points="250,404 233,429 226,426 " style="fill:#454500;stroke:none"/><polygon points="327,415 289,413 291,407 332,404 " style="fill:#454500;stroke:none"/><polygon points="167,404 208,407 210,413 172,415 " style="fill:#464600;stroke:none"/><polygon points="250,404 266,429 258,431 " style="fill:#464600;stroke:none"/><polygon points="250,404 241,431 233,429 " style="fill:#464600;stroke:none"/><polygon points="404,140 401,172 369,154 371,121 " style="fill:#464600;stroke:none"/><polygon points="128,121 130,154 98,172 95,140 " style="fill:#464600;stroke:none"/><polygon points="250,404 258,431 250,431 " style="fill:#464600;stroke:none"/><polygon points="250,404 250,431 241,431 " style="fill:#464600;stroke:none"/><polygon points="428,310 401,338 392,317 418,286 " style="fill:#464600;stroke:none"/><polygon points="81,286 107,317 98,338 71,310 " style="fill:#474700;stroke:none"/><polygon points="332,79 333,107 292,98 291,71 " style="fill:#474700;stroke:none"/><polygon points="208,71 207,98 166,107 167,79 " style="fill:#474700;stroke:none"/><polygon points="369,395 332,404 333,392 371,378 " style="fill:#474700;stroke:none"/><polygon points="128,378 166,392 167,404 130,395 " style="fill:#474700;stroke:none"/><polygon points="404,359 371,378 369,361 401,338 " style="fill:#474700;stroke:none"/><polygon points="98,338 130,361 128,378 95,359 " style="fill:#474700;stroke:none"/><polygon points="319,425 285,418 289,413 327,415 " style="fill:#484800;stroke:none"/><polygon points="172,415 210,413 214,418 180,425 " style="fill:#484800;stroke:none"/><polygon points="369,93 371,121 333,107 332,79 " style="fill:#484800;stroke:none"/><polygon points="167,79 166,107 128,121 130,93 " style="fill:#484800;stroke:none"/><polygon points="309,434 280,423 285,418 319,425 " style="fill:#484800;stroke:none"/><polygon points="180,425 214,418 219,423 190,434 " style="fill:#484800;stroke:none"/><polygon points="362,411 327,415 332,404 369,395 " style="fill:#484800;stroke:none"/><polygon points="130,395 167,404 172,415 137,411 " style="fill:#494900;stroke:none"/><polygon points="448,222 436,254 418,229 428,195 " style="fill:#494900;stroke:none"/><polygon points="71,195 81,229 63,254 51,222 " style="fill:#494900;stroke:none"/><polygon points="296,442 273,426 280,423 309,434 " style="fill:#494900;stroke:none"/><polygon points="190,434 219,423 226,426 203,442 " style="fill:#494900;stroke:none"/><polygon points="431,164 428,195 401,172 404,140 " style="fill:#494900;stroke:none"/><polygon points="95,140 98,172 71,195 68,164 " style="fill:#494900;stroke:none"/><polygon points="448,281 428,310 418,286 436,254 " style="fill:#494900;stroke:none"/><polygon points="63,254 81,286 71,310 51,281 " style="fill:#505000;stroke:none"/><polygon points="401,380 369,395 371,378 404,359 " style="fill:#505000;stroke:none"/><polygon points="95,359 128,378 130,395 98,380 " style="fill:#505000;stroke:none"/><polygon points="431,335 404,359 401,338 428,310 " style="fill:#505000;stroke:none"/><polygon points="71,310 98,338 95,359 68,335 " style="fill:#505000;stroke:none"/><polygon points="282,447 266,429 273,426 296,442 " style="fill:#505000;stroke:none"/><polygon points="203,442 226,426 233,429 217,447 " style="fill:#505000;stroke:none"/><polygon points="266,450 258,431 266,429 282,447 " style="fill:#515100;stroke:none"/><polygon points="217,447 233,429 241,431 233,450 " style="fill:#515100;stroke:none"/><polygon points="250,452 250,431 258,431 266,450 " style="fill:#515100;stroke:none"/><polygon points="233,450 241,431 250,431 250,452 " style="fill:#515100;stroke:none"/><polygon points="401,112 404,140 371,121 369,93 " style="fill:#515100;stroke:none"/><polygon points="130,93 128,121 95,140 98,112 " style="fill:#515100;stroke:none"/><polygon points="351,426 319,425 327,415 362,411 " style="fill:#515100;stroke:none"/><polygon points="137,411 172,415 180,425 148,426 " style="fill:#515100;stroke:none"/><polygon points="289,50 291,71 249,68 249,47 " style="fill:#525200;stroke:none"/><polygon points="249,47 249,68 208,71 210,50 " style="fill:#525200;stroke:none"/><polygon points="327,58 332,79 291,71 289,50 " style="fill:#525200;stroke:none"/><polygon points="210,50 208,71 167,79 172,58 " style="fill:#525200;stroke:none"/><polygon points="392,401 362,411 369,395 401,380 " style="fill:#525200;stroke:none"/><polygon points="98,380 130,395 137,411 107,401 " style="fill:#525200;stroke:none"/><polygon points="335,439 309,434 319,425 351,426 " style="fill:#525200;stroke:none"/><polygon points="148,426 180,425 190,434 164,439 " style="fill:#535300;stroke:none"/><polygon points="460,250 448,281 436,254 448,222 " style="fill:#535300;stroke:none"/><polygon points="51,222 63,254 51,281 39,250 " style="fill:#535300;stroke:none"/><polygon points="452,190 448,222 428,195 431,164 " style="fill:#535300;stroke:none"/><polygon points="68,164 71,195 51,222 47,190 " style="fill:#535300;stroke:none"/><polygon points="428,361 401,380 404,359 431,335 " style="fill:#535300;stroke:none"/><polygon points="68,335 95,359 98,380 71,361 " style="fill:#535300;stroke:none"/><polygon points="452,309 431,335 428,310 448,281 " style="fill:#535300;stroke:none"/><polygon points="51,281 71,310 68,335 47,309 " style="fill:#545400;stroke:none"/><polygon points="362,71 369,93 332,79 327,58 " style="fill:#545400;stroke:none"/><polygon points="172,58 167,79 130,93 137,71 " style="fill:#545400;stroke:none"/><polygon points="428,135 431,164 404,140 401,112 " style="fill:#545400;stroke:none"/><polygon points="98,112 95,140 68,164 71,135 " style="fill:#545400;stroke:none"/><polygon points="317,450 296,442 309,434 335,439 " style="fill:#545400;stroke:none"/><polygon points="164,439 190,434 203,442 182,450 " style="fill:#545400;stroke:none"/><polygon points="378,420 351,426 362,411 392,401 " style="fill:#555500;stroke:none"/><polygon points="107,401 137,411 148,426 121,420 " style="fill:#555500;stroke:none"/><polygon points="296,458 282,447 296,442 317,450 " style="fill:#555500;stroke:none"/><polygon points="182,450 203,442 217,447 203,458 " style="fill:#555500;stroke:none"/><polygon points="392,89 401,112 369,93 362,71 " style="fill:#555500;stroke:none"/><polygon points="137,71 130,93 98,112 107,89 " style="fill:#555500;stroke:none"/><polygon points="273,462 266,450 282,447 296,458 " style="fill:#555500;stroke:none"/><polygon points="203,458 217,447 233,450 226,462 " style="fill:#565600;stroke:none"/><polygon points="250,464 250,452 266,450 273,462 " style="fill:#565600;stroke:none"/><polygon points="226,462 233,450 250,452 250,464 " style="fill:#565600;stroke:none"/><polygon points="418,385 392,401 401,380 428,361 " style="fill:#565600;stroke:none"/><polygon points="71,361 98,380 107,401 81,385 " style="fill:#565600;stroke:none"/><polygon points="285,37 289,50 249,47 249,35 " style="fill:#565600;stroke:none"/><polygon points="249,35 249,47 210,50 214,37 " style="fill:#565600;stroke:none"/><polygon points="464,219 460,250 448,222 452,190 " style="fill:#565600;stroke:none"/><polygon points="47,190 51,222 39,250 35,219 " style="fill:#575700;stroke:none"/><polygon points="448,337 428,361 431,335 452,309 " style="fill:#575700;stroke:none"/><polygon points="47,309 68,335 71,361 51,337 " style="fill:#575700;stroke:none"/><polygon points="464,280 452,309 448,281 460,250 " style="fill:#575700;stroke:none"/><polygon points="39,250 51,281 47,309 35,280 " style="fill:#575700;stroke:none"/><polygon points="359,436 335,439 351,426 378,420 " style="fill:#575700;stroke:none"/><polygon points="121,420 148,426 164,439 140,436 " style="fill:#575700;stroke:none"/><polygon points="448,161 452,190 431,164 428,135 " style="fill:#585800;stroke:none"/><polygon points="71,135 68,164 47,190 51,161 " style="fill:#585800;stroke:none"/><polygon points="319,45 327,58 289,50 285,37 " style="fill:#585800;stroke:none"/><polygon points="214,37 210,50 172,58 180,45 " style="fill:#585800;stroke:none"/><polygon points="418,111 428,135 401,112 392,89 " style="fill:#585800;stroke:none"/><polygon points="107,89 98,112 71,135 81,111 " style="fill:#585800;stroke:none"/><polygon points="351,57 362,71 327,58 319,45 " style="fill:#585800;stroke:none"/><polygon points="180,45 172,58 137,71 148,57 " style="fill:#585800;stroke:none"/><polygon points="335,450 317,450 335,439 359,436 " style="fill:#595900;stroke:none"/><polygon points="140,436 164,439 182,450 164,450 " style="fill:#595900;stroke:none"/><polygon points="401,407 378,420 392,401 418,385 " style="fill:#595900;stroke:none"/><polygon points="81,385 107,401 121,420 98,407 " style="fill:#595900;stroke:none"/><polygon points="436,363 418,385 428,361 448,337 " style="fill:#595900;stroke:none"/><polygon points="51,337 71,361 81,385 63,363 " style="fill:#595900;stroke:none"/><polygon points="309,460 296,458 317,450 335,450 " style="fill:#595900;stroke:none"/><polygon points="164,450 182,450 203,458 190,460 " style="fill:#606000;stroke:none"/><polygon points="378,73 392,89 362,71 351,57 " style="fill:#606000;stroke:none"/><polygon points="148,57 137,71 107,89 121,73 " style="fill:#606000;stroke:none"/><polygon points="460,309 448,337 452,309 464,280 " style="fill:#606000;stroke:none"/><polygon points="35,280 47,309 51,337 39,309 " style="fill:#606000;stroke:none"/><polygon points="468,249 464,280 460,250 464,219 " style="fill:#606000;stroke:none"/><polygon points="35,219 39,250 35,280 31,250 " style="fill:#606000;stroke:none"/><polygon points="460,190 464,219 452,190 448,161 " style="fill:#606000;stroke:none"/><polygon points="51,161 47,190 35,219 39,190 " style="fill:#616100;stroke:none"/><polygon points="280,466 273,462 296,458 309,460 " style="fill:#616100;stroke:none"/><polygon points="190,460 203,458 226,462 219,466 " style="fill:#616100;stroke:none"/><polygon points="436,136 448,161 428,135 418,111 " style="fill:#616100;stroke:none"/><polygon points="81,111 71,135 51,161 63,136 " style="fill:#616100;stroke:none"/><polygon points="378,426 359,436 378,420 401,407 " style="fill:#616100;stroke:none"/><polygon points="98,407 121,420 140,436 121,426 " style="fill:#616100;stroke:none"/><polygon points="250,468 250,464 273,462 280,466 " style="fill:#626200;stroke:none"/><polygon points="219,466 226,462 250,464 250,468 " style="fill:#626200;stroke:none"/><polygon points="280,33 285,37 249,35 249,31 " style="fill:#626200;stroke:none"/><polygon points="249,31 249,35 214,37 219,33 " style="fill:#626200;stroke:none"/><polygon points="309,39 319,45 285,37 280,33 " style="fill:#626200;stroke:none"/><polygon points="219,33 214,37 180,45 190,39 " style="fill:#626200;stroke:none"/><polygon points="401,92 418,111 392,89 378,73 " style="fill:#626200;stroke:none"/><polygon points="121,73 107,89 81,111 98,92 " style="fill:#636300;stroke:none"/><polygon points="418,388 401,407 418,385 436,363 " style="fill:#636300;stroke:none"/><polygon points="63,363 81,385 98,407 81,388 " style="fill:#636300;stroke:none"/><polygon points="335,49 351,57 319,45 309,39 " style="fill:#636300;stroke:none"/><polygon points="190,39 180,45 148,57 164,49 " style="fill:#636300;stroke:none"/><polygon points="351,442 335,450 359,436 378,426 " style="fill:#636300;stroke:none"/><polygon points="121,426 140,436 164,450 148,442 " style="fill:#636300;stroke:none"/><polygon points="448,338 436,363 448,337 460,309 " style="fill:#636300;stroke:none"/><polygon points="39,309 51,337 63,363 51,338 " style="fill:#646400;stroke:none"/><polygon points="464,280 460,309 464,280 468,249 " style="fill:#646400;stroke:none"/><polygon points="31,250 35,280 39,309 35,280 " style="fill:#646400;stroke:none"/><polygon points="464,219 468,249 464,219 460,190 " style="fill:#646400;stroke:none"/><polygon points="39,190 35,219 31,250 35,219 " style="fill:#646400;stroke:none"/><polygon points="448,162 460,190 448,161 436,136 " style="fill:#646400;stroke:none"/><polygon points="63,136 51,161 39,190 51,162 " style="fill:#646400;stroke:none"/><polygon points="359,63 378,73 351,57 335,49 " style="fill:#656500;stroke:none"/><polygon points="164,49 148,57 121,73 140,63 " style="fill:#656500;stroke:none"/><polygon points="319,454 309,460 335,450 351,442 " style="fill:#656500;stroke:none"/><polygon points="148,442 164,450 190,460 180,454 " style="fill:#656500;stroke:none"/><polygon points="418,114 436,136 418,111 401,92 " style="fill:#656500;stroke:none"/><polygon points="98,92 81,111 63,136 81,114 " style="fill:#656500;stroke:none"/><polygon points="392,410 378,426 401,407 418,388 " style="fill:#656500;stroke:none"/><polygon points="81,388 98,407 121,426 107,410 " style="fill:#656500;stroke:none"/><polygon points="285,462 280,466 309,460 319,454 " style="fill:#666600;stroke:none"/><polygon points="180,454 190,460 219,466 214,462 " style="fill:#666600;stroke:none"/><polygon points="250,464 250,468 280,466 285,462 " style="fill:#666600;stroke:none"/><polygon points="214,462 219,466 250,468 250,464 " style="fill:#666600;stroke:none"/><polygon points="273,37 280,33 249,31 249,35 " style="fill:#666600;stroke:none"/><polygon points="249,35 249,31 219,33 226,37 " style="fill:#666600;stroke:none"/><polygon points="378,79 401,92 378,73 359,63 " style="fill:#666600;stroke:none"/><polygon points="140,63 121,73 98,92 121,79 " style="fill:#676700;stroke:none"/><polygon points="428,364 418,388 436,363 448,338 " style="fill:#676700;stroke:none"/><polygon points="51,338 63,363 81,388 71,364 " style="fill:#676700;stroke:none"/><polygon points="296,41 309,39 280,33 273,37 " style="fill:#676700;stroke:none"/><polygon points="226,37 219,33 190,39 203,41 " style="fill:#676700;stroke:none"/><polygon points="452,309 448,338 460,309 464,280 " style="fill:#676700;stroke:none"/><polygon points="35,280 39,309 51,338 47,309 " style="fill:#676700;stroke:none"/><polygon points="460,249 464,280 468,249 464,219 " style="fill:#686800;stroke:none"/><polygon points="35,219 31,250 35,280 39,249 " style="fill:#686800;stroke:none"/><polygon points="452,190 464,219 460,190 448,162 " style="fill:#686800;stroke:none"/><polygon points="51,162 39,190 35,219 47,190 " style="fill:#686800;stroke:none"/><polygon points="362,428 351,442 378,426 392,410 " style="fill:#686800;stroke:none"/><polygon points="107,410 121,426 148,442 137,428 " style="fill:#686800;stroke:none"/><polygon points="317,49 335,49 309,39 296,41 " style="fill:#686800;stroke:none"/><polygon points="203,41 190,39 164,49 182,49 " style="fill:#686800;stroke:none"/><polygon points="428,138 448,162 436,136 418,114 " style="fill:#696900;stroke:none"/><polygon points="81,114 63,136 51,162 71,138 " style="fill:#696900;stroke:none"/><polygon points="392,98 418,114 401,92 378,79 " style="fill:#696900;stroke:none"/><polygon points="121,79 98,92 81,114 107,98 " style="fill:#696900;stroke:none"/><polygon points="335,60 359,63 335,49 317,49 " style="fill:#696900;stroke:none"/><polygon points="182,49 164,49 140,63 164,60 " style="fill:#696900;stroke:none"/><polygon points="327,441 319,454 351,442 362,428 " style="fill:#696900;stroke:none"/><polygon points="137,428 148,442 180,454 172,441 " style="fill:#707000;stroke:none"/><polygon points="401,387 392,410 418,388 428,364 " style="fill:#707000;stroke:none"/><polygon points="71,364 81,388 107,410 98,387 " style="fill:#707000;stroke:none"/><polygon points="289,449 285,462 319,454 327,441 " style="fill:#707000;stroke:none"/><polygon points="172,441 180,454 214,462 210,449 " style="fill:#707000;stroke:none"/><polygon points="431,335 428,364 448,338 452,309 " style="fill:#707000;stroke:none"/><polygon points="47,309 51,338 71,364 68,335 " style="fill:#707000;stroke:none"/><polygon points="351,73 378,79 359,63 335,60 " style="fill:#707000;stroke:none"/><polygon points="164,60 140,63 121,79 148,73 " style="fill:#717100;stroke:none"/><polygon points="448,218 460,249 464,219 452,190 " style="fill:#717100;stroke:none"/><polygon points="47,190 35,219 39,249 51,218 " style="fill:#717100;stroke:none"/><polygon points="431,164 452,190 448,162 428,138 " style="fill:#717100;stroke:none"/><polygon points="71,138 51,162 47,190 68,164 " style="fill:#717100;stroke:none"/><polygon points="448,277 452,309 464,280 460,249 " style="fill:#717100;stroke:none"/><polygon points="39,249 35,280 47,309 51,277 " style="fill:#717100;stroke:none"/><polygon points="250,452 250,464 285,462 289,449 " style="fill:#727200;stroke:none"/><polygon points="210,449 214,462 250,464 250,452 " style="fill:#727200;stroke:none"/><polygon points="401,119 428,138 418,114 392,98 " style="fill:#727200;stroke:none"/><polygon points="107,98 81,114 71,138 98,119 " style="fill:#727200;stroke:none"/><polygon points="266,49 273,37 249,35 249,47 " style="fill:#727200;stroke:none"/><polygon points="249,47 249,35 226,37 233,49 " style="fill:#727200;stroke:none"/><polygon points="282,52 296,41 273,37 266,49 " style="fill:#727200;stroke:none"/><polygon points="233,49 226,37 203,41 217,52 " style="fill:#727200;stroke:none"/><polygon points="369,406 362,428 392,410 401,387 " style="fill:#737300;stroke:none"/><polygon points="98,387 107,410 137,428 130,406 " style="fill:#737300;stroke:none"/><polygon points="296,57 317,49 296,41 282,52 " style="fill:#737300;stroke:none"/><polygon points="217,52 203,41 182,49 203,57 " style="fill:#737300;stroke:none"/><polygon points="362,88 392,98 378,79 351,73 " style="fill:#737300;stroke:none"/><polygon points="148,73 121,79 107,98 137,88 " style="fill:#737300;stroke:none"/><polygon points="309,65 335,60 317,49 296,57 " style="fill:#737300;stroke:none"/><polygon points="203,57 182,49 164,60 190,65 " style="fill:#747400;stroke:none"/><polygon points="404,359 401,387 428,364 431,335 " style="fill:#747400;stroke:none"/><polygon points="68,335 71,364 98,387 95,359 " style="fill:#747400;stroke:none"/><polygon points="332,420 327,441 362,428 369,406 " style="fill:#747400;stroke:none"/><polygon points="130,406 137,428 172,441 167,420 " style="fill:#747400;stroke:none"/><polygon points="428,189 448,218 452,190 431,164 " style="fill:#747400;stroke:none"/><polygon points="68,164 47,190 51,218 71,189 " style="fill:#747400;stroke:none"/><polygon points="404,140 431,164 428,138 401,119 " style="fill:#757500;stroke:none"/><polygon points="98,119 71,138 68,164 95,140 " style="fill:#757500;stroke:none"/><polygon points="428,304 431,335 452,309 448,277 " style="fill:#757500;stroke:none"/><polygon points="51,277 47,309 68,335 71,304 " style="fill:#757500;stroke:none"/><polygon points="436,245 448,277 460,249 448,218 " style="fill:#757500;stroke:none"/><polygon points="51,218 39,249 51,277 63,245 " style="fill:#757500;stroke:none"/><polygon points="319,74 351,73 335,60 309,65 " style="fill:#757500;stroke:none"/><polygon points="190,65 164,60 148,73 180,74 " style="fill:#757500;stroke:none"/><polygon points="369,104 401,119 392,98 362,88 " style="fill:#767600;stroke:none"/><polygon points="137,88 107,98 98,119 130,104 " style="fill:#767600;stroke:none"/><polygon points="291,428 289,449 327,441 332,420 " style="fill:#767600;stroke:none"/><polygon points="167,420 172,441 210,449 208,428 " style="fill:#767600;stroke:none"/><polygon points="250,431 250,452 289,449 291,428 " style="fill:#767600;stroke:none"/><polygon points="208,428 210,449 250,452 250,431 " style="fill:#767600;stroke:none"/><polygon points="327,84 362,88 351,73 319,74 " style="fill:#767600;stroke:none"/><polygon points="180,74 148,73 137,88 172,84 " style="fill:#777700;stroke:none"/><polygon points="371,378 369,406 401,387 404,359 " style="fill:#777700;stroke:none"/><polygon points="95,359 98,387 130,406 128,378 " style="fill:#777700;stroke:none"/><polygon points="258,68 266,49 249,47 249,68 " style="fill:#777700;stroke:none"/><polygon points="249,68 249,47 233,49 241,68 " style="fill:#777700;stroke:none"/><polygon points="266,70 282,52 266,49 258,68 " style="fill:#777700;stroke:none"/><polygon points="241,68 233,49 217,52 233,70 " style="fill:#777700;stroke:none"/><polygon points="273,73 296,57 282,52 266,70 " style="fill:#777700;stroke:none"/><polygon points="233,70 217,52 203,57 226,73 " style="fill:#787800;stroke:none"/><polygon points="401,161 428,189 431,164 404,140 " style="fill:#787800;stroke:none"/><polygon points="95,140 68,164 71,189 98,161 " style="fill:#787800;stroke:none"/><polygon points="371,121 404,140 401,119 369,104 " style="fill:#787800;stroke:none"/><polygon points="130,104 98,119 95,140 128,121 " style="fill:#787800;stroke:none"/><polygon points="418,213 436,245 448,218 428,189 " style="fill:#787800;stroke:none"/><polygon points="71,189 51,218 63,245 81,213 " style="fill:#787800;stroke:none"/><polygon points="401,327 404,359 431,335 428,304 " style="fill:#797900;stroke:none"/><polygon points="71,304 68,335 95,359 98,327 " style="fill:#797900;stroke:none"/><polygon points="280,76 309,65 296,57 273,73 " style="fill:#797900;stroke:none"/><polygon points="226,73 203,57 190,65 219,76 " style="fill:#797900;stroke:none"/><polygon points="418,270 428,304 448,277 436,245 " style="fill:#797900;stroke:none"/><polygon points="63,245 51,277 71,304 81,270 " style="fill:#797900;stroke:none"/><polygon points="332,95 369,104 362,88 327,84 " style="fill:#797900;stroke:none"/><polygon points="172,84 137,88 130,104 167,95 " style="fill:#797900;stroke:none"/><polygon points="285,81 319,74 309,65 280,76 " style="fill:#808000;stroke:none"/><polygon points="219,76 190,65 180,74 214,81 " style="fill:#808000;stroke:none"/><polygon points="333,392 332,420 369,406 371,378 " style="fill:#808000;stroke:none"/><polygon points="128,378 130,406 167,420 166,392 " style="fill:#808000;stroke:none"/><polygon points="289,86 327,84 319,74 285,81 " style="fill:#808000;stroke:none"/><polygon points="214,81 180,74 172,84 210,86 " style="fill:#808000;stroke:none"/><polygon points="369,138 401,161 404,140 371,121 " style="fill:#808000;stroke:none"/><polygon points="128,121 95,140 98,161 130,138 " style="fill:#818100;stroke:none"/><polygon points="333,107 371,121 369,104 332,95 " style="fill:#818100;stroke:none"/><polygon points="167,95 130,104 128,121 166,107 " style="fill:#818100;stroke:none"/><polygon points="292,401 291,428 332,420 333,392 " style="fill:#818100;stroke:none"/><polygon points="166,392 167,420 208,428 207,401 " style="fill:#818100;stroke:none"/><polygon points="392,182 418,213 428,189 401,161 " style="fill:#818100;stroke:none"/><polygon points="98,161 71,189 81,213 107,182 " style="fill:#818100;stroke:none"/><polygon points="250,95 258,68 249,68 " style="fill:#828200;stroke:none"/><polygon points="250,95 249,68 241,68 " style="fill:#828200;stroke:none"/><polygon points="369,345 371,378 404,359 401,327 " style="fill:#828200;stroke:none"/><polygon points="98,327 95,359 128,378 130,345 " style="fill:#828200;stroke:none"/><polygon points="250,95 266,70 258,68 " style="fill:#828200;stroke:none"/><polygon points="250,95 241,68 233,70 " style="fill:#828200;stroke:none"/><polygon points="291,92 332,95 327,84 289,86 " style="fill:#828200;stroke:none"/><polygon points="210,86 172,84 167,95 208,92 " style="fill:#828200;stroke:none"/><polygon points="250,95 273,73 266,70 " style="fill:#838300;stroke:none"/><polygon points="250,95 233,70 226,73 " style="fill:#838300;stroke:none"/><polygon points="401,235 418,270 436,245 418,213 " style="fill:#838300;stroke:none"/><polygon points="81,213 63,245 81,270 98,235 " style="fill:#838300;stroke:none"/><polygon points="250,404 250,431 291,428 292,401 " style="fill:#838300;stroke:none"/><polygon points="207,401 208,428 250,431 250,404 " style="fill:#838300;stroke:none"/><polygon points="250,95 280,76 273,73 " style="fill:#838300;stroke:none"/><polygon points="250,95 226,73 219,76 " style="fill:#848400;stroke:none"/><polygon points="392,291 401,327 428,304 418,270 " style="fill:#848400;stroke:none"/><polygon points="81,270 71,304 98,327 107,291 " style="fill:#848400;stroke:none"/><polygon points="250,95 285,81 280,76 " style="fill:#848400;stroke:none"/><polygon points="250,95 219,76 214,81 " style="fill:#848400;stroke:none"/><polygon points="332,118 369,138 371,121 333,107 " style="fill:#848400;stroke:none"/><polygon points="166,107 128,121 130,138 167,118 " style="fill:#848400;stroke:none"/><polygon points="292,98 333,107 332,95 291,92 " style="fill:#848400;stroke:none"/><polygon points="208,92 167,95 166,107 207,98 " style="fill:#858500;stroke:none"/><polygon points="250,95 289,86 285,81 " style="fill:#858500;stroke:none"/><polygon points="250,95 214,81 210,86 " style="fill:#858500;stroke:none"/><polygon points="250,95 291,92 289,86 " style="fill:#858500;stroke:none"/><polygon points="250,95 210,86 208,92 " style="fill:#858500;stroke:none"/><polygon points="362,154 392,182 401,161 369,138 " style="fill:#858500;stroke:none"/><polygon points="130,138 98,161 107,182 137,154 " style="fill:#858500;stroke:none"/><polygon points="332,359 333,392 371,378 369,345 " style="fill:#868600;stroke:none"/><polygon points="130,345 128,378 166,392 167,359 " style="fill:#868600;stroke:none"/><polygon points="250,95 292,98 291,92 " style="fill:#868600;stroke:none"/><polygon points="250,95 208,92 207,98 " style="fill:#868600;stroke:none"/><polygon points="291,104 332,118 333,107 292,98 " style="fill:#868600;stroke:none"/><polygon points="207,98 166,107 167,118 208,104 " style="fill:#868600;stroke:none"/><polygon points="378,201 401,235 418,213 392,182 " style="fill:#868600;stroke:none"/><polygon points="107,182 81,213 98,235 121,201 " style="fill:#878700;stroke:none"/><polygon points="250,95 291,104 292,98 " style="fill:#878700;stroke:none"/><polygon points="250,95 207,98 208,104 " style="fill:#878700;stroke:none"/><polygon points="327,129 362,154 369,138 332,118 " style="fill:#878700;stroke:none"/><polygon points="167,118 130,138 137,154 172,129 " style="fill:#878700;stroke:none"/><polygon points="362,309 369,345 401,327 392,291 " style="fill:#878700;stroke:none"/><polygon points="107,291 98,327 130,345 137,309 " style="fill:#878700;stroke:none"/><polygon points="378,255 392,291 418,270 401,235 " style="fill:#878700;stroke:none"/><polygon points="98,235 81,270 107,291 121,255 " style="fill:#888800;stroke:none"/><polygon points="250,95 289,109 291,104 " style="fill:#888800;stroke:none"/><polygon points="250,95 208,104 210,109 " style="fill:#888800;stroke:none"/><polygon points="289,109 327,129 332,118 291,104 " style="fill:#888800;stroke:none"/><polygon points="208,104 167,118 172,129 210,109 " style="fill:#888800;stroke:none"/><polygon points="291,368 292,401 333,392 332,359 " style="fill:#888800;stroke:none"/><polygon points="167,359 166,392 207,401 208,368 " style="fill:#888800;stroke:none"/><polygon points="250,95 285,115 289,109 " style="fill:#898900;stroke:none"/><polygon points="250,95 210,109 214,115 " style="fill:#898900;stroke:none"/><polygon points="351,169 378,201 392,182 362,154 " style="fill:#898900;stroke:none"/><polygon points="137,154 107,182 121,201 148,169 " style="fill:#898900;stroke:none"/><polygon points="250,95 280,119 285,115 " style="fill:#898900;stroke:none"/><polygon points="250,95 214,115 219,119 " style="fill:#898900;stroke:none"/><polygon points="250,371 250,404 292,401 291,368 " style="fill:#898900;stroke:none"/><polygon points="208,368 207,401 250,404 250,371 " style="fill:#898900;stroke:none"/><polygon points="250,95 273,123 280,119 " style="fill:#909000;stroke:none"/><polygon points="250,95 219,119 226,123 " style="fill:#909000;stroke:none"/><polygon points="285,115 319,139 327,129 289,109 " style="fill:#909000;stroke:none"/><polygon points="210,109 172,129 180,139 214,115 " style="fill:#909000;stroke:none"/><polygon points="319,139 351,169 362,154 327,129 " style="fill:#909000;stroke:none"/><polygon points="172,129 137,154 148,169 180,139 " style="fill:#909000;stroke:none"/><polygon points="250,95 266,126 273,123 " style="fill:#909000;stroke:none"/><polygon points="250,95 226,123 233,126 " style="fill:#919100;stroke:none"/><polygon points="250,95 258,127 266,126 " style="fill:#919100;stroke:none"/><polygon points="250,95 233,126 241,127 " style="fill:#919100;stroke:none"/><polygon points="250,95 250,128 258,127 " style="fill:#919100;stroke:none"/><polygon points="250,95 241,127 250,128 " style="fill:#919100;stroke:none"/><polygon points="359,217 378,255 401,235 378,201 " style="fill:#919100;stroke:none"/><polygon points="121,201 98,235 121,255 140,217 " style="fill:#919100;stroke:none"/><polygon points="327,322 332,359 369,345 362,309 " style="fill:#919100;stroke:none"/><polygon points="137,309 130,345 167,359 172,322 " style="fill:#929200;stroke:none"/><polygon points="280,119 309,148 319,139 285,115 " style="fill:#929200;stroke:none"/><polygon points="214,115 180,139 190,148 219,119 " style="fill:#929200;stroke:none"/><polygon points="351,271 362,309 392,291 378,255 " style="fill:#929200;stroke:none"/><polygon points="121,255 107,291 137,309 148,271 " style="fill:#929200;stroke:none"/><polygon points="335,182 359,217 378,201 351,169 " style="fill:#929200;stroke:none"/><polygon points="148,169 121,201 140,217 164,182 " style="fill:#929200;stroke:none"/><polygon points="309,148 335,182 351,169 319,139 " style="fill:#939300;stroke:none"/><polygon points="180,139 148,169 164,182 190,148 " style="fill:#939300;stroke:none"/><polygon points="273,123 296,156 309,148 280,119 " style="fill:#939300;stroke:none"/><polygon points="219,119 190,148 203,156 226,123 " style="fill:#939300;stroke:none"/><polygon points="289,330 291,368 332,359 327,322 " style="fill:#939300;stroke:none"/><polygon points="172,322 167,359 208,368 210,330 " style="fill:#939300;stroke:none"/><polygon points="266,126 282,161 296,156 273,123 " style="fill:#939300;stroke:none"/><polygon points="226,123 203,156 217,161 233,126 " style="fill:#949400;stroke:none"/><polygon points="335,231 351,271 378,255 359,217 " style="fill:#949400;stroke:none"/><polygon points="140,217 121,255 148,271 164,231 " style="fill:#949400;stroke:none"/><polygon points="258,127 266,165 282,161 266,126 " style="fill:#949400;stroke:none"/><polygon points="233,126 217,161 233,165 241,127 " style="fill:#949400;stroke:none"/><polygon points="250,333 250,371 291,368 289,330 " style="fill:#949400;stroke:none"/><polygon points="210,330 208,368 250,371 250,333 " style="fill:#949400;stroke:none"/><polygon points="250,128 250,166 266,165 258,127 " style="fill:#949400;stroke:none"/><polygon points="241,127 233,165 250,166 250,128 " style="fill:#959500;stroke:none"/><polygon points="296,156 317,192 335,182 309,148 " style="fill:#959500;stroke:none"/><polygon points="190,148 164,182 182,192 203,156 " style="fill:#959500;stroke:none"/><polygon points="319,282 327,322 362,309 351,271 " style="fill:#959500;stroke:none"/><polygon points="148,271 137,309 172,322 180,282 " style="fill:#959500;stroke:none"/><polygon points="317,192 335,231 359,217 335,182 " style="fill:#959500;stroke:none"/><polygon points="164,182 140,217 164,231 182,192 " style="fill:#959500;stroke:none"/><polygon points="282,161 296,200 317,192 296,156 " style="fill:#969600;stroke:none"/><polygon points="203,156 182,192 203,200 217,161 " style="fill:#969600;stroke:none"/><polygon points="285,290 289,330 327,322 319,282 " style="fill:#969600;stroke:none"/><polygon points="180,282 172,322 210,330 214,290 " style="fill:#969600;stroke:none"/><polygon points="309,241 319,282 351,271 335,231 " style="fill:#969600;stroke:none"/><polygon points="164,231 148,271 180,282 190,241 " style="fill:#969600;stroke:none"/><polygon points="296,200 309,241 335,231 317,192 " style="fill:#969600;stroke:none"/><polygon points="182,192 164,231 190,241 203,200 " style="fill:#969600;stroke:none"/><polygon points="266,165 273,205 296,200 282,161 " style="fill:#979700;stroke:none"/><polygon points="217,161 203,200 226,205 233,165 " style="fill:#979700;stroke:none"/><polygon points="250,292 250,333 289,330 285,290 " style="fill:#979700;stroke:none"/><polygon points="214,290 210,330 250,333 250,292 " style="fill:#979700;stroke:none"/><polygon points="250,166 250,207 273,205 266,165 " style="fill:#979700;stroke:none"/><polygon points="233,165 226,205 250,207 250,166 " style="fill:#979700;stroke:none"/><polygon points="280,247 285,290 319,282 309,241 " style="fill:#979700;stroke:none"/><polygon points="190,241 180,282 214,290 219,247 " style="fill:#989800;stroke:none"/><polygon points="273,205 280,247 309,241 296,200 " style="fill:#989800;stroke:none"/><polygon points="203,200 190,241 219,247 226,205 " style="fill:#989800;stroke:none"/><polygon points="250,250 250,292 285,290 280,247 " style="fill:#989800;stroke:none"/><polygon points="219,247 214,290 250,292 250,250 " style="fill:#989800;stroke:none"/><polygon points="250,207 250,250 280,247 273,205 " style="fill:#989800;stroke:none"/><polygon points="226,205 219,247 250,250 250,207 " style="fill:#989800;stroke:none"/></svg>