<svg xmlns="http://www.w3.org/2000/svg" version="1.1" width="500" height="500" style="background: #999999"> <polygon points="249,152 296,159 295,164 249,157 " style="fill:#303000;stroke:none"/><polygon points="203,159 249,152 249,157 204,164 " style="fill:#303000;stroke:none"/><polygon points="249,124 304,131 299,149 249,142 " style="fill:#303000;stroke:none"/><polygon points="195,131 249,124 249,142 200,149 " style="fill:#303000;stroke:none"/><polygon points="249,142 299,149 296,159 249,152 " style="fill:#303000;stroke:none"/><polygon points="200,149 249,142 249,152 203,159 " style="fill:#303000;stroke:none"/><polygon points="249,101 309,109 304,131 249,124 " style="fill:#303000;stroke:none"/><polygon points="190,109 249,101 249,124 195,131 " style="fill:#303000;stroke:none"/><polygon points="249,157 295,164 290,177 249,171 " style="fill:#313100;stroke:none"/><polygon points="204,164 249,157 249,171 209,177 " style="fill:#313100;stroke:none"/><polygon points="249,79 312,87 309,109 249,101 " style="fill:#313100;stroke:none"/><polygon points="187,87 249,79 249,101 190,109 " style="fill:#313100;stroke:none"/><polygon points="296,159 338,178 336,183 295,164 " style="fill:#313100;stroke:none"/><polygon points="161,178 203,159 204,164 163,183 " style="fill:#313100;stroke:none"/><polygon points="299,149 342,170 338,178 296,159 " style="fill:#313100;stroke:none"/><polygon points="157,170 200,149 203,159 161,178 " style="fill:#323200;stroke:none"/><polygon points="295,164 336,183 325,193 290,177 " style="fill:#323200;stroke:none"/><polygon points="163,183 204,164 209,177 174,193 " style="fill:#323200;stroke:none"/><polygon points="304,131 352,154 342,170 299,149 " style="fill:#323200;stroke:none"/><polygon points="147,154 195,131 200,149 157,170 " style="fill:#323200;stroke:none"/><polygon points="309,109 362,134 352,154 304,131 " style="fill:#323200;stroke:none"/><polygon points="137,134 190,109 195,131 147,154 " style="fill:#323200;stroke:none"/><polygon points="249,171 290,177 276,203 249,199 " style="fill:#323200;stroke:none"/><polygon points="209,177 249,171 249,199 223,203 " style="fill:#333300;stroke:none"/><polygon points="312,87 367,113 362,134 309,109 " style="fill:#333300;stroke:none"/><polygon points="132,113 187,87 190,109 137,134 " style="fill:#333300;stroke:none"/><polygon points="249,60 310,69 312,87 249,79 " style="fill:#333300;stroke:none"/><polygon points="189,69 249,60 249,79 187,87 " style="fill:#333300;stroke:none"/><polygon points="290,177 325,193 299,214 276,203 " style="fill:#333300;stroke:none"/><polygon points="174,193 209,177 223,203 200,214 " style="fill:#333300;stroke:none"/><polygon points="120,91 124,84 148,115 147,125 " style="fill:#343400;stroke:none"/><polygon points="101,60 108,57 124,84 120,91 " style="fill:#343400;stroke:none"/><polygon points="89,68 101,60 120,91 109,99 " style="fill:#343400;stroke:none"/><polygon points="109,99 120,91 147,125 138,135 " style="fill:#343400;stroke:none"/><polygon points="124,84 122,83 143,110 148,115 " style="fill:#343400;stroke:none"/><polygon points="108,57 108,58 122,83 124,84 " style="fill:#343400;stroke:none"/><polygon points="77,41 89,35 101,60 89,68 " style="fill:#343400;stroke:none"/><polygon points="89,35 98,34 108,57 101,60 " style="fill:#343400;stroke:none"/><polygon points="81,74 89,68 109,99 100,105 " style="fill:#353500;stroke:none"/><polygon points="100,105 109,99 138,135 127,139 " style="fill:#353500;stroke:none"/><polygon points="338,178 365,208 363,212 336,183 " style="fill:#353500;stroke:none"/><polygon points="134,208 161,178 163,183 136,212 " style="fill:#353500;stroke:none"/><polygon points="336,183 363,212 349,218 325,193 " style="fill:#353500;stroke:none"/><polygon points="136,212 163,183 174,193 150,218 " style="fill:#353500;stroke:none"/><polygon points="342,170 372,201 365,208 338,178 " style="fill:#353500;stroke:none"/><polygon points="127,201 157,170 161,178 134,208 " style="fill:#363600;stroke:none"/><polygon points="98,34 100,37 108,58 108,57 " style="fill:#363600;stroke:none"/><polygon points="122,83 113,88 132,113 143,110 " style="fill:#363600;stroke:none"/><polygon points="70,49 77,41 89,68 81,74 " style="fill:#363600;stroke:none"/><polygon points="352,154 385,188 372,201 342,170 " style="fill:#363600;stroke:none"/><polygon points="114,188 147,154 157,170 127,201 " style="fill:#363600;stroke:none"/><polygon points="108,58 100,65 113,88 122,83 " style="fill:#363600;stroke:none"/><polygon points="98,103 100,105 127,139 122,134 " style="fill:#373700;stroke:none"/><polygon points="81,76 81,74 100,105 98,103 " style="fill:#373700;stroke:none"/><polygon points="310,69 365,95 367,113 312,87 " style="fill:#373700;stroke:none"/><polygon points="134,95 189,69 187,87 132,113 " style="fill:#373700;stroke:none"/><polygon points="325,193 349,218 314,230 299,214 " style="fill:#373700;stroke:none"/><polygon points="150,218 174,193 200,214 185,230 " style="fill:#373700;stroke:none"/><polygon points="249,199 276,203 250,250 " style="fill:#373700;stroke:none"/><polygon points="223,203 249,199 250,250 " style="fill:#373700;stroke:none"/><polygon points="86,14 95,16 98,34 89,35 " style="fill:#383800;stroke:none"/><polygon points="73,19 86,14 89,35 77,41 " style="fill:#383800;stroke:none"/><polygon points="362,134 398,172 385,188 352,154 " style="fill:#383800;stroke:none"/><polygon points="101,172 137,134 147,154 114,188 " style="fill:#383800;stroke:none"/><polygon points="113,88 103,97 123,124 132,113 " style="fill:#383800;stroke:none"/><polygon points="103,97 98,103 122,134 123,124 " style="fill:#383800;stroke:none"/><polygon points="100,65 89,72 103,97 113,88 " style="fill:#383800;stroke:none"/><polygon points="89,72 81,76 98,103 103,97 " style="fill:#393900;stroke:none"/><polygon points="100,37 93,45 100,65 108,58 " style="fill:#393900;stroke:none"/><polygon points="276,203 299,214 250,250 " style="fill:#393900;stroke:none"/><polygon points="200,214 223,203 250,250 " style="fill:#393900;stroke:none"/><polygon points="72,52 70,49 81,74 81,76 " style="fill:#393900;stroke:none"/><polygon points="95,16 98,22 100,37 98,34 " style="fill:#393900;stroke:none"/><polygon points="249,45 307,53 310,69 249,60 " style="fill:#393900;stroke:none"/><polygon points="192,53 249,45 249,60 189,69 " style="fill:#393900;stroke:none"/><polygon points="66,28 73,19 77,41 70,49 " style="fill:#404000;stroke:none"/><polygon points="81,51 72,52 81,76 89,72 " style="fill:#404000;stroke:none"/><polygon points="93,45 81,51 89,72 100,65 " style="fill:#404000;stroke:none"/><polygon points="367,113 404,153 398,172 362,134 " style="fill:#404000;stroke:none"/><polygon points="95,153 132,113 137,134 101,172 " style="fill:#404000;stroke:none"/><polygon points="299,214 314,230 250,250 " style="fill:#404000;stroke:none"/><polygon points="185,230 200,214 250,250 " style="fill:#404000;stroke:none"/><polygon points="98,22 91,31 93,45 100,37 " style="fill:#414100;stroke:none"/><polygon points="91,4 100,8 95,16 86,14 " style="fill:#414100;stroke:none"/><polygon points="69,35 66,28 70,49 72,52 " style="fill:#414100;stroke:none"/><polygon points="79,8 91,4 86,14 73,19 " style="fill:#414100;stroke:none"/><polygon points="100,8 102,17 98,22 95,16 " style="fill:#414100;stroke:none"/><polygon points="363,212 372,244 357,247 349,218 " style="fill:#414100;stroke:none"/><polygon points="127,244 136,212 150,218 142,247 " style="fill:#414100;stroke:none"/><polygon points="349,218 357,247 319,249 314,230 " style="fill:#414100;stroke:none"/><polygon points="142,247 150,218 185,230 180,249 " style="fill:#424200;stroke:none"/><polygon points="91,31 78,36 81,51 93,45 " style="fill:#424200;stroke:none"/><polygon points="365,208 375,241 372,244 363,212 " style="fill:#424200;stroke:none"/><polygon points="124,241 134,208 136,212 127,244 " style="fill:#424200;stroke:none"/><polygon points="78,36 69,35 72,52 81,51 " style="fill:#424200;stroke:none"/><polygon points="307,53 358,77 365,95 310,69 " style="fill:#424200;stroke:none"/><polygon points="141,77 192,53 189,69 134,95 " style="fill:#424200;stroke:none"/><polygon points="314,230 319,249 250,250 " style="fill:#434300;stroke:none"/><polygon points="180,249 185,230 250,250 " style="fill:#434300;stroke:none"/><polygon points="372,201 381,236 375,241 365,208 " style="fill:#434300;stroke:none"/><polygon points="118,236 127,201 134,208 124,241 " style="fill:#434300;stroke:none"/><polygon points="102,17 95,27 91,31 98,22 " style="fill:#434300;stroke:none"/><polygon points="71,18 79,8 73,19 66,28 " style="fill:#434300;stroke:none"/><polygon points="385,188 396,227 381,236 372,201 " style="fill:#434300;stroke:none"/><polygon points="103,227 114,188 127,201 118,236 " style="fill:#444400;stroke:none"/><polygon points="365,95 401,133 404,153 367,113 " style="fill:#444400;stroke:none"/><polygon points="98,133 134,95 132,113 95,153 " style="fill:#444400;stroke:none"/><polygon points="74,27 71,18 66,28 69,35 " style="fill:#444400;stroke:none"/><polygon points="95,27 83,31 78,36 91,31 " style="fill:#444400;stroke:none"/><polygon points="107,8 115,12 100,8 91,4 " style="fill:#444400;stroke:none"/><polygon points="115,12 116,22 102,17 100,8 " style="fill:#444400;stroke:none"/><polygon points="83,31 74,27 69,35 78,36 " style="fill:#444400;stroke:none"/><polygon points="249,32 302,39 307,53 249,45 " style="fill:#454500;stroke:none"/><polygon points="197,39 249,32 249,45 192,53 " style="fill:#454500;stroke:none"/><polygon points="95,11 107,8 91,4 79,8 " style="fill:#454500;stroke:none"/><polygon points="319,249 314,267 250,250 " style="fill:#454500;stroke:none"/><polygon points="185,267 180,249 250,250 " style="fill:#454500;stroke:none"/><polygon points="116,22 108,32 95,27 102,17 " style="fill:#454500;stroke:none"/><polygon points="398,172 410,214 396,227 385,188 " style="fill:#454500;stroke:none"/><polygon points="89,214 101,172 114,188 103,227 " style="fill:#464600;stroke:none"/><polygon points="357,247 349,275 314,267 319,249 " style="fill:#464600;stroke:none"/><polygon points="150,275 142,247 180,249 185,267 " style="fill:#464600;stroke:none"/><polygon points="87,22 95,11 79,8 71,18 " style="fill:#464600;stroke:none"/><polygon points="108,32 96,36 83,31 95,27 " style="fill:#464600;stroke:none"/><polygon points="314,267 299,283 250,250 " style="fill:#464600;stroke:none"/><polygon points="200,283 185,267 250,250 " style="fill:#464600;stroke:none"/><polygon points="88,31 87,22 71,18 74,27 " style="fill:#464600;stroke:none"/><polygon points="96,36 88,31 74,27 83,31 " style="fill:#474700;stroke:none"/><polygon points="139,27 137,35 116,22 115,12 " style="fill:#474700;stroke:none"/><polygon points="372,244 363,276 349,275 357,247 " style="fill:#474700;stroke:none"/><polygon points="136,276 127,244 142,247 150,275 " style="fill:#474700;stroke:none"/><polygon points="133,24 139,27 115,12 107,8 " style="fill:#474700;stroke:none"/><polygon points="302,39 348,61 358,77 307,53 " style="fill:#474700;stroke:none"/><polygon points="151,61 197,39 192,53 141,77 " style="fill:#474700;stroke:none"/><polygon points="137,35 128,45 108,32 116,22 " style="fill:#484800;stroke:none"/><polygon points="404,153 416,197 410,214 398,172 " style="fill:#484800;stroke:none"/><polygon points="83,197 95,153 101,172 89,214 " style="fill:#484800;stroke:none"/><polygon points="375,241 365,274 363,276 372,244 " style="fill:#484800;stroke:none"/><polygon points="134,274 124,241 127,244 136,276 " style="fill:#484800;stroke:none"/><polygon points="358,77 392,114 401,133 365,95 " style="fill:#484800;stroke:none"/><polygon points="107,114 141,77 134,95 98,133 " style="fill:#484800;stroke:none"/><polygon points="123,28 133,24 107,8 95,11 " style="fill:#494900;stroke:none"/><polygon points="299,283 276,294 250,250 " style="fill:#494900;stroke:none"/><polygon points="223,294 200,283 250,250 " style="fill:#494900;stroke:none"/><polygon points="381,236 372,270 365,274 375,241 " style="fill:#494900;stroke:none"/><polygon points="127,270 118,236 124,241 134,274 " style="fill:#494900;stroke:none"/><polygon points="128,45 117,49 96,36 108,32 " style="fill:#494900;stroke:none"/><polygon points="276,294 250,298 250,250 " style="fill:#494900;stroke:none"/><polygon points="250,298 223,294 250,250 " style="fill:#494900;stroke:none"/><polygon points="114,38 123,28 95,11 87,22 " style="fill:#505000;stroke:none"/><polygon points="117,49 112,46 88,31 96,36 " style="fill:#505000;stroke:none"/><polygon points="349,275 325,300 299,283 314,267 " style="fill:#505000;stroke:none"/><polygon points="174,300 150,275 185,267 200,283 " style="fill:#505000;stroke:none"/><polygon points="396,227 385,265 372,270 381,236 " style="fill:#505000;stroke:none"/><polygon points="114,265 103,227 118,236 127,270 " style="fill:#505000;stroke:none"/><polygon points="112,46 114,38 87,22 88,31 " style="fill:#505000;stroke:none"/><polygon points="172,50 166,55 137,35 139,27 " style="fill:#515100;stroke:none"/><polygon points="249,20 296,26 302,39 249,32 " style="fill:#515100;stroke:none"/><polygon points="203,26 249,20 249,32 197,39 " style="fill:#515100;stroke:none"/><polygon points="166,55 155,64 128,45 137,35 " style="fill:#515100;stroke:none"/><polygon points="401,133 413,176 416,197 404,153 " style="fill:#515100;stroke:none"/><polygon points="86,176 98,133 95,153 83,197 " style="fill:#515100;stroke:none"/><polygon points="170,49 172,50 139,27 133,24 " style="fill:#515100;stroke:none"/><polygon points="155,64 146,70 117,49 128,45 " style="fill:#515100;stroke:none"/><polygon points="363,276 336,305 325,300 349,275 " style="fill:#525200;stroke:none"/><polygon points="163,305 136,276 150,275 174,300 " style="fill:#525200;stroke:none"/><polygon points="410,214 398,256 385,265 396,227 " style="fill:#525200;stroke:none"/><polygon points="101,256 89,214 103,227 114,265 " style="fill:#525200;stroke:none"/><polygon points="348,61 380,94 392,114 358,77 " style="fill:#525200;stroke:none"/><polygon points="119,94 151,61 141,77 107,114 " style="fill:#525200;stroke:none"/><polygon points="161,55 170,49 133,24 123,28 " style="fill:#525200;stroke:none"/><polygon points="325,300 290,317 276,294 299,283 " style="fill:#535300;stroke:none"/><polygon points="209,317 174,300 200,283 223,294 " style="fill:#535300;stroke:none"/><polygon points="296,26 338,46 348,61 302,39 " style="fill:#535300;stroke:none"/><polygon points="161,46 203,26 197,39 151,61 " style="fill:#535300;stroke:none"/><polygon points="365,274 338,303 336,305 363,276 " style="fill:#535300;stroke:none"/><polygon points="161,303 134,274 136,276 163,305 " style="fill:#535300;stroke:none"/><polygon points="146,70 145,69 112,46 117,49 " style="fill:#535300;stroke:none"/><polygon points="150,63 161,55 123,28 114,38 " style="fill:#535300;stroke:none"/><polygon points="249,19 295,25 296,26 249,20 " style="fill:#545400;stroke:none"/><polygon points="204,25 249,19 249,20 203,26 " style="fill:#545400;stroke:none"/><polygon points="145,69 150,63 114,38 112,46 " style="fill:#545400;stroke:none"/><polygon points="372,270 342,301 338,303 365,274 " style="fill:#545400;stroke:none"/><polygon points="157,301 127,270 134,274 161,303 " style="fill:#545400;stroke:none"/><polygon points="290,317 250,323 250,298 276,294 " style="fill:#545400;stroke:none"/><polygon points="250,323 209,317 223,294 250,298 " style="fill:#545400;stroke:none"/><polygon points="392,114 403,154 413,176 401,133 " style="fill:#555500;stroke:none"/><polygon points="96,154 107,114 98,133 86,176 " style="fill:#555500;stroke:none"/><polygon points="249,26 293,32 293,29 249,23 " style="fill:#555500;stroke:none"/><polygon points="206,32 249,26 249,23 206,29 " style="fill:#555500;stroke:none"/><polygon points="249,20 293,26 295,25 249,19 " style="fill:#555500;stroke:none"/><polygon points="206,26 249,20 249,19 204,25 " style="fill:#555500;stroke:none"/><polygon points="416,197 404,241 398,256 410,214 " style="fill:#555500;stroke:none"/><polygon points="95,241 83,197 89,214 101,256 " style="fill:#565600;stroke:none"/><polygon points="249,23 293,29 293,26 249,20 " style="fill:#565600;stroke:none"/><polygon points="206,29 249,23 249,20 206,26 " style="fill:#565600;stroke:none"/><polygon points="336,305 295,324 290,317 325,300 " style="fill:#565600;stroke:none"/><polygon points="204,324 163,305 174,300 209,317 " style="fill:#565600;stroke:none"/><polygon points="385,265 352,300 342,301 372,270 " style="fill:#565600;stroke:none"/><polygon points="147,300 114,265 127,270 157,301 " style="fill:#565600;stroke:none"/><polygon points="295,25 335,44 338,46 296,26 " style="fill:#565600;stroke:none"/><polygon points="164,44 204,25 203,26 161,46 " style="fill:#575700;stroke:none"/><polygon points="249,35 286,40 290,37 249,32 " style="fill:#575700;stroke:none"/><polygon points="213,40 249,35 249,32 209,37 " style="fill:#575700;stroke:none"/><polygon points="293,32 332,50 331,47 293,29 " style="fill:#575700;stroke:none"/><polygon points="167,50 206,32 206,29 168,47 " style="fill:#575700;stroke:none"/><polygon points="293,26 332,44 335,44 295,25 " style="fill:#575700;stroke:none"/><polygon points="167,44 206,26 204,25 164,44 " style="fill:#575700;stroke:none"/><polygon points="338,303 296,323 295,324 336,305 " style="fill:#585800;stroke:none"/><polygon points="203,323 161,303 163,305 204,324 " style="fill:#585800;stroke:none"/><polygon points="338,46 365,75 380,94 348,61 " style="fill:#585800;stroke:none"/><polygon points="134,75 161,46 151,61 119,94 " style="fill:#585800;stroke:none"/><polygon points="293,29 331,47 332,44 293,26 " style="fill:#585800;stroke:none"/><polygon points="168,47 206,29 206,26 167,44 " style="fill:#585800;stroke:none"/><polygon points="295,324 250,330 250,323 290,317 " style="fill:#585800;stroke:none"/><polygon points="250,330 204,324 209,317 250,323 " style="fill:#585800;stroke:none"/><polygon points="286,40 317,55 326,54 290,37 " style="fill:#595900;stroke:none"/><polygon points="182,55 213,40 209,37 173,54 " style="fill:#595900;stroke:none"/><polygon points="413,176 401,219 404,241 416,197 " style="fill:#595900;stroke:none"/><polygon points="98,219 86,176 83,197 95,241 " style="fill:#595900;stroke:none"/><polygon points="342,301 299,322 296,323 338,303 " style="fill:#595900;stroke:none"/><polygon points="200,322 157,301 161,303 203,323 " style="fill:#595900;stroke:none"/><polygon points="380,94 390,131 403,154 392,114 " style="fill:#595900;stroke:none"/><polygon points="109,131 119,94 107,114 96,154 " style="fill:#606000;stroke:none"/><polygon points="398,256 362,294 352,300 385,265 " style="fill:#606000;stroke:none"/><polygon points="137,294 101,256 114,265 147,300 " style="fill:#606000;stroke:none"/><polygon points="296,323 250,329 250,330 295,324 " style="fill:#606000;stroke:none"/><polygon points="250,329 203,323 204,324 250,330 " style="fill:#606000;stroke:none"/><polygon points="249,51 275,54 286,40 249,35 " style="fill:#606000;stroke:none"/><polygon points="224,54 249,51 249,35 213,40 " style="fill:#606000;stroke:none"/><polygon points="335,44 362,72 365,75 338,46 " style="fill:#606000;stroke:none"/><polygon points="137,72 164,44 161,46 134,75 " style="fill:#616100;stroke:none"/><polygon points="352,300 304,323 299,322 342,301 " style="fill:#616100;stroke:none"/><polygon points="195,323 147,300 157,301 200,322 " style="fill:#616100;stroke:none"/><polygon points="299,322 250,329 250,329 296,323 " style="fill:#616100;stroke:none"/><polygon points="250,329 200,322 203,323 250,329 " style="fill:#616100;stroke:none"/><polygon points="141,77 167,50 168,47 142,73 " style="fill:#616100;stroke:none"/><polygon points="332,50 358,78 356,74 331,47 " style="fill:#616100;stroke:none"/><polygon points="275,54 298,65 317,55 286,40 " style="fill:#626200;stroke:none"/><polygon points="201,65 224,54 213,40 182,55 " style="fill:#626200;stroke:none"/><polygon points="141,72 167,44 164,44 137,72 " style="fill:#626200;stroke:none"/><polygon points="332,44 358,72 362,72 335,44 " style="fill:#626200;stroke:none"/><polygon points="142,73 168,47 167,44 141,72 " style="fill:#626200;stroke:none"/><polygon points="331,47 356,74 358,72 332,44 " style="fill:#626200;stroke:none"/><polygon points="317,55 339,78 350,80 326,54 " style="fill:#626200;stroke:none"/><polygon points="160,78 182,55 173,54 149,80 " style="fill:#636300;stroke:none"/><polygon points="403,154 392,195 401,219 413,176 " style="fill:#636300;stroke:none"/><polygon points="107,195 96,154 86,176 98,219 " style="fill:#636300;stroke:none"/><polygon points="404,241 367,280 362,294 398,256 " style="fill:#636300;stroke:none"/><polygon points="132,280 95,241 101,256 137,294 " style="fill:#636300;stroke:none"/><polygon points="365,75 375,108 390,131 380,94 " style="fill:#636300;stroke:none"/><polygon points="124,108 134,75 119,94 109,131 " style="fill:#636300;stroke:none"/><polygon points="304,323 250,330 250,329 299,322 " style="fill:#636300;stroke:none"/><polygon points="250,330 195,323 200,322 250,329 " style="fill:#646400;stroke:none"/><polygon points="249,69 264,71 275,54 249,51 " style="fill:#646400;stroke:none"/><polygon points="235,71 249,69 249,51 224,54 " style="fill:#646400;stroke:none"/><polygon points="298,65 313,81 339,78 317,55 " style="fill:#646400;stroke:none"/><polygon points="186,81 201,65 182,55 160,78 " style="fill:#646400;stroke:none"/><polygon points="362,294 309,319 304,323 352,300 " style="fill:#646400;stroke:none"/><polygon points="190,319 137,294 147,300 195,323 " style="fill:#646400;stroke:none"/><polygon points="264,71 276,77 298,65 275,54 " style="fill:#656500;stroke:none"/><polygon points="223,77 235,71 224,54 201,65 " style="fill:#656500;stroke:none"/><polygon points="371,262 379,240 411,254 409,274 " style="fill:#656500;stroke:none"/><polygon points="349,285 371,262 409,274 391,296 " style="fill:#656500;stroke:none"/><polygon points="390,131 380,169 392,195 403,154 " style="fill:#656500;stroke:none"/><polygon points="119,169 109,131 96,154 107,195 " style="fill:#656500;stroke:none"/><polygon points="401,219 365,257 367,280 404,241 " style="fill:#656500;stroke:none"/><polygon points="134,257 98,219 95,241 132,280 " style="fill:#656500;stroke:none"/><polygon points="128,104 137,72 134,75 124,108 " style="fill:#666600;stroke:none"/><polygon points="362,72 370,104 375,108 365,75 " style="fill:#666600;stroke:none"/><polygon points="131,107 141,77 142,73 133,103 " style="fill:#666600;stroke:none"/><polygon points="358,78 366,108 365,104 356,74 " style="fill:#666600;stroke:none"/><polygon points="339,78 346,103 358,108 350,80 " style="fill:#666600;stroke:none"/><polygon points="153,103 160,78 149,80 141,108 " style="fill:#666600;stroke:none"/><polygon points="132,102 141,72 137,72 128,104 " style="fill:#666600;stroke:none"/><polygon points="358,72 367,103 370,104 362,72 " style="fill:#676700;stroke:none"/><polygon points="133,103 142,73 141,72 132,102 " style="fill:#676700;stroke:none"/><polygon points="356,74 365,104 367,103 358,72 " style="fill:#676700;stroke:none"/><polygon points="276,77 285,86 313,81 298,65 " style="fill:#676700;stroke:none"/><polygon points="214,86 223,77 201,65 186,81 " style="fill:#676700;stroke:none"/><polygon points="309,319 250,327 250,330 304,323 " style="fill:#676700;stroke:none"/><polygon points="250,327 190,319 195,323 250,330 " style="fill:#676700;stroke:none"/><polygon points="313,81 318,100 346,103 339,78 " style="fill:#686800;stroke:none"/><polygon points="181,100 186,81 160,78 153,103 " style="fill:#686800;stroke:none"/><polygon points="249,79 256,80 264,71 249,69 " style="fill:#686800;stroke:none"/><polygon points="243,80 249,79 249,69 235,71 " style="fill:#686800;stroke:none"/><polygon points="379,240 371,229 400,243 411,254 " style="fill:#686800;stroke:none"/><polygon points="367,280 312,306 309,319 362,294 " style="fill:#686800;stroke:none"/><polygon points="187,306 132,280 137,294 190,319 " style="fill:#686800;stroke:none"/><polygon points="256,80 261,82 276,77 264,71 " style="fill:#686800;stroke:none"/><polygon points="238,82 243,80 235,71 223,77 " style="fill:#696900;stroke:none"/><polygon points="328,293 349,285 391,296 370,302 " style="fill:#696900;stroke:none"/><polygon points="285,86 288,96 318,100 313,81 " style="fill:#696900;stroke:none"/><polygon points="211,96 214,86 186,81 181,100 " style="fill:#696900;stroke:none"/><polygon points="392,195 358,231 365,257 401,219 " style="fill:#696900;stroke:none"/><polygon points="141,231 107,195 98,219 134,257 " style="fill:#696900;stroke:none"/><polygon points="261,82 265,86 285,86 276,77 " style="fill:#696900;stroke:none"/><polygon points="234,86 238,82 223,77 214,86 " style="fill:#707000;stroke:none"/><polygon points="375,108 365,141 380,169 390,131 " style="fill:#707000;stroke:none"/><polygon points="134,141 124,108 109,131 119,169 " style="fill:#707000;stroke:none"/><polygon points="249,71 256,72 256,80 249,79 " style="fill:#707000;stroke:none"/><polygon points="243,72 249,71 249,79 243,80 " style="fill:#707000;stroke:none"/><polygon points="265,86 266,91 288,96 285,86 " style="fill:#707000;stroke:none"/><polygon points="233,91 234,86 214,86 211,96 " style="fill:#707000;stroke:none"/><polygon points="256,72 261,75 261,82 256,80 " style="fill:#707000;stroke:none"/><polygon points="238,75 243,72 243,80 238,82 " style="fill:#717100;stroke:none"/><polygon points="312,306 250,315 250,327 309,319 " style="fill:#717100;stroke:none"/><polygon points="250,315 187,306 190,319 250,327 " style="fill:#717100;stroke:none"/><polygon points="249,55 260,56 256,72 249,71 " style="fill:#717100;stroke:none"/><polygon points="239,56 249,55 249,71 243,72 " style="fill:#717100;stroke:none"/><polygon points="261,75 265,79 265,86 261,82 " style="fill:#717100;stroke:none"/><polygon points="234,79 238,75 238,82 234,86 " style="fill:#717100;stroke:none"/><polygon points="346,103 339,129 350,137 358,108 " style="fill:#727200;stroke:none"/><polygon points="160,129 153,103 141,108 149,137 " style="fill:#727200;stroke:none"/><polygon points="371,229 349,236 378,250 400,243 " style="fill:#727200;stroke:none"/><polygon points="139,138 131,107 133,103 142,134 " style="fill:#727200;stroke:none"/><polygon points="260,56 269,61 261,75 256,72 " style="fill:#727200;stroke:none"/><polygon points="230,61 239,56 243,72 238,75 " style="fill:#727200;stroke:none"/><polygon points="365,257 310,283 312,306 367,280 " style="fill:#727200;stroke:none"/><polygon points="189,283 134,257 132,280 187,306 " style="fill:#727200;stroke:none"/><polygon points="366,108 358,139 356,134 365,104 " style="fill:#737300;stroke:none"/><polygon points="288,96 285,106 313,118 318,100 " style="fill:#737300;stroke:none"/><polygon points="214,106 211,96 181,100 186,118 " style="fill:#737300;stroke:none"/><polygon points="318,100 313,118 339,129 346,103 " style="fill:#737300;stroke:none"/><polygon points="186,118 181,100 153,103 160,129 " style="fill:#737300;stroke:none"/><polygon points="137,136 128,104 124,108 134,141 " style="fill:#737300;stroke:none"/><polygon points="370,104 362,136 365,141 375,108 " style="fill:#737300;stroke:none"/><polygon points="320,281 328,293 370,302 358,291 " style="fill:#747400;stroke:none"/><polygon points="266,91 265,95 285,106 288,96 " style="fill:#747400;stroke:none"/><polygon points="234,95 233,91 211,96 214,106 " style="fill:#747400;stroke:none"/><polygon points="249,47 260,49 260,56 249,55 " style="fill:#747400;stroke:none"/><polygon points="239,49 249,47 249,55 239,56 " style="fill:#747400;stroke:none"/><polygon points="265,79 266,83 266,91 265,86 " style="fill:#747400;stroke:none"/><polygon points="233,83 234,79 234,86 233,91 " style="fill:#747400;stroke:none"/><polygon points="142,134 133,103 132,102 141,133 " style="fill:#757500;stroke:none"/><polygon points="365,104 356,134 358,134 367,103 " style="fill:#757500;stroke:none"/><polygon points="141,133 132,102 128,104 137,136 " style="fill:#757500;stroke:none"/><polygon points="367,103 358,134 362,136 370,104 " style="fill:#757500;stroke:none"/><polygon points="269,61 275,67 265,79 261,75 " style="fill:#757500;stroke:none"/><polygon points="224,67 230,61 238,75 234,79 " style="fill:#757500;stroke:none"/><polygon points="260,49 270,53 269,61 260,56 " style="fill:#757500;stroke:none"/><polygon points="229,53 239,49 239,56 230,61 " style="fill:#757500;stroke:none"/><polygon points="380,169 348,201 358,231 392,195 " style="fill:#767600;stroke:none"/><polygon points="151,201 119,169 107,195 141,231 " style="fill:#767600;stroke:none"/><polygon points="266,83 265,87 265,95 266,91 " style="fill:#767600;stroke:none"/><polygon points="234,87 233,83 233,91 234,95 " style="fill:#767600;stroke:none"/><polygon points="265,95 261,99 276,115 285,106 " style="fill:#767600;stroke:none"/><polygon points="238,99 234,95 214,106 223,115 " style="fill:#767600;stroke:none"/><polygon points="409,274 411,254 419,245 420,260 " style="fill:#767600;stroke:none"/><polygon points="275,67 277,74 266,83 265,79 " style="fill:#777700;stroke:none"/><polygon points="222,74 224,67 234,79 233,83 " style="fill:#777700;stroke:none"/><polygon points="270,53 276,60 275,67 269,61 " style="fill:#777700;stroke:none"/><polygon points="223,60 229,53 230,61 224,67 " style="fill:#777700;stroke:none"/><polygon points="265,87 261,91 261,99 265,95 " style="fill:#777700;stroke:none"/><polygon points="238,91 234,87 234,95 238,99 " style="fill:#777700;stroke:none"/><polygon points="260,49 249,47 250,64 " style="fill:#777700;stroke:none"/><polygon points="249,47 239,49 250,64 " style="fill:#777700;stroke:none"/><polygon points="391,296 409,274 420,260 408,276 " style="fill:#787800;stroke:none"/><polygon points="261,99 256,102 264,121 276,115 " style="fill:#787800;stroke:none"/><polygon points="243,102 238,99 223,115 235,121 " style="fill:#787800;stroke:none"/><polygon points="349,236 328,259 360,271 378,250 " style="fill:#787800;stroke:none"/><polygon points="285,106 276,115 298,134 313,118 " style="fill:#787800;stroke:none"/><polygon points="223,115 214,106 186,118 201,134 " style="fill:#787800;stroke:none"/><polygon points="261,91 256,94 256,102 261,99 " style="fill:#787800;stroke:none"/><polygon points="243,94 238,91 238,99 243,102 " style="fill:#797900;stroke:none"/><polygon points="270,53 260,49 250,64 " style="fill:#797900;stroke:none"/><polygon points="239,49 229,53 250,64 " style="fill:#797900;stroke:none"/><polygon points="328,259 320,281 358,291 360,271 " style="fill:#797900;stroke:none"/><polygon points="411,254 400,243 408,238 419,245 " style="fill:#797900;stroke:none"/><polygon points="277,74 275,81 265,87 266,83 " style="fill:#797900;stroke:none"/><polygon points="224,81 222,74 233,83 234,87 " style="fill:#797900;stroke:none"/><polygon points="256,94 250,95 250,103 256,102 " style="fill:#797900;stroke:none"/><polygon points="250,95 243,94 243,102 250,103 " style="fill:#808000;stroke:none"/><polygon points="256,102 250,103 250,123 264,121 " style="fill:#808000;stroke:none"/><polygon points="250,103 243,102 235,121 250,123 " style="fill:#808000;stroke:none"/><polygon points="276,60 278,67 277,74 275,67 " style="fill:#808000;stroke:none"/><polygon points="221,67 223,60 224,67 222,74 " style="fill:#808000;stroke:none"/><polygon points="310,283 250,292 250,315 312,306 " style="fill:#808000;stroke:none"/><polygon points="250,292 189,283 187,306 250,315 " style="fill:#808000;stroke:none"/><polygon points="358,231 307,255 310,283 365,257 " style="fill:#818100;stroke:none"/><polygon points="192,255 141,231 134,257 189,283 " style="fill:#818100;stroke:none"/><polygon points="276,60 270,53 250,64 " style="fill:#818100;stroke:none"/><polygon points="229,53 223,60 250,64 " style="fill:#818100;stroke:none"/><polygon points="275,81 269,88 261,91 265,87 " style="fill:#818100;stroke:none"/><polygon points="230,88 224,81 234,87 238,91 " style="fill:#818100;stroke:none"/><polygon points="313,118 298,134 317,151 339,129 " style="fill:#818100;stroke:none"/><polygon points="201,134 186,118 160,129 182,151 " style="fill:#828200;stroke:none"/><polygon points="365,141 338,171 348,201 380,169 " style="fill:#828200;stroke:none"/><polygon points="161,171 134,141 119,169 151,201 " style="fill:#828200;stroke:none"/><polygon points="278,67 276,60 250,64 " style="fill:#828200;stroke:none"/><polygon points="223,60 221,67 250,64 " style="fill:#828200;stroke:none"/><polygon points="278,67 276,75 275,81 277,74 " style="fill:#828200;stroke:none"/><polygon points="223,75 221,67 222,74 224,81 " style="fill:#828200;stroke:none"/><polygon points="276,115 264,121 275,145 298,134 " style="fill:#828200;stroke:none"/><polygon points="235,121 223,115 201,134 224,145 " style="fill:#838300;stroke:none"/><polygon points="339,129 317,151 326,162 350,137 " style="fill:#838300;stroke:none"/><polygon points="182,151 160,129 149,137 173,162 " style="fill:#838300;stroke:none"/><polygon points="370,302 391,296 408,276 390,282 " style="fill:#838300;stroke:none"/><polygon points="269,88 260,92 256,94 261,91 " style="fill:#838300;stroke:none"/><polygon points="239,92 230,88 238,91 243,94 " style="fill:#838300;stroke:none"/><polygon points="400,243 378,250 390,243 408,238 " style="fill:#838300;stroke:none"/><polygon points="276,75 278,67 250,64 " style="fill:#848400;stroke:none"/><polygon points="221,67 223,75 250,64 " style="fill:#848400;stroke:none"/><polygon points="260,92 250,93 250,95 256,94 " style="fill:#848400;stroke:none"/><polygon points="250,93 239,92 243,94 250,95 " style="fill:#848400;stroke:none"/><polygon points="167,167 139,138 142,134 168,161 " style="fill:#848400;stroke:none"/><polygon points="358,139 332,167 331,161 356,134 " style="fill:#848400;stroke:none"/><polygon points="264,121 250,123 250,148 275,145 " style="fill:#848400;stroke:none"/><polygon points="250,123 235,121 224,145 250,148 " style="fill:#848400;stroke:none"/><polygon points="276,75 270,81 269,88 275,81 " style="fill:#858500;stroke:none"/><polygon points="229,81 223,75 224,81 230,88 " style="fill:#858500;stroke:none"/><polygon points="164,164 137,136 134,141 161,171 " style="fill:#858500;stroke:none"/><polygon points="362,136 335,164 338,171 365,141 " style="fill:#858500;stroke:none"/><polygon points="168,161 142,134 141,133 167,161 " style="fill:#858500;stroke:none"/><polygon points="356,134 331,161 332,161 358,134 " style="fill:#858500;stroke:none"/><polygon points="270,81 276,75 250,64 " style="fill:#858500;stroke:none"/><polygon points="223,75 229,81 250,64 " style="fill:#868600;stroke:none"/><polygon points="167,161 141,133 137,136 164,164 " style="fill:#868600;stroke:none"/><polygon points="358,134 332,161 335,164 362,136 " style="fill:#868600;stroke:none"/><polygon points="348,201 302,224 307,255 358,231 " style="fill:#868600;stroke:none"/><polygon points="197,224 151,201 141,231 192,255 " style="fill:#868600;stroke:none"/><polygon points="307,255 250,263 250,292 310,283 " style="fill:#868600;stroke:none"/><polygon points="250,263 192,255 189,283 250,292 " style="fill:#868600;stroke:none"/><polygon points="260,86 270,81 250,64 " style="fill:#878700;stroke:none"/><polygon points="229,81 239,86 250,64 " style="fill:#878700;stroke:none"/><polygon points="270,81 260,86 260,92 269,88 " style="fill:#878700;stroke:none"/><polygon points="239,86 229,81 230,88 239,92 " style="fill:#878700;stroke:none"/><polygon points="358,291 370,302 390,282 379,274 " style="fill:#878700;stroke:none"/><polygon points="298,134 275,145 286,166 317,151 " style="fill:#878700;stroke:none"/><polygon points="224,145 201,134 182,151 213,166 " style="fill:#878700;stroke:none"/><polygon points="250,87 260,86 250,64 " style="fill:#878700;stroke:none"/><polygon points="239,86 250,87 250,64 " style="fill:#888800;stroke:none"/><polygon points="260,86 250,87 250,93 260,92 " style="fill:#888800;stroke:none"/><polygon points="250,87 239,86 239,92 250,93 " style="fill:#888800;stroke:none"/><polygon points="378,250 360,271 378,259 390,243 " style="fill:#888800;stroke:none"/><polygon points="360,271 358,291 379,274 378,259 " style="fill:#888800;stroke:none"/><polygon points="317,151 286,166 290,179 326,162 " style="fill:#888800;stroke:none"/><polygon points="213,166 182,151 173,162 209,179 " style="fill:#888800;stroke:none"/><polygon points="275,145 250,148 250,171 286,166 " style="fill:#898900;stroke:none"/><polygon points="250,148 224,145 213,166 250,171 " style="fill:#898900;stroke:none"/><polygon points="420,260 419,245 421,230 425,241 " style="fill:#898900;stroke:none"/><polygon points="338,171 296,190 302,224 348,201 " style="fill:#898900;stroke:none"/><polygon points="203,190 161,171 151,201 197,224 " style="fill:#898900;stroke:none"/><polygon points="419,245 408,238 410,225 421,230 " style="fill:#898900;stroke:none"/><polygon points="302,224 250,231 250,263 307,255 " style="fill:#898900;stroke:none"/><polygon points="250,231 197,224 192,255 250,263 " style="fill:#898900;stroke:none"/><polygon points="332,167 293,185 293,180 331,161 " style="fill:#909000;stroke:none"/><polygon points="206,185 167,167 168,161 206,180 " style="fill:#909000;stroke:none"/><polygon points="408,276 420,260 425,241 418,252 " style="fill:#909000;stroke:none"/><polygon points="408,238 390,243 397,229 410,225 " style="fill:#909000;stroke:none"/><polygon points="331,161 293,180 293,179 332,161 " style="fill:#909000;stroke:none"/><polygon points="206,180 168,161 167,161 206,179 " style="fill:#909000;stroke:none"/><polygon points="286,166 250,171 250,185 290,179 " style="fill:#909000;stroke:none"/><polygon points="250,171 213,166 209,179 250,185 " style="fill:#919100;stroke:none"/><polygon points="335,164 295,183 296,190 338,171 " style="fill:#919100;stroke:none"/><polygon points="204,183 164,164 161,171 203,190 " style="fill:#919100;stroke:none"/><polygon points="332,161 293,179 295,183 335,164 " style="fill:#919100;stroke:none"/><polygon points="206,179 167,161 164,164 204,183 " style="fill:#919100;stroke:none"/><polygon points="296,190 250,197 250,231 302,224 " style="fill:#919100;stroke:none"/><polygon points="250,197 203,190 197,224 250,231 " style="fill:#919100;stroke:none"/><polygon points="390,282 408,276 418,252 404,255 " style="fill:#919100;stroke:none"/><polygon points="390,243 378,259 390,240 397,229 " style="fill:#929200;stroke:none"/><polygon points="293,185 250,191 250,186 293,180 " style="fill:#929200;stroke:none"/><polygon points="250,191 206,185 206,180 250,186 " style="fill:#929200;stroke:none"/><polygon points="293,180 250,186 250,185 293,179 " style="fill:#929200;stroke:none"/><polygon points="250,186 206,180 206,179 250,185 " style="fill:#929200;stroke:none"/><polygon points="379,274 390,282 404,255 393,250 " style="fill:#929200;stroke:none"/><polygon points="295,183 250,190 250,197 296,190 " style="fill:#929200;stroke:none"/><polygon points="250,190 204,183 203,190 250,197 " style="fill:#939300;stroke:none"/><polygon points="378,259 379,274 393,250 390,240 " style="fill:#939300;stroke:none"/><polygon points="293,179 250,185 250,190 295,183 " style="fill:#939300;stroke:none"/><polygon points="250,185 206,179 204,183 250,190 " style="fill:#939300;stroke:none"/><polygon points="421,230 410,225 422,219 437,225 " style="fill:#939300;stroke:none"/><polygon points="410,225 397,229 408,221 422,219 " style="fill:#939300;stroke:none"/><polygon points="425,241 421,230 437,225 446,236 " style="fill:#939300;stroke:none"/><polygon points="397,229 390,240 405,230 408,221 " style="fill:#949400;stroke:none"/><polygon points="418,252 425,241 446,236 444,246 " style="fill:#949400;stroke:none"/><polygon points="390,240 393,250 415,241 405,230 " style="fill:#949400;stroke:none"/><polygon points="422,219 408,221 412,221 426,220 " style="fill:#949400;stroke:none"/><polygon points="437,225 422,219 426,220 442,227 " style="fill:#949400;stroke:none"/><polygon points="427,223 417,224 414,225 423,224 " style="fill:#949400;stroke:none"/><polygon points="404,255 418,252 444,246 430,248 " style="fill:#949400;stroke:none"/><polygon points="393,250 404,255 430,248 415,241 " style="fill:#949400;stroke:none"/><polygon points="426,220 412,221 416,223 428,222 " style="fill:#959500;stroke:none"/><polygon points="408,221 405,230 411,231 412,221 " style="fill:#959500;stroke:none"/><polygon points="428,222 416,223 417,224 427,223 " style="fill:#959500;stroke:none"/><polygon points="439,229 427,223 423,224 433,228 " style="fill:#959500;stroke:none"/><polygon points="417,224 416,231 413,231 414,225 " style="fill:#959500;stroke:none"/><polygon points="442,227 426,220 428,222 442,228 " style="fill:#959500;stroke:none"/><polygon points="442,228 428,222 427,223 439,229 " style="fill:#959500;stroke:none"/><polygon points="412,221 411,231 415,231 416,223 " style="fill:#969600;stroke:none"/><polygon points="416,223 415,231 416,231 417,224 " style="fill:#969600;stroke:none"/><polygon points="446,236 437,225 442,227 452,238 " style="fill:#969600;stroke:none"/><polygon points="447,237 439,229 433,228 439,235 " style="fill:#969600;stroke:none"/><polygon points="416,231 424,239 419,238 413,231 " style="fill:#969600;stroke:none"/><polygon points="405,230 415,241 421,241 411,231 " style="fill:#969600;stroke:none"/><polygon points="452,238 442,227 442,228 452,238 " style="fill:#969600;stroke:none"/><polygon points="452,238 442,228 439,229 447,237 " style="fill:#969600;stroke:none"/><polygon points="415,231 425,241 424,239 416,231 " style="fill:#979700;stroke:none"/><polygon points="411,231 421,241 425,241 415,231 " style="fill:#979700;stroke:none"/><polygon points="447,244 447,237 439,235 438,241 " style="fill:#979700;stroke:none"/><polygon points="424,239 436,245 429,242 419,238 " style="fill:#979700;stroke:none"/><polygon points="444,246 446,236 452,238 450,247 " style="fill:#979700;stroke:none"/><polygon points="436,245 447,244 438,241 429,242 " style="fill:#979700;stroke:none"/><polygon points="415,241 430,248 437,249 421,241 " style="fill:#979700;stroke:none"/><polygon points="451,246 452,238 447,237 447,244 " style="fill:#989800;stroke:none"/><polygon points="450,247 452,238 452,238 451,246 " style="fill:#989800;stroke:none"/><polygon points="430,248 444,246 450,247 437,249 " style="fill:#989800;stroke:none"/><polygon points="425,241 439,247 436,245 424,239 " style="fill:#989800;stroke:none"/><polygon points="421,241 437,249 439,247 425,241 " style="fill:#989800;stroke:none"/><polygon points="439,247 451,246 447,244 436,245 " style="fill:#989800;stroke:none"/><polygon points="437,249 450,247 451,246 439,247 " style="fill:#989800;stroke:none"/></svg>