<svg xmlns="http://www.w3.org/2000/svg" version="1.1" width="500" height="500"> <polygon points="334,127 327,144 326,140 332,123 332,123 326,140 327,139 334,122 334,122 327,139 330,141 336,123 336,123 330,141 333,146 340,127 327,144 309,158 308,154 326,140 326,140 308,154 309,153 327,139 327,139 309,153 311,156 330,141 330,141 311,156 313,161 333,146 309,158 282,168 282,163 308,154 308,154 282,163 283,163 309,153 309,153 283,163 284,165 311,156 311,156 284,165 285,171 313,161 282,168 250,171 250,167 282,163 282,163 250,167 250,166 283,163 283,163 250,166 250,169 284,165 284,165 250,169 250,174 285,171 250,171 214,168 216,163 250,167 250,167 216,163 216,163 250,166 250,166 216,163 215,165 250,169 250,169 215,165 214,171 250,174 214,168 188,158 190,154 216,163 216,163 190,154 189,153 216,163 216,163 189,153 188,156 215,165 215,165 188,156 186,161 214,171 188,158 171,144 173,140 190,154 190,154 173,140 172,139 189,153 189,153 172,139 169,141 188,156 188,156 169,141 166,146 186,161 171,144 166,127 167,123 173,140 173,140 167,123 165,122 172,139 172,139 165,122 163,123 169,141 169,141 163,123 160,127 166,146 166,127 172,110 173,106 167,123 167,123 173,106 172,105 165,122 165,122 172,105 169,105 163,123 163,123 169,105 166,108 160,127 172,110 190,96 191,92 173,106 173,106 191,92 190,91 172,105 172,105 190,91 188,91 169,105 169,105 188,91 186,93 166,108 190,96 217,86 217,83 191,92 191,92 217,83 216,81 190,91 190,91 216,81 215,81 188,91 188,91 215,81 214,83 186,93 217,86 250,83 250,80 217,83 217,83 250,80 250,78 216,81 216,81 250,78 250,78 215,81 215,81 250,78 250,80 214,83 250,83 282,86 282,83 250,80 250,80 282,83 283,81 250,78 250,78 283,81 284,81 250,78 250,78 284,81 285,83 250,80 282,86 309,96 308,92 282,83 282,83 308,92 309,91 283,81 283,81 309,91 311,91 284,81 284,81 311,91 313,93 285,83 309,96 327,110 326,106 308,92 308,92 326,106 327,105 309,91 309,91 327,105 330,105 311,91 311,91 330,105 333,108 313,93 327,110 334,127 332,123 326,106 326,106 332,123 334,122 327,105 327,105 334,122 336,123 330,105 330,105 336,123 340,127 333,108 340,127 333,146 343,168 351,147 351,147 343,168 352,190 360,167 360,167 352,190 358,210 367,186 367,186 358,210 360,228 370,204 333,146 313,161 321,185 343,168 343,168 321,185 328,208 352,190 352,190 328,208 333,229 358,210 358,210 333,229 335,248 360,228 313,161 285,171 289,196 321,185 321,185 289,196 293,220 328,208 328,208 293,220 296,243 333,229 333,229 296,243 297,262 335,248 285,171 250,174 250,200 289,196 289,196 250,200 250,225 293,220 293,220 250,225 250,247 296,243 296,243 250,247 250,267 297,262 250,174 214,171 210,196 250,200 250,200 210,196 206,220 250,225 250,225 206,220 203,243 250,247 250,247 203,243 202,262 250,267 214,171 186,161 178,185 210,196 210,196 178,185 171,208 206,220 206,220 171,208 166,229 203,243 203,243 166,229 164,248 202,262 186,161 166,146 156,168 178,185 178,185 156,168 147,190 171,208 171,208 147,190 141,210 166,229 166,229 141,210 139,228 164,248 166,146 160,127 148,147 156,168 156,168 148,147 139,167 147,190 147,190 139,167 132,186 141,210 141,210 132,186 130,204 139,228 160,127 166,108 156,126 148,147 148,147 156,126 147,144 139,167 139,167 147,144 141,161 132,186 132,186 141,161 139,179 130,204 166,108 186,93 178,109 156,126 156,126 178,109 171,125 147,144 147,144 171,125 166,142 141,161 141,161 166,142 164,159 139,179 186,93 214,83 210,98 178,109 178,109 210,98 206,113 171,125 171,125 206,113 203,129 166,142 166,142 203,129 202,145 164,159 214,83 250,80 250,94 210,98 210,98 250,94 250,109 206,113 206,113 250,109 250,124 203,129 203,129 250,124 250,141 202,145 250,80 285,83 289,98 250,94 250,94 289,98 293,113 250,109 250,109 293,113 296,129 250,124 250,124 296,129 297,145 250,141 285,83 313,93 321,109 289,98 289,98 321,109 328,125 293,113 293,113 328,125 333,142 296,129 296,129 333,142 335,159 297,145 313,93 333,108 343,126 321,109 321,109 343,126 352,144 328,125 328,125 352,144 358,161 333,142 333,142 358,161 360,179 335,159 333,108 340,127 351,147 343,126 343,126 351,147 360,167 352,144 352,144 360,167 367,186 358,161 358,161 367,186 370,204 360,179 370,204 360,228 356,242 365,219 365,219 356,242 346,252 355,230 355,230 346,252 337,257 344,237 344,237 337,257 333,260 340,242 360,228 335,248 331,262 356,242 356,242 331,262 324,269 346,252 346,252 324,269 317,273 337,257 337,257 317,273 313,275 333,260 335,248 297,262 295,275 331,262 331,262 295,275 291,281 324,269 324,269 291,281 287,283 317,273 317,273 287,283 285,285 313,275 297,262 250,267 250,279 295,275 295,275 250,279 250,285 291,281 291,281 250,285 250,287 287,283 287,283 250,287 250,289 285,285 250,267 202,262 204,275 250,279 250,279 204,275 208,281 250,285 250,285 208,281 212,283 250,287 250,287 212,283 214,285 250,289 202,262 164,248 168,262 204,275 204,275 168,262 175,269 208,281 208,281 175,269 182,273 212,283 212,283 182,273 186,275 214,285 164,248 139,228 143,242 168,262 168,262 143,242 153,252 175,269 175,269 153,252 162,257 182,273 182,273 162,257 166,260 186,275 139,228 130,204 134,219 143,242 143,242 134,219 145,230 153,252 153,252 145,230 155,237 162,257 162,257 155,237 160,242 166,260 130,204 139,179 143,195 134,219 134,219 143,195 153,208 145,230 145,230 153,208 162,218 155,237 155,237 162,218 166,223 160,242 139,179 164,159 168,176 143,195 143,195 168,176 175,191 153,208 153,208 175,191 182,202 162,218 162,218 182,202 186,208 166,223 164,159 202,145 204,163 168,176 168,176 204,163 208,179 175,191 175,191 208,179 212,192 182,202 182,202 212,192 214,198 186,208 202,145 250,141 250,158 204,163 204,163 250,158 250,175 208,179 208,179 250,175 250,188 212,192 212,192 250,188 250,195 214,198 250,141 297,145 295,163 250,158 250,158 295,163 291,179 250,175 250,175 291,179 287,192 250,188 250,188 287,192 285,198 250,195 297,145 335,159 331,176 295,163 295,163 331,176 324,191 291,179 291,179 324,191 317,202 287,192 287,192 317,202 313,208 285,198 335,159 360,179 356,195 331,176 331,176 356,195 346,208 324,191 324,191 346,208 337,218 317,202 317,202 337,218 333,223 313,208 360,179 370,204 365,219 356,195 356,195 365,219 355,230 346,208 346,208 355,230 344,237 337,218 337,218 344,237 340,242 333,223 340,242 333,260 331,263 337,245 337,245 331,263 321,263 327,247 327,247 321,263 296,259 300,249 300,249 296,259 250,250 333,260 313,275 312,277 331,263 331,263 312,277 304,276 321,263 321,263 304,276 285,268 296,259 296,259 285,268 250,250 313,275 285,285 284,287 312,277 312,277 284,287 280,284 304,276 304,276 280,284 269,273 285,268 285,268 269,273 250,250 285,285 250,289 250,291 284,287 284,287 250,291 250,288 280,284 280,284 250,288 250,275 269,273 269,273 250,275 250,250 250,289 214,285 215,287 250,291 250,291 215,287 219,284 250,288 250,288 219,284 230,273 250,275 250,275 230,273 250,250 214,285 186,275 187,277 215,287 215,287 187,277 195,276 219,284 219,284 195,276 214,268 230,273 230,273 214,268 250,250 186,275 166,260 168,263 187,277 187,277 168,263 178,263 195,276 195,276 178,263 203,259 214,268 214,268 203,259 250,250 166,260 160,242 162,245 168,263 168,263 162,245 172,247 178,263 178,263 172,247 199,249 203,259 203,259 199,249 250,250 160,242 166,223 168,227 162,245 162,245 168,227 178,231 172,247 172,247 178,231 203,239 199,249 199,249 203,239 250,250 166,223 186,208 187,212 168,227 168,227 187,212 195,218 178,231 178,231 195,218 214,230 203,239 203,239 214,230 250,250 186,208 214,198 215,202 187,212 187,212 215,202 219,210 195,218 195,218 219,210 230,225 214,230 214,230 230,225 250,250 214,198 250,195 250,198 215,202 215,202 250,198 250,207 219,210 219,210 250,207 250,223 230,225 230,225 250,223 250,250 250,195 285,198 284,202 250,198 250,198 284,202 280,210 250,207 250,207 280,210 269,225 250,223 250,223 269,225 250,250 285,198 313,208 312,212 284,202 284,202 312,212 304,218 280,210 280,210 304,218 285,230 269,225 269,225 285,230 250,250 313,208 333,223 331,227 312,212 312,212 331,227 321,231 304,218 304,218 321,231 296,239 285,230 285,230 296,239 250,250 333,223 340,242 337,245 331,227 331,227 337,245 327,247 321,231 321,231 327,247 300,249 296,239 296,239 300,249 250,250 154,146 154,150 125,150 125,146 125,146 125,150 103,151 105,148 105,148 103,151 89,155 92,151 92,151 89,155 85,163 88,158 154,150 157,147 123,148 125,150 125,150 123,148 98,150 103,151 103,151 98,150 84,155 89,155 89,155 84,155 79,165 85,163 157,147 159,142 121,142 123,148 123,148 121,142 94,144 98,150 98,150 94,144 78,151 84,155 84,155 78,151 72,163 79,165 159,142 160,135 120,135 121,142 121,142 120,135 92,137 94,144 94,144 92,137 75,144 78,151 78,151 75,144 70,158 72,163 160,135 159,131 121,131 120,135 120,135 121,131 94,134 92,137 92,137 94,134 78,140 75,144 75,144 78,140 72,152 70,158 159,131 156,133 123,134 121,131 121,131 123,134 98,135 94,134 94,134 98,135 84,141 78,140 78,140 84,141 78,151 72,152 156,133 154,139 125,139 123,134 123,134 125,139 103,141 98,135 98,135 103,141 89,145 84,141 84,141 89,145 85,152 78,151 154,139 154,146 125,146 125,139 125,139 125,146 105,148 103,141 103,141 105,148 92,151 89,145 89,145 92,151 88,158 85,152 88,158 85,163 87,174 90,168 90,168 87,174 95,187 97,181 97,181 95,187 110,200 110,193 110,193 110,200 130,211 130,204 85,163 79,165 82,178 87,174 87,174 82,178 91,193 95,187 95,187 91,193 108,206 110,200 110,200 108,206 133,218 130,211 79,165 72,163 76,179 82,178 82,178 76,179 87,194 91,193 91,193 87,194 107,209 108,206 108,206 107,209 135,222 133,218 72,163 70,158 73,174 76,179 76,179 73,174 86,190 87,194 87,194 86,190 106,205 107,209 107,209 106,205 136,219 135,222 70,158 72,152 76,168 73,174 73,174 76,168 87,184 86,190 86,190 87,184 107,198 106,205 106,205 107,198 135,211 136,219 72,152 78,151 82,164 76,168 76,168 82,164 91,178 87,184 87,184 91,178 108,192 107,198 107,198 108,192 133,204 135,211 78,151 85,152 87,164 82,164 82,164 87,164 95,177 91,178 91,178 95,177 110,190 108,192 108,192 110,190 130,201 133,204 85,152 88,158 90,168 87,164 87,164 90,168 97,181 95,177 95,177 97,181 110,193 110,190 110,190 110,193 130,204 130,201 352,177 352,195 382,187 380,171 380,171 382,187 396,169 393,158 393,158 396,169 403,148 400,141 400,141 403,148 417,131 412,127 352,195 352,213 387,201 382,187 382,187 387,201 402,177 396,169 396,169 402,177 411,152 403,148 403,148 411,152 430,133 417,131 352,213 352,224 392,208 387,201 387,201 392,208 408,181 402,177 402,177 408,181 418,152 411,152 411,152 418,152 442,131 430,133 352,224 352,219 394,202 392,208 392,208 394,202 411,176 408,181 408,181 411,176 422,148 418,152 418,152 422,148 448,127 442,131 352,219 352,201 392,187 394,202 394,202 392,187 408,165 411,176 411,176 408,165 418,141 422,148 422,148 418,141 442,123 448,127 352,201 352,182 387,173 392,187 392,187 387,173 402,156 408,165 408,165 402,156 411,137 418,141 418,141 411,137 430,121 442,123 352,182 352,172 382,165 387,173 387,173 382,165 396,152 402,156 402,156 396,152 403,137 411,137 411,137 403,137 417,123 430,121 352,172 352,177 380,171 382,165 382,165 380,171 393,158 396,152 396,152 393,158 400,141 403,137 403,137 400,141 412,127 417,123 412,127 417,131 422,129 416,125 416,125 422,129 425,127 419,124 419,124 425,127 425,128 420,125 420,125 425,128 421,130 418,127 417,131 430,133 435,130 422,129 422,129 435,130 437,128 425,127 425,127 437,128 435,128 425,128 425,128 435,128 430,131 421,130 430,133 442,131 448,128 435,130 435,130 448,128 450,127 437,128 437,128 450,127 446,127 435,128 435,128 446,127 438,130 430,131 442,131 448,127 454,124 448,128 448,128 454,124 455,123 450,127 450,127 455,123 451,124 446,127 446,127 451,124 442,127 438,130 448,127 442,123 448,120 454,124 454,124 448,120 450,120 455,123 455,123 450,120 446,121 451,124 451,124 446,121 438,124 442,127 442,123 430,121 435,119 448,120 448,120 435,119 437,119 450,120 450,120 437,119 435,120 446,121 446,121 435,120 430,123 438,124 430,121 417,123 422,121 435,119 435,119 422,121 425,120 437,119 437,119 425,120 425,122 435,120 435,120 425,122 421,124 430,123 417,123 412,127 416,125 422,121 422,121 416,125 419,124 425,120 425,120 419,124 420,125 425,122 425,122 420,125 418,127 421,124 268,95 270,91 250,89 270,91 268,95 267,101 269,97 269,97 267,101 260,107 261,105 261,105 260,107 261,114 262,112 264,99 268,95 250,89 268,95 264,99 263,105 267,101 267,101 263,105 258,109 260,107 260,107 258,109 258,116 261,114 258,101 264,99 250,89 264,99 258,101 257,107 263,105 263,105 257,107 254,111 258,109 258,109 254,111 254,117 258,116 250,102 258,101 250,89 258,101 250,102 250,108 257,107 257,107 250,108 250,111 254,111 254,111 250,111 250,118 254,117 241,101 250,102 250,89 250,102 241,101 242,107 250,108 250,108 242,107 245,111 250,111 250,111 245,111 245,117 250,118 235,99 241,101 250,89 241,101 235,99 236,105 242,107 242,107 236,105 241,109 245,111 245,111 241,109 241,116 245,117 231,95 235,99 250,89 235,99 231,95 232,101 236,105 236,105 232,101 239,107 241,109 241,109 239,107 238,114 241,116 229,91 231,95 250,89 231,95 229,91 230,97 232,101 232,101 230,97 238,105 239,107 239,107 238,105 238,112 238,114 231,87 229,91 250,89 229,91 231,87 232,93 230,97 230,97 232,93 239,102 238,105 238,105 239,102 238,109 238,112 235,84 231,87 250,89 231,87 235,84 236,90 232,93 232,93 236,90 241,100 239,102 239,102 241,100 241,107 238,109 241,81 235,84 250,89 235,84 241,81 242,88 236,90 236,90 242,88 245,99 241,100 241,100 245,99 245,106 241,107 250,80 241,81 250,89 241,81 250,80 250,87 242,88 242,88 250,87 250,99 245,99 245,99 250,99 250,105 245,106 258,81 250,80 250,89 250,80 258,81 257,88 250,87 250,87 257,88 254,99 250,99 250,99 254,99 254,106 250,105 264,84 258,81 250,89 258,81 264,84 263,90 257,88 257,88 263,90 258,100 254,99 254,99 258,100 258,107 254,106 268,87 264,84 250,89 264,84 268,87 267,93 263,90 263,90 267,93 260,102 258,100 258,100 260,102 261,109 258,107 270,91 268,87 250,89 268,87 270,91 269,97 267,93 267,93 269,97 261,105 260,102 260,102 261,105 262,112 261,109 262,112 261,114 275,122 277,116 277,116 275,122 295,130 299,119 299,119 295,130 313,137 319,122 319,122 313,137 321,143 328,127 261,114 258,116 269,126 275,122 275,122 269,126 285,138 295,130 295,130 285,138 299,148 313,137 313,137 299,148 305,156 321,143 258,116 254,117 260,129 269,126 269,126 260,129 269,143 285,138 285,138 269,143 277,156 299,148 299,148 277,156 280,165 305,156 254,117 250,118 250,131 260,129 260,129 250,131 250,145 269,143 269,143 250,145 250,159 277,156 277,156 250,159 250,168 280,165 250,118 245,117 239,129 250,131 250,131 239,129 230,143 250,145 250,145 230,143 222,156 250,159 250,159 222,156 219,165 250,168 245,117 241,116 230,126 239,129 239,129 230,126 214,138 230,143 230,143 214,138 200,148 222,156 222,156 200,148 194,156 219,165 241,116 238,114 224,122 230,126 230,126 224,122 204,130 214,138 214,138 204,130 186,137 200,148 200,148 186,137 178,143 194,156 238,114 238,112 222,116 224,122 224,122 222,116 200,119 204,130 204,130 200,119 180,122 186,137 186,137 180,122 172,127 178,143 238,112 238,109 224,111 222,116 222,116 224,111 204,109 200,119 200,119 204,109 186,108 180,122 180,122 186,108 178,111 172,127 238,109 241,107 230,106 224,111 224,111 230,106 214,101 204,109 204,109 214,101 200,97 186,108 186,108 200,97 194,98 178,111 241,107 245,106 239,103 230,106 230,106 239,103 230,95 214,101 214,101 230,95 222,89 200,97 200,97 222,89 219,89 194,98 245,106 250,105 250,102 239,103 239,103 250,102 250,93 230,95 230,95 250,93 250,86 222,89 222,89 250,86 250,86 219,89 250,105 254,106 260,103 250,102 250,102 260,103 269,95 250,93 250,93 269,95 277,89 250,86 250,86 277,89 280,89 250,86 254,106 258,107 269,106 260,103 260,103 269,106 285,101 269,95 269,95 285,101 299,97 277,89 277,89 299,97 305,98 280,89 258,107 261,109 275,111 269,106 269,106 275,111 295,109 285,101 285,101 295,109 313,108 299,97 299,97 313,108 321,111 305,98 261,109 262,112 277,116 275,111 275,111 277,116 299,119 295,109 295,109 299,119 319,122 313,108 313,108 319,122 328,127 321,111 " stroke="darkred" stroke-width="0.2" fill="none" /></svg>