<svg xmlns="http://www.w3.org/2000/svg" version="1.1" width="500" height="500"> <polygon points="200,300 200,300 200,300 200,300" style="fill:#303000;stroke:none"/><polygon points="200,300 200,300 200,300 200,300" style="fill:#303000;stroke:none"/><polygon points="200,300 200,300 200,300 200,300" style="fill:#303000;stroke:none"/><polygon points="200,300 200,300 200,300 200,300" style="fill:#303000;stroke:none"/><polygon points="200,300 200,300 200,300 200,300" style="fill:#303000;stroke:none"/><polygon points="200,300 200,300 200,300 200,300" style="fill:#303000;stroke:none"/><polygon points="200,300 200,300 200,300 200,300" style="fill:#303000;stroke:none"/><polygon points="200,300 200,300 200,300 200,300" style="fill:#303000;stroke:none"/><polygon points="200,300 200,300 200,300 200,300" style="fill:#313100;stroke:none"/><polygon points="200,300 200,300 200,300 200,300" style="fill:#313100;stroke:none"/><polygon points="200,300 200,300 200,300 200,300" style="fill:#313100;stroke:none"/><polygon points="200,300 200,300 200,300 200,300" style="fill:#313100;stroke:none"/><polygon points="200,300 200,300 200,300 200,300" style="fill:#313100;stroke:none"/><polygon points="200,300 200,300 200,300 200,300" style="fill:#313100;stroke:none"/><polygon points="200,300 200,300 200,300 200,300" style="fill:#313100;stroke:none"/><polygon points="200,300 200,300 200,300 200,300" style="fill:#323200;stroke:none"/><polygon points="200,300 200,300 200,300 200,300" style="fill:#323200;stroke:none"/><polygon points="200,300 200,300 200,300 200,300" style="fill:#323200;stroke:none"/><polygon points="200,300 200,300 200,300 200,300" style="fill:#323200;stroke:none"/><polygon points="200,300 200,300 200,300 200,300" style="fill:#323200;stroke:none"/><polygon points="200,300 200,300 200,300 200,300" style="fill:#323200;stroke:none"/><polygon points="200,300 200,300 200,300 200,300" style="fill:#323200;stroke:none"/><polygon points="200,300 200,300 200,300 200,300" style="fill:#323200;stroke:none"/><polygon points="200,300 200,300 200,300 200,300" style="fill:#333300;stroke:none"/><polygon points="200,300 200,300 200,300 200,300" style="fill:#333300;stroke:none"/><polygon points="200,300 200,300 200,300 200,300" style="fill:#333300;stroke:none"/><polygon points="200,300 200,300 200,300 200,300" style="fill:#333300;stroke:none"/><polygon points="200,300 200,300 200,300 200,300" style="fill:#333300;stroke:none"/><polygon points="200,300 200,300 200,300 200,300" style="fill:#333300;stroke:none"/><polygon points="200,300 200,300 200,300 200,300" style="fill:#333300;stroke:none"/><polygon points="200,300 200,300 200,300 200,300" style="fill:#343400;stroke:none"/><polygon points="200,300 200,300 200,300 200,300" style="fill:#343400;stroke:none"/><polygon points="200,300 200,300 200,300 200,300" style="fill:#343400;stroke:none"/><polygon points="200,300 200,300 200,300 200,300" style="fill:#343400;stroke:none"/><polygon points="200,300 200,300 200,300 200,300" style="fill:#343400;stroke:none"/><polygon points="200,300 200,300 200,300 200,300" style="fill:#343400;stroke:none"/><polygon points="200,300 200,300 200,300 200,300" style="fill:#343400;stroke:none"/><polygon points="200,300 200,300 200,300 200,300" style="fill:#343400;stroke:none"/><polygon points="200,300 200,300 200,300 200,300" style="fill:#353500;stroke:none"/><polygon points="200,300 200,300 200,300 200,300" style="fill:#353500;stroke:none"/><polygon points="200,300 200,300 200,300 200,300" style="fill:#353500;stroke:none"/><polygon points="200,300 200,300 200,300 200,300" style="fill:#353500;stroke:none"/><polygon points="200,300 200,300 200,300 200,300" style="fill:#353500;stroke:none"/><polygon points="200,300 200,300 200,300 200,300" style="fill:#353500;stroke:none"/><polygon points="200,300 200,300 200,300 200,300" style="fill:#353500;stroke:none"/><polygon points="200,300 200,300 200,300 200,300" style="fill:#363600;stroke:none"/><polygon points="200,300 200,300 200,300 200,300" style="fill:#363600;stroke:none"/><polygon points="200,300 200,300 200,300 200,300" style="fill:#363600;stroke:none"/><polygon points="200,300 200,300 200,300 200,300" style="fill:#363600;stroke:none"/><polygon points="200,300 200,300 200,300 200,300" style="fill:#363600;stroke:none"/><polygon points="200,300 200,300 200,300 200,300" style="fill:#363600;stroke:none"/><polygon points="200,300 200,300 200,300 200,300" style="fill:#363600;stroke:none"/><polygon points="200,300 200,300 200,300 200,300" style="fill:#373700;stroke:none"/><polygon points="200,300 200,300 200,300 200,300" style="fill:#373700;stroke:none"/><polygon points="200,300 200,300 200,300 200,300" style="fill:#373700;stroke:none"/><polygon points="200,300 200,300 200,300 200,300" style="fill:#373700;stroke:none"/><polygon points="200,300 200,300 200,300 200,300" style="fill:#373700;stroke:none"/><polygon points="200,300 200,300 200,300 200,300" style="fill:#373700;stroke:none"/><polygon points="200,300 200,300 200,300 200,300" style="fill:#373700;stroke:none"/><polygon points="200,300 200,300 200,300 200,300" style="fill:#373700;stroke:none"/><polygon points="200,300 200,300 200,300 200,300" style="fill:#383800;stroke:none"/><polygon points="200,300 200,300 200,300 200,300" style="fill:#383800;stroke:none"/><polygon points="200,300 200,300 200,300 200,300" style="fill:#383800;stroke:none"/><polygon points="200,300 200,300 200,300 200,300" style="fill:#383800;stroke:none"/><polygon points="200,300 200,300 200,300 200,300" style="fill:#383800;stroke:none"/><polygon points="200,300 200,300 200,300 200,300" style="fill:#383800;stroke:none"/><polygon points="200,300 200,300 200,300 200,300" style="fill:#383800;stroke:none"/><polygon points="200,300 200,300 200,300 200,300" style="fill:#393900;stroke:none"/><polygon points="200,300 200,300 200,300 200,300" style="fill:#393900;stroke:none"/><polygon points="200,300 200,300 200,300 200,300" style="fill:#393900;stroke:none"/><polygon points="200,300 200,300 200,300 200,300" style="fill:#393900;stroke:none"/><polygon points="200,300 200,300 200,300 200,300" style="fill:#393900;stroke:none"/><polygon points="200,300 200,300 200,300 200,300" style="fill:#393900;stroke:none"/><polygon points="200,300 200,300 200,300 200,300" style="fill:#393900;stroke:none"/><polygon points="200,300 200,300 200,300 200,300" style="fill:#393900;stroke:none"/><polygon points="200,300 200,300 200,300 200,300" style="fill:#404000;stroke:none"/><polygon points="200,300 200,300 200,300 200,300" style="fill:#404000;stroke:none"/><polygon points="200,300 200,300 200,300 200,300" style="fill:#404000;stroke:none"/><polygon points="200,300 200,300 200,300 200,300" style="fill:#404000;stroke:none"/><polygon points="200,300 200,300 200,300 200,300" style="fill:#404000;stroke:none"/><polygon points="200,300 200,300 200,300 200,300" style="fill:#404000;stroke:none"/><polygon points="200,300 200,300 200,300 200,300" style="fill:#404000;stroke:none"/><polygon points="200,300 200,300 200,300 200,300" style="fill:#414100;stroke:none"/><polygon points="200,300 200,300 200,300 200,300" style="fill:#414100;stroke:none"/><polygon points="200,300 200,300 200,300 200,300" style="fill:#414100;stroke:none"/><polygon points="200,300 200,300 200,300 200,300" style="fill:#414100;stroke:none"/><polygon points="200,300 200,300 200,300 200,300" style="fill:#414100;stroke:none"/><polygon points="200,300 200,300 200,300 200,300" style="fill:#414100;stroke:none"/><polygon points="200,300 200,300 200,300 200,300" style="fill:#414100;stroke:none"/><polygon points="200,300 200,300 200,300 200,300" style="fill:#414100;stroke:none"/><polygon points="200,300 200,300 200,300 200,300" style="fill:#424200;stroke:none"/><polygon points="200,300 200,300 200,300 200,300" style="fill:#424200;stroke:none"/><polygon points="200,300 200,300 200,300 200,300" style="fill:#424200;stroke:none"/><polygon points="200,300 200,300 200,300 200,300" style="fill:#424200;stroke:none"/><polygon points="200,300 200,300 200,300 200,300" style="fill:#424200;stroke:none"/><polygon points="200,300 200,300 200,300 200,300" style="fill:#424200;stroke:none"/><polygon points="200,300 200,300 200,300 200,300" style="fill:#424200;stroke:none"/><polygon points="200,300 200,300 200,300 200,300" style="fill:#434300;stroke:none"/><polygon points="200,300 200,300 200,300 200,300" style="fill:#434300;stroke:none"/><polygon points="200,300 200,300 200,300 200,300" style="fill:#434300;stroke:none"/><polygon points="200,300 200,300 200,300 200,300" style="fill:#434300;stroke:none"/><polygon points="200,300 200,300 200,300 200,300" style="fill:#434300;stroke:none"/><polygon points="200,300 200,300 200,300 200,300" style="fill:#434300;stroke:none"/><polygon points="200,300 200,300 200,300 200,300" style="fill:#434300;stroke:none"/><polygon points="200,300 200,300 200,300 200,300" style="fill:#444400;stroke:none"/><polygon points="200,300 200,300 200,300 200,300" style="fill:#444400;stroke:none"/><polygon points="200,300 200,300 200,300 200,300" style="fill:#444400;stroke:none"/><polygon points="200,300 200,300 200,300 200,300" style="fill:#444400;stroke:none"/><polygon points="200,300 200,300 200,300 200,300" style="fill:#444400;stroke:none"/><polygon points="200,300 200,300 200,300 200,300" style="fill:#444400;stroke:none"/><polygon points="200,300 200,300 200,300 200,300" style="fill:#444400;stroke:none"/><polygon points="200,300 200,300 200,300 200,300" style="fill:#444400;stroke:none"/><polygon points="200,300 200,300 200,300 200,300" style="fill:#454500;stroke:none"/><polygon points="200,300 200,300 200,300 200,300" style="fill:#454500;stroke:none"/><polygon points="200,300 200,300 200,300 200,300" style="fill:#454500;stroke:none"/><polygon points="200,300 200,300 200,300 200,300" style="fill:#454500;stroke:none"/><polygon points="200,300 200,300 200,300 200,300" style="fill:#454500;stroke:none"/><polygon points="200,300 200,300 200,300 200,300" style="fill:#454500;stroke:none"/><polygon points="200,300 200,300 200,300 200,300" style="fill:#454500;stroke:none"/><polygon points="200,300 200,300 200,300 200,300" style="fill:#464600;stroke:none"/><polygon points="200,300 200,300 200,300 200,300" style="fill:#464600;stroke:none"/><polygon points="200,300 200,300 200,300 200,300" style="fill:#464600;stroke:none"/><polygon points="200,300 200,300 200,300 200,300" style="fill:#464600;stroke:none"/><polygon points="200,300 200,300 200,300 200,300" style="fill:#464600;stroke:none"/><polygon points="200,300 200,300 200,300 200,300" style="fill:#464600;stroke:none"/><polygon points="200,300 200,300 200,300 200,300" style="fill:#464600;stroke:none"/><polygon points="200,300 200,300 200,300 200,300" style="fill:#464600;stroke:none"/><polygon points="200,300 200,300 200,300 200,300" style="fill:#474700;stroke:none"/><polygon points="200,300 200,300 200,300 200,300" style="fill:#474700;stroke:none"/><polygon points="200,300 200,300 200,300 200,300" style="fill:#474700;stroke:none"/><polygon points="200,300 200,300 200,300 200,300" style="fill:#474700;stroke:none"/><polygon points="200,300 200,300 200,300 200,300" style="fill:#474700;stroke:none"/><polygon points="200,300 200,300 200,300 200,300" style="fill:#474700;stroke:none"/><polygon points="200,300 200,300 200,300 200,300" style="fill:#474700;stroke:none"/><polygon points="200,300 200,300 200,300 200,300" style="fill:#484800;stroke:none"/><polygon points="200,300 200,300 200,300 200,300" style="fill:#484800;stroke:none"/><polygon points="200,300 200,300 200,300 200,300" style="fill:#484800;stroke:none"/><polygon points="200,300 200,300 200,300 200,300" style="fill:#484800;stroke:none"/><polygon points="200,300 200,300 200,300 200,300" style="fill:#484800;stroke:none"/><polygon points="200,300 200,300 200,300 200,300" style="fill:#484800;stroke:none"/><polygon points="200,300 200,300 200,300 200,300" style="fill:#484800;stroke:none"/><polygon points="200,300 200,300 200,300 200,300" style="fill:#494900;stroke:none"/><polygon points="200,300 200,300 200,300 200,300" style="fill:#494900;stroke:none"/><polygon points="200,300 200,300 200,300 200,300" style="fill:#494900;stroke:none"/><polygon points="200,300 200,300 200,300 200,300" style="fill:#494900;stroke:none"/><polygon points="200,300 200,300 200,300 200,300" style="fill:#494900;stroke:none"/><polygon points="200,300 200,300 200,300 200,300" style="fill:#494900;stroke:none"/><polygon points="200,300 200,300 200,300 200,300" style="fill:#494900;stroke:none"/><polygon points="200,300 200,300 200,300 200,300" style="fill:#494900;stroke:none"/><polygon points="200,300 200,300 200,300 200,300" style="fill:#505000;stroke:none"/><polygon points="200,300 200,300 200,300 200,300" style="fill:#505000;stroke:none"/><polygon points="200,300 200,300 200,300 200,300" style="fill:#505000;stroke:none"/><polygon points="200,300 200,300 200,300 200,300" style="fill:#505000;stroke:none"/><polygon points="200,300 200,300 200,300 200,300" style="fill:#505000;stroke:none"/><polygon points="200,300 200,300 200,300 200,300" style="fill:#505000;stroke:none"/><polygon points="200,300 200,300 200,300 200,300" style="fill:#505000;stroke:none"/><polygon points="200,300 200,300 200,300 200,300" style="fill:#515100;stroke:none"/><polygon points="200,300 200,300 200,300 200,300" style="fill:#515100;stroke:none"/><polygon points="200,300 200,300 200,300 200,300" style="fill:#515100;stroke:none"/><polygon points="200,300 200,300 200,300 200,300" style="fill:#515100;stroke:none"/><polygon points="200,300 200,300 200,300 200,300" style="fill:#515100;stroke:none"/><polygon points="200,300 200,300 200,300 200,300" style="fill:#515100;stroke:none"/><polygon points="200,300 200,300 200,300 200,300" style="fill:#515100;stroke:none"/><polygon points="200,300 200,300 200,300 200,300" style="fill:#515100;stroke:none"/><polygon points="200,300 200,300 200,300 200,300" style="fill:#525200;stroke:none"/><polygon points="200,300 200,300 200,300 200,300" style="fill:#525200;stroke:none"/><polygon points="200,300 200,300 200,300 200,300" style="fill:#525200;stroke:none"/><polygon points="200,300 200,300 200,300 200,300" style="fill:#525200;stroke:none"/><polygon points="200,300 200,300 200,300 200,300" style="fill:#525200;stroke:none"/><polygon points="200,300 200,300 200,300 200,300" style="fill:#525200;stroke:none"/><polygon points="200,300 200,300 200,300 200,300" style="fill:#525200;stroke:none"/><polygon points="200,300 200,300 200,300 200,300" style="fill:#535300;stroke:none"/><polygon points="200,300 200,300 200,300 200,300" style="fill:#535300;stroke:none"/><polygon points="200,300 200,300 200,300 200,300" style="fill:#535300;stroke:none"/><polygon points="200,300 200,300 200,300 200,300" style="fill:#535300;stroke:none"/><polygon points="200,300 200,300 200,300 200,300" style="fill:#535300;stroke:none"/><polygon points="200,300 200,300 200,300 200,300" style="fill:#535300;stroke:none"/><polygon points="200,300 200,300 200,300 200,300" style="fill:#535300;stroke:none"/><polygon points="200,300 200,300 200,300 200,300" style="fill:#535300;stroke:none"/><polygon points="200,300 200,300 200,300 200,300" style="fill:#545400;stroke:none"/><polygon points="200,300 200,300 200,300 200,300" style="fill:#545400;stroke:none"/><polygon points="200,300 200,300 200,300 200,300" style="fill:#545400;stroke:none"/><polygon points="200,300 200,300 200,300 200,300" style="fill:#545400;stroke:none"/><polygon points="200,300 200,300 200,300 200,300" style="fill:#545400;stroke:none"/><polygon points="200,300 200,300 200,300 200,300" style="fill:#545400;stroke:none"/><polygon points="200,300 200,300 200,300 200,300" style="fill:#545400;stroke:none"/><polygon points="200,300 200,300 200,300 200,300" style="fill:#555500;stroke:none"/><polygon points="200,300 200,300 200,300 200,300" style="fill:#555500;stroke:none"/><polygon points="200,300 200,300 200,300 200,300" style="fill:#555500;stroke:none"/><polygon points="200,300 200,300 200,300 200,300" style="fill:#555500;stroke:none"/><polygon points="200,300 200,300 200,300 200,300" style="fill:#555500;stroke:none"/><polygon points="200,300 200,300 200,300 200,300" style="fill:#555500;stroke:none"/><polygon points="200,300 200,300 200,300 200,300" style="fill:#555500;stroke:none"/><polygon points="200,300 200,300 200,300 200,300" style="fill:#565600;stroke:none"/><polygon points="200,300 200,300 200,300 200,300" style="fill:#565600;stroke:none"/><polygon points="200,300 200,300 200,300" style="fill:#565600;stroke:none"/><polygon points="200,300 200,300 200,300 200,300" style="fill:#565600;stroke:none"/><polygon points="200,300 200,300 200,300 200,300" style="fill:#565600;stroke:none"/><polygon points="200,300 200,300 200,300 200,300" style="fill:#565600;stroke:none"/><polygon points="200,300 200,300 200,300" style="fill:#565600;stroke:none"/><polygon points="200,300 200,300 200,300 200,300" style="fill:#565600;stroke:none"/><polygon points="200,300 200,300 200,300 200,300" style="fill:#575700;stroke:none"/><polygon points="200,300 200,300 200,300 200,300" style="fill:#575700;stroke:none"/><polygon points="200,300 200,300 200,300" style="fill:#575700;stroke:none"/><polygon points="200,300 200,300 200,300 200,300" style="fill:#575700;stroke:none"/><polygon points="200,300 200,300 200,300 200,300" style="fill:#575700;stroke:none"/><polygon points="200,300 200,300 200,300 200,300" style="fill:#575700;stroke:none"/><polygon points="200,300 200,300 200,300" style="fill:#575700;stroke:none"/><polygon points="200,300 200,300 200,300 200,300" style="fill:#585800;stroke:none"/><polygon points="200,300 200,300 200,300 200,300" style="fill:#585800;stroke:none"/><polygon points="200,300 200,300 200,300 200,300" style="fill:#585800;stroke:none"/><polygon points="200,300 200,300 200,300" style="fill:#585800;stroke:none"/><polygon points="200,300 200,300 200,300 200,300" style="fill:#585800;stroke:none"/><polygon points="200,300 200,300 200,300 200,300" style="fill:#585800;stroke:none"/><polygon points="200,300 200,300 200,300 200,300" style="fill:#585800;stroke:none"/><polygon points="200,300 200,300 200,300" style="fill:#585800;stroke:none"/><polygon points="200,300 200,300 200,300 200,300" style="fill:#595900;stroke:none"/><polygon points="200,300 200,300 200,300 200,300" style="fill:#595900;stroke:none"/><polygon points="200,300 200,300 200,300 200,300" style="fill:#595900;stroke:none"/><polygon points="200,300 200,300 200,300" style="fill:#595900;stroke:none"/><polygon points="200,300 200,300 200,300 200,300" style="fill:#595900;stroke:none"/><polygon points="200,300 200,300 200,300 200,300" style="fill:#595900;stroke:none"/><polygon points="200,300 200,300 200,300 200,300" style="fill:#595900;stroke:none"/><polygon points="200,300 200,300 200,300" style="fill:#606000;stroke:none"/><polygon points="200,300 200,300 200,300 200,300" style="fill:#606000;stroke:none"/><polygon points="200,300 200,300 200,300 200,300" style="fill:#606000;stroke:none"/><polygon points="200,300 200,300 200,300 200,300" style="fill:#606000;stroke:none"/><polygon points="200,300 200,300 200,300" style="fill:#606000;stroke:none"/><polygon points="200,300 200,300 200,300 200,300" style="fill:#606000;stroke:none"/><polygon points="200,300 200,300 200,300 200,300" style="fill:#606000;stroke:none"/><polygon points="200,300 200,300 200,300 200,300" style="fill:#606000;stroke:none"/><polygon points="200,300 200,300 200,300" style="fill:#616100;stroke:none"/><polygon points="200,300 200,300 200,300 200,300" style="fill:#616100;stroke:none"/><polygon points="200,300 200,300 200,300 200,300" style="fill:#616100;stroke:none"/><polygon points="200,300 200,300 200,300 200,300" style="fill:#616100;stroke:none"/><polygon points="200,300 200,300 200,300" style="fill:#616100;stroke:none"/><polygon points="200,300 200,300 200,300 200,300" style="fill:#616100;stroke:none"/><polygon points="200,300 200,300 200,300 200,300" style="fill:#616100;stroke:none"/><polygon points="200,300 200,300 200,300 200,300" style="fill:#626200;stroke:none"/><polygon points="200,300 200,300 200,300" style="fill:#626200;stroke:none"/><polygon points="200,300 200,300 200,300 200,300" style="fill:#626200;stroke:none"/><polygon points="200,300 200,300 200,300 200,300" style="fill:#626200;stroke:none"/><polygon points="200,300 200,300 200,300 200,300" style="fill:#626200;stroke:none"/><polygon points="200,300 200,300 200,300" style="fill:#626200;stroke:none"/><polygon points="200,300 200,300 200,300 200,300" style="fill:#626200;stroke:none"/><polygon points="200,300 200,300 200,300 200,300" style="fill:#636300;stroke:none"/><polygon points="200,300 200,300 200,300 200,300" style="fill:#636300;stroke:none"/><polygon points="200,300 200,300 200,300" style="fill:#636300;stroke:none"/><polygon points="200,300 200,300 200,300 200,300" style="fill:#636300;stroke:none"/><polygon points="200,300 200,300 200,300 200,300" style="fill:#636300;stroke:none"/><polygon points="200,300 200,300 200,300 200,300" style="fill:#636300;stroke:none"/><polygon points="200,300 200,300 200,300" style="fill:#636300;stroke:none"/><polygon points="200,300 200,300 200,300 200,300" style="fill:#636300;stroke:none"/><polygon points="200,300 200,300 200,300 200,300" style="fill:#646400;stroke:none"/><polygon points="200,300 200,300 200,300 200,300" style="fill:#646400;stroke:none"/><polygon points="200,300 200,300 200,300" style="fill:#646400;stroke:none"/><polygon points="200,300 200,300 200,300 200,300" style="fill:#646400;stroke:none"/><polygon points="200,300 200,300 200,300 200,300" style="fill:#646400;stroke:none"/><polygon points="200,300 200,300 200,300 200,300" style="fill:#646400;stroke:none"/><polygon points="200,300 200,300 200,300 200,300" style="fill:#646400;stroke:none"/><polygon points="200,300 200,300 200,300 200,300" style="fill:#656500;stroke:none"/><polygon points="200,300 200,300 200,300 200,300" style="fill:#656500;stroke:none"/><polygon points="200,300 200,300 200,300 200,300" style="fill:#656500;stroke:none"/><polygon points="200,300 200,300 200,300 200,300" style="fill:#656500;stroke:none"/><polygon points="200,300 200,300 200,300 200,300" style="fill:#656500;stroke:none"/><polygon points="200,300 200,300 200,300 200,300" style="fill:#656500;stroke:none"/><polygon points="200,300 200,300 200,300 200,300" style="fill:#656500;stroke:none"/><polygon points="200,300 200,300 200,300 200,300" style="fill:#656500;stroke:none"/><polygon points="200,300 200,300 200,300 200,300" style="fill:#666600;stroke:none"/><polygon points="200,300 200,300 200,300 200,300" style="fill:#666600;stroke:none"/><polygon points="200,300 200,300 200,300 200,300" style="fill:#666600;stroke:none"/><polygon points="200,300 200,300 200,300 200,300" style="fill:#666600;stroke:none"/><polygon points="200,300 200,300 200,300 200,300" style="fill:#666600;stroke:none"/><polygon points="200,300 200,300 200,300 200,300" style="fill:#666600;stroke:none"/><polygon points="200,300 200,300 200,300 200,300" style="fill:#666600;stroke:none"/><polygon points="200,300 200,300 200,300 200,300" style="fill:#676700;stroke:none"/><polygon points="200,300 200,300 200,300 200,300" style="fill:#676700;stroke:none"/><polygon points="200,300 200,300 200,300 200,300" style="fill:#676700;stroke:none"/><polygon points="200,300 200,300 200,300 200,300" style="fill:#676700;stroke:none"/><polygon points="200,300 200,300 200,300 200,300" style="fill:#676700;stroke:none"/><polygon points="200,300 200,300 200,300 200,300" style="fill:#676700;stroke:none"/><polygon points="200,300 200,300 200,300 200,300" style="fill:#676700;stroke:none"/><polygon points="200,300 200,300 200,300 200,300" style="fill:#686800;stroke:none"/><polygon points="200,300 200,300 200,300 200,300" style="fill:#686800;stroke:none"/><polygon points="200,300 200,300 200,300 200,300" style="fill:#686800;stroke:none"/><polygon points="200,300 200,300 200,300 200,300" style="fill:#686800;stroke:none"/><polygon points="200,300 200,300 200,300 200,300" style="fill:#686800;stroke:none"/><polygon points="200,300 200,300 200,300 200,300" style="fill:#686800;stroke:none"/><polygon points="200,300 200,300 200,300 200,300" style="fill:#686800;stroke:none"/><polygon points="200,300 200,300 200,300 200,300" style="fill:#686800;stroke:none"/><polygon points="200,300 200,300 200,300 200,300" style="fill:#696900;stroke:none"/><polygon points="200,300 200,300 200,300 200,300" style="fill:#696900;stroke:none"/><polygon points="200,300 200,300 200,300 200,300" style="fill:#696900;stroke:none"/><polygon points="200,300 200,300 200,300 200,300" style="fill:#696900;stroke:none"/><polygon points="200,300 200,300 200,300 200,300" style="fill:#696900;stroke:none"/><polygon points="200,300 200,300 200,300 200,300" style="fill:#696900;stroke:none"/><polygon points="200,300 200,300 200,300 200,300" style="fill:#696900;stroke:none"/><polygon points="200,300 200,300 200,300 200,300" style="fill:#707000;stroke:none"/><polygon points="200,300 200,300 200,300 200,300" style="fill:#707000;stroke:none"/><polygon points="200,300 200,300 200,300 200,300" style="fill:#707000;stroke:none"/><polygon points="200,300 200,300 200,300 200,300" style="fill:#707000;stroke:none"/><polygon points="200,300 200,300 200,300 200,300" style="fill:#707000;stroke:none"/><polygon points="200,300 200,300 200,300 200,300" style="fill:#707000;stroke:none"/><polygon points="200,300 200,300 200,300 200,300" style="fill:#707000;stroke:none"/><polygon points="200,300 200,300 200,300 200,300" style="fill:#707000;stroke:none"/><polygon points="200,300 200,300 200,300 200,300" style="fill:#717100;stroke:none"/><polygon points="200,300 200,300 200,300 200,300" style="fill:#717100;stroke:none"/><polygon points="200,300 200,300 200,300 200,300" style="fill:#717100;stroke:none"/><polygon points="200,300 200,300 200,300 200,300" style="fill:#717100;stroke:none"/><polygon points="200,300 200,300 200,300 200,300" style="fill:#717100;stroke:none"/><polygon points="200,300 200,300 200,300 200,300" style="fill:#717100;stroke:none"/><polygon points="200,300 200,300 200,300 200,300" style="fill:#717100;stroke:none"/><polygon points="200,300 200,300 200,300 200,300" style="fill:#727200;stroke:none"/><polygon points="200,300 200,300 200,300 200,300" style="fill:#727200;stroke:none"/><polygon points="200,300 200,300 200,300 200,300" style="fill:#727200;stroke:none"/><polygon points="200,300 200,300 200,300 200,300" style="fill:#727200;stroke:none"/><polygon points="200,300 200,300 200,300 200,300" style="fill:#727200;stroke:none"/><polygon points="200,300 200,300 200,300 200,300" style="fill:#727200;stroke:none"/><polygon points="200,300 200,300 200,300 200,300" style="fill:#727200;stroke:none"/><polygon points="200,300 200,300 200,300 200,300" style="fill:#727200;stroke:none"/><polygon points="200,300 200,300 200,300 200,300" style="fill:#737300;stroke:none"/><polygon points="200,300 200,300 200,300 200,300" style="fill:#737300;stroke:none"/><polygon points="200,300 200,300 200,300 200,300" style="fill:#737300;stroke:none"/><polygon points="200,300 200,300 200,300 200,300" style="fill:#737300;stroke:none"/><polygon points="200,300 200,300 200,300 200,300" style="fill:#737300;stroke:none"/><polygon points="200,300 200,300 200,300 200,300" style="fill:#737300;stroke:none"/><polygon points="200,300 200,300 200,300 200,300" style="fill:#737300;stroke:none"/><polygon points="200,300 200,300 200,300 200,300" style="fill:#747400;stroke:none"/><polygon points="200,300 200,300 200,300 200,300" style="fill:#747400;stroke:none"/><polygon points="200,300 200,300 200,300 200,300" style="fill:#747400;stroke:none"/><polygon points="200,300 200,300 200,300 200,300" style="fill:#747400;stroke:none"/><polygon points="200,300 200,300 200,300 200,300" style="fill:#747400;stroke:none"/><polygon points="200,300 200,300 200,300 200,300" style="fill:#747400;stroke:none"/><polygon points="200,300 200,300 200,300 200,300" style="fill:#747400;stroke:none"/><polygon points="200,300 200,300 200,300 200,300" style="fill:#757500;stroke:none"/><polygon points="200,300 200,300 200,300 200,300" style="fill:#757500;stroke:none"/><polygon points="200,300 200,300 200,300 200,300" style="fill:#757500;stroke:none"/><polygon points="200,300 200,300 200,300 200,300" style="fill:#757500;stroke:none"/><polygon points="200,300 200,300 200,300 200,300" style="fill:#757500;stroke:none"/><polygon points="200,300 200,300 200,300 200,300" style="fill:#757500;stroke:none"/><polygon points="200,300 200,300 200,300 200,300" style="fill:#757500;stroke:none"/><polygon points="200,300 200,300 200,300 200,300" style="fill:#757500;stroke:none"/><polygon points="200,300 200,300 200,300 200,300" style="fill:#767600;stroke:none"/><polygon points="200,300 200,300 200,300 200,300" style="fill:#767600;stroke:none"/><polygon points="200,300 200,300 200,300 200,300" style="fill:#767600;stroke:none"/><polygon points="200,300 200,300 200,300 200,300" style="fill:#767600;stroke:none"/><polygon points="200,300 200,300 200,300 200,300" style="fill:#767600;stroke:none"/><polygon points="200,300 200,300 200,300 200,300" style="fill:#767600;stroke:none"/><polygon points="200,300 200,300 200,300 200,300" style="fill:#767600;stroke:none"/><polygon points="200,300 200,300 200,300 200,300" style="fill:#777700;stroke:none"/><polygon points="200,300 200,300 200,300 200,300" style="fill:#777700;stroke:none"/><polygon points="200,300 200,300 200,300 200,300" style="fill:#777700;stroke:none"/><polygon points="200,300 200,300 200,300 200,300" style="fill:#777700;stroke:none"/><polygon points="200,300 200,300 200,300 200,300" style="fill:#777700;stroke:none"/><polygon points="200,300 200,300 200,300 200,300" style="fill:#777700;stroke:none"/><polygon points="200,300 200,300 200,300 200,300" style="fill:#777700;stroke:none"/><polygon points="200,300 200,300 200,300 200,300" style="fill:#777700;stroke:none"/><polygon points="200,300 200,300 200,300 200,300" style="fill:#787800;stroke:none"/><polygon points="200,300 200,300 200,300 200,300" style="fill:#787800;stroke:none"/><polygon points="200,300 200,300 200,300 200,300" style="fill:#787800;stroke:none"/><polygon points="200,300 200,300 200,300 200,300" style="fill:#787800;stroke:none"/><polygon points="200,300 200,300 200,300 200,300" style="fill:#787800;stroke:none"/><polygon points="200,300 200,300 200,300 200,300" style="fill:#787800;stroke:none"/><polygon points="200,300 200,300 200,300 200,300" style="fill:#787800;stroke:none"/><polygon points="200,300 200,300 200,300 200,300" style="fill:#797900;stroke:none"/><polygon points="200,300 200,300 200,300 200,300" style="fill:#797900;stroke:none"/><polygon points="200,300 200,300 200,300 200,300" style="fill:#797900;stroke:none"/><polygon points="200,300 200,300 200,300 200,300" style="fill:#797900;stroke:none"/><polygon points="200,300 200,300 200,300 200,300" style="fill:#797900;stroke:none"/><polygon points="200,300 200,300 200,300 200,300" style="fill:#797900;stroke:none"/><polygon points="200,300 200,300 200,300 200,300" style="fill:#797900;stroke:none"/><polygon points="200,300 200,300 200,300 200,300" style="fill:#797900;stroke:none"/><polygon points="200,300 200,300 200,300 200,300" style="fill:#808000;stroke:none"/><polygon points="200,300 200,300 200,300 200,300" style="fill:#808000;stroke:none"/><polygon points="200,300 200,300 200,300 200,300" style="fill:#808000;stroke:none"/><polygon points="200,300 200,300 200,300 200,300" style="fill:#808000;stroke:none"/><polygon points="200,300 200,300 200,300 200,300" style="fill:#808000;stroke:none"/><polygon points="200,300 200,300 200,300 200,300" style="fill:#808000;stroke:none"/><polygon points="200,300 200,300 200,300 200,300" style="fill:#808000;stroke:none"/><polygon points="200,300 200,300 200,300 200,300" style="fill:#818100;stroke:none"/><polygon points="200,300 200,300 200,300 200,300" style="fill:#818100;stroke:none"/><polygon points="200,300 200,300 200,300 200,300" style="fill:#818100;stroke:none"/><polygon points="200,300 200,300 200,300 200,300" style="fill:#818100;stroke:none"/><polygon points="200,300 200,300 200,300 200,300" style="fill:#818100;stroke:none"/><polygon points="200,300 200,300 200,300" style="fill:#818100;stroke:none"/><polygon points="200,300 200,300 200,300 200,300" style="fill:#818100;stroke:none"/><polygon points="200,300 200,300 200,300 200,300" style="fill:#828200;stroke:none"/><polygon points="200,300 200,300 200,300 200,300" style="fill:#828200;stroke:none"/><polygon points="200,300 200,300 200,300" style="fill:#828200;stroke:none"/><polygon points="200,300 200,300 200,300 200,300" style="fill:#828200;stroke:none"/><polygon points="200,300 200,300 200,300 200,300" style="fill:#828200;stroke:none"/><polygon points="200,300 200,300 200,300 200,300" style="fill:#828200;stroke:none"/><polygon points="200,300 200,300 200,300" style="fill:#828200;stroke:none"/><polygon points="200,300 200,300 200,300 200,300" style="fill:#828200;stroke:none"/><polygon points="200,300 200,300 200,300 200,300" style="fill:#838300;stroke:none"/><polygon points="200,300 200,300 200,300 200,300" style="fill:#838300;stroke:none"/><polygon points="200,300 200,300 200,300" style="fill:#838300;stroke:none"/><polygon points="200,300 200,300 200,300 200,300" style="fill:#838300;stroke:none"/><polygon points="200,300 200,300 200,300 200,300" style="fill:#838300;stroke:none"/><polygon points="200,300 200,300 200,300 200,300" style="fill:#838300;stroke:none"/><polygon points="200,300 200,300 200,300" style="fill:#838300;stroke:none"/><polygon points="200,300 200,300 200,300 200,300" style="fill:#848400;stroke:none"/><polygon points="200,300 200,300 200,300 200,300" style="fill:#848400;stroke:none"/><polygon points="200,300 200,300 200,300 200,300" style="fill:#848400;stroke:none"/><polygon points="200,300 200,300 200,300" style="fill:#848400;stroke:none"/><polygon points="200,300 200,300 200,300 200,300" style="fill:#848400;stroke:none"/><polygon points="200,300 200,300 200,300 200,300" style="fill:#848400;stroke:none"/><polygon points="200,300 200,300 200,300 200,300" style="fill:#848400;stroke:none"/><polygon points="200,300 200,300 200,300" style="fill:#848400;stroke:none"/><polygon points="200,300 200,300 200,300 200,300" style="fill:#858500;stroke:none"/><polygon points="200,300 200,300 200,300 200,300" style="fill:#858500;stroke:none"/><polygon points="200,300 200,300 200,300 200,300" style="fill:#858500;stroke:none"/><polygon points="200,300 200,300 200,300" style="fill:#858500;stroke:none"/><polygon points="200,300 200,300 200,300 200,300" style="fill:#858500;stroke:none"/><polygon points="200,300 200,300 200,300 200,300" style="fill:#858500;stroke:none"/><polygon points="200,300 200,300 200,300 200,300" style="fill:#858500;stroke:none"/><polygon points="200,300 200,300 200,300" style="fill:#868600;stroke:none"/><polygon points="200,300 200,300 200,300 200,300" style="fill:#868600;stroke:none"/><polygon points="200,300 200,300 200,300 200,300" style="fill:#868600;stroke:none"/><polygon points="200,300 200,300 200,300 200,300" style="fill:#868600;stroke:none"/><polygon points="200,300 200,300 200,300" style="fill:#868600;stroke:none"/><polygon points="200,300 200,300 200,300 200,300" style="fill:#868600;stroke:none"/><polygon points="200,300 200,300 200,300 200,300" style="fill:#868600;stroke:none"/><polygon points="200,300 200,300 200,300 200,300" style="fill:#878700;stroke:none"/><polygon points="200,300 200,300 200,300" style="fill:#878700;stroke:none"/><polygon points="200,300 200,300 200,300 200,300" style="fill:#878700;stroke:none"/><polygon points="200,300 200,300 200,300 200,300" style="fill:#878700;stroke:none"/><polygon points="200,300 200,300 200,300 200,300" style="fill:#878700;stroke:none"/><polygon points="200,300 200,300 200,300" style="fill:#878700;stroke:none"/><polygon points="200,300 200,300 200,300 200,300" style="fill:#878700;stroke:none"/><polygon points="200,300 200,300 200,300 200,300" style="fill:#878700;stroke:none"/><polygon points="200,300 200,300 200,300 200,300" style="fill:#888800;stroke:none"/><polygon points="200,300 200,300 200,300" style="fill:#888800;stroke:none"/><polygon points="200,300 200,300 200,300 200,300" style="fill:#888800;stroke:none"/><polygon points="200,300 200,300 200,300 200,300" style="fill:#888800;stroke:none"/><polygon points="200,300 200,300 200,300 200,300" style="fill:#888800;stroke:none"/><polygon points="200,300 200,300 200,300" style="fill:#888800;stroke:none"/><polygon points="200,300 200,300 200,300 200,300" style="fill:#888800;stroke:none"/><polygon points="200,300 200,300 200,300 200,300" style="fill:#898900;stroke:none"/><polygon points="200,300 200,300 200,300 200,300" style="fill:#898900;stroke:none"/><polygon points="200,300 200,300 200,300" style="fill:#898900;stroke:none"/><polygon points="200,300 200,300 200,300 200,300" style="fill:#898900;stroke:none"/><polygon points="200,300 200,300 200,300 200,300" style="fill:#898900;stroke:none"/><polygon points="200,300 200,300 200,300 200,300" style="fill:#898900;stroke:none"/><polygon points="200,300 200,300 200,300" style="fill:#898900;stroke:none"/><polygon points="200,300 200,300 200,300 200,300" style="fill:#898900;stroke:none"/><polygon points="200,300 200,300 200,300 200,300" style="fill:#909000;stroke:none"/><polygon points="200,300 200,300 200,300 200,300" style="fill:#909000;stroke:none"/><polygon points="200,300 200,300 200,300 200,300" style="fill:#909000;stroke:none"/><polygon points="200,300 200,300 200,300 200,300" style="fill:#909000;stroke:none"/><polygon points="200,300 200,300 200,300 200,300" style="fill:#909000;stroke:none"/><polygon points="200,300 200,300 200,300 200,300" style="fill:#909000;stroke:none"/><polygon points="200,300 200,300 200,300 200,300" style="fill:#909000;stroke:none"/><polygon points="200,300 200,300 200,300 200,300" style="fill:#919100;stroke:none"/><polygon points="200,300 200,300 200,300 200,300" style="fill:#919100;stroke:none"/><polygon points="200,300 200,300 200,300 200,300" style="fill:#919100;stroke:none"/><polygon points="200,300 200,300 200,300 200,300" style="fill:#919100;stroke:none"/><polygon points="200,300 200,300 200,300 200,300" style="fill:#919100;stroke:none"/><polygon points="200,300 200,300 200,300 200,300" style="fill:#919100;stroke:none"/><polygon points="200,300 200,300 200,300 200,300" style="fill:#919100;stroke:none"/><polygon points="200,300 200,300 200,300 200,300" style="fill:#919100;stroke:none"/><polygon points="200,300 200,300 200,300 200,300" style="fill:#929200;stroke:none"/><polygon points="200,300 200,300 200,300 200,300" style="fill:#929200;stroke:none"/><polygon points="200,300 200,300 200,300 200,300" style="fill:#929200;stroke:none"/><polygon points="200,300 200,300 200,300 200,300" style="fill:#929200;stroke:none"/><polygon points="200,300 200,300 200,300 200,300" style="fill:#929200;stroke:none"/><polygon points="200,300 200,300 200,300 200,300" style="fill:#929200;stroke:none"/><polygon points="200,300 200,300 200,300 200,300" style="fill:#929200;stroke:none"/><polygon points="200,300 200,300 200,300 200,300" style="fill:#939300;stroke:none"/><polygon points="200,300 200,300 200,300 200,300" style="fill:#939300;stroke:none"/><polygon points="200,300 200,300 200,300 200,300" style="fill:#939300;stroke:none"/><polygon points="200,300 200,300 200,300 200,300" style="fill:#939300;stroke:none"/><polygon points="200,300 200,300 200,300 200,300" style="fill:#939300;stroke:none"/><polygon points="200,300 200,300 200,300 200,300" style="fill:#939300;stroke:none"/><polygon points="200,300 200,300 200,300 200,300" style="fill:#939300;stroke:none"/><polygon points="200,300 200,300 200,300 200,300" style="fill:#949400;stroke:none"/><polygon points="200,300 200,300 200,300 200,300" style="fill:#949400;stroke:none"/><polygon points="200,300 200,300 200,300 200,300" style="fill:#949400;stroke:none"/><polygon points="200,300 200,300 200,300 200,300" style="fill:#949400;stroke:none"/><polygon points="200,300 200,300 200,300 200,300" style="fill:#949400;stroke:none"/><polygon points="200,300 200,300 200,300 200,300" style="fill:#949400;stroke:none"/><polygon points="200,300 200,300 200,300 200,300" style="fill:#949400;stroke:none"/><polygon points="200,300 200,300 200,300 200,300" style="fill:#949400;stroke:none"/><polygon points="200,300 200,300 200,300 200,300" style="fill:#959500;stroke:none"/><polygon points="200,300 200,300 200,300 200,300" style="fill:#959500;stroke:none"/><polygon points="200,300 200,300 200,300 200,300" style="fill:#959500;stroke:none"/><polygon points="200,300 200,300 200,300 200,300" style="fill:#959500;stroke:none"/><polygon points="200,300 200,300 200,300 200,300" style="fill:#959500;stroke:none"/><polygon points="200,300 200,300 200,300 200,300" style="fill:#959500;stroke:none"/><polygon points="200,300 200,300 200,300 200,300" style="fill:#959500;stroke:none"/><polygon points="200,300 200,300 200,300 200,300" style="fill:#969600;stroke:none"/><polygon points="200,300 200,300 200,300 200,300" style="fill:#969600;stroke:none"/><polygon points="200,300 200,300 200,300 200,300" style="fill:#969600;stroke:none"/><polygon points="200,300 200,300 200,300 200,300" style="fill:#969600;stroke:none"/><polygon points="200,300 200,300 200,300 200,300" style="fill:#969600;stroke:none"/><polygon points="200,300 200,300 200,300 200,300" style="fill:#969600;stroke:none"/><polygon points="200,300 200,300 200,300 200,300" style="fill:#969600;stroke:none"/><polygon points="200,300 200,300 200,300 200,300" style="fill:#969600;stroke:none"/><polygon points="200,300 200,300 200,300 200,300" style="fill:#979700;stroke:none"/><polygon points="200,300 200,300 200,300 200,300" style="fill:#979700;stroke:none"/><polygon points="200,300 200,300 200,300 200,300" style="fill:#979700;stroke:none"/><polygon points="200,300 200,300 200,300 200,300" style="fill:#979700;stroke:none"/><polygon points="200,300 200,300 200,300 200,300" style="fill:#979700;stroke:none"/><polygon points="200,300 200,300 200,300 200,300" style="fill:#979700;stroke:none"/><polygon points="200,300 200,300 200,300 200,300" style="fill:#979700;stroke:none"/><polygon points="200,300 200,300 200,300 200,300" style="fill:#989800;stroke:none"/><polygon points="200,300 200,300 200,300 200,300" style="fill:#989800;stroke:none"/><polygon points="200,300 200,300 200,300 200,300" style="fill:#989800;stroke:none"/><polygon points="200,300 200,300 200,300 200,300" style="fill:#989800;stroke:none"/><polygon points="200,300 200,300 200,300 200,300" style="fill:#989800;stroke:none"/><polygon points="200,300 200,300 200,300 200,300" style="fill:#989800;stroke:none"/><polygon points="200,300 200,300 200,300 200,300" style="fill:#989800;stroke:none"/></svg>