<svg xmlns="http://www.w3.org/2000/svg" version="1.1" width="500" height="500" style="background: #999999"> <polygon points="249,146 249,121 303,126 298,150 " style="fill:#303000;stroke:none"/><polygon points="201,150 196,126 249,121 249,146 " style="fill:#303000;stroke:none"/><polygon points="249,168 249,146 298,150 292,172 " style="fill:#303000;stroke:none"/><polygon points="207,172 201,150 249,146 249,168 " style="fill:#303000;stroke:none"/><polygon points="249,121 249,99 305,104 303,126 " style="fill:#303000;stroke:none"/><polygon points="196,126 194,104 249,99 249,121 " style="fill:#313100;stroke:none"/><polygon points="298,150 303,126 353,140 344,164 " style="fill:#313100;stroke:none"/><polygon points="155,164 146,140 196,126 201,150 " style="fill:#313100;stroke:none"/><polygon points="292,172 298,150 344,164 332,183 " style="fill:#313100;stroke:none"/><polygon points="167,183 155,164 201,150 207,172 " style="fill:#323200;stroke:none"/><polygon points="303,126 305,104 356,119 353,140 " style="fill:#323200;stroke:none"/><polygon points="146,140 143,119 194,104 196,126 " style="fill:#323200;stroke:none"/><polygon points="249,181 249,168 292,172 286,184 " style="fill:#323200;stroke:none"/><polygon points="213,184 207,172 249,168 249,181 " style="fill:#333300;stroke:none"/><polygon points="249,99 249,86 303,91 305,104 " style="fill:#333300;stroke:none"/><polygon points="194,104 196,91 249,86 249,99 " style="fill:#333300;stroke:none"/><polygon points="344,164 353,140 396,163 383,185 " style="fill:#333300;stroke:none"/><polygon points="116,185 103,163 146,140 155,164 " style="fill:#343400;stroke:none"/><polygon points="286,184 292,172 332,183 319,194 " style="fill:#343400;stroke:none"/><polygon points="180,194 167,183 207,172 213,184 " style="fill:#343400;stroke:none"/><polygon points="332,183 344,164 383,185 366,202 " style="fill:#343400;stroke:none"/><polygon points="133,202 116,185 155,164 167,183 " style="fill:#353500;stroke:none"/><polygon points="305,104 303,91 353,105 356,119 " style="fill:#353500;stroke:none"/><polygon points="143,119 146,105 196,91 194,104 " style="fill:#353500;stroke:none"/><polygon points="353,140 356,119 400,143 396,163 " style="fill:#353500;stroke:none"/><polygon points="103,163 99,143 143,119 146,140 " style="fill:#353500;stroke:none"/><polygon points="319,194 332,183 366,202 348,210 " style="fill:#363600;stroke:none"/><polygon points="151,210 133,202 167,183 180,194 " style="fill:#363600;stroke:none"/><polygon points="249,181 249,181 286,184 281,184 " style="fill:#363600;stroke:none"/><polygon points="218,184 213,184 249,181 249,181 " style="fill:#363600;stroke:none"/><polygon points="249,86 249,86 298,90 303,91 " style="fill:#373700;stroke:none"/><polygon points="196,91 201,90 249,86 249,86 " style="fill:#373700;stroke:none"/><polygon points="281,184 286,184 319,194 310,192 " style="fill:#373700;stroke:none"/><polygon points="189,192 180,194 213,184 218,184 " style="fill:#373700;stroke:none"/><polygon points="356,119 353,105 396,129 400,143 " style="fill:#383800;stroke:none"/><polygon points="99,143 103,129 146,105 143,119 " style="fill:#383800;stroke:none"/><polygon points="383,185 396,163 429,194 413,213 " style="fill:#383800;stroke:none"/><polygon points="86,213 70,194 103,163 116,185 " style="fill:#383800;stroke:none"/><polygon points="366,202 383,185 413,213 392,226 " style="fill:#393900;stroke:none"/><polygon points="107,226 86,213 116,185 133,202 " style="fill:#393900;stroke:none"/><polygon points="303,91 298,90 344,104 353,105 " style="fill:#393900;stroke:none"/><polygon points="146,105 155,104 201,90 196,91 " style="fill:#393900;stroke:none"/><polygon points="396,163 400,143 434,174 429,194 " style="fill:#404000;stroke:none"/><polygon points="70,194 65,174 99,143 103,163 " style="fill:#404000;stroke:none"/><polygon points="348,210 366,202 392,226 371,230 " style="fill:#404000;stroke:none"/><polygon points="128,230 107,226 133,202 151,210 " style="fill:#404000;stroke:none"/><polygon points="310,192 319,194 348,210 336,206 " style="fill:#414100;stroke:none"/><polygon points="163,206 151,210 180,194 189,192 " style="fill:#414100;stroke:none"/><polygon points="249,168 249,181 281,184 279,171 " style="fill:#414100;stroke:none"/><polygon points="220,171 218,184 249,181 249,168 " style="fill:#414100;stroke:none"/><polygon points="249,86 249,99 292,103 298,90 " style="fill:#414100;stroke:none"/><polygon points="201,90 207,103 249,99 249,86 " style="fill:#424200;stroke:none"/><polygon points="353,105 344,104 383,125 396,129 " style="fill:#424200;stroke:none"/><polygon points="103,129 116,125 155,104 146,105 " style="fill:#424200;stroke:none"/><polygon points="279,171 281,184 310,192 307,179 " style="fill:#424200;stroke:none"/><polygon points="192,179 189,192 218,184 220,171 " style="fill:#434300;stroke:none"/><polygon points="298,90 292,103 332,114 344,104 " style="fill:#434300;stroke:none"/><polygon points="155,104 167,114 207,103 201,90 " style="fill:#434300;stroke:none"/><polygon points="400,143 396,129 429,159 434,174 " style="fill:#434300;stroke:none"/><polygon points="65,174 70,159 103,129 99,143 " style="fill:#444400;stroke:none"/><polygon points="392,226 413,213 432,245 408,254 " style="fill:#444400;stroke:none"/><polygon points="91,254 67,245 86,213 107,226 " style="fill:#444400;stroke:none"/><polygon points="336,206 348,210 371,230 355,224 " style="fill:#444400;stroke:none"/><polygon points="144,224 128,230 151,210 163,206 " style="fill:#454500;stroke:none"/><polygon points="413,213 429,194 449,229 432,245 " style="fill:#454500;stroke:none"/><polygon points="67,245 50,229 70,194 86,213 " style="fill:#454500;stroke:none"/><polygon points="307,179 310,192 336,206 331,192 " style="fill:#454500;stroke:none"/><polygon points="168,192 163,206 189,192 192,179 " style="fill:#464600;stroke:none"/><polygon points="249,146 249,168 279,171 281,149 " style="fill:#464600;stroke:none"/><polygon points="218,149 220,171 249,168 249,146 " style="fill:#464600;stroke:none"/><polygon points="249,99 249,121 286,124 292,103 " style="fill:#464600;stroke:none"/><polygon points="207,103 213,124 249,121 249,99 " style="fill:#474700;stroke:none"/><polygon points="371,230 392,226 408,254 385,254 " style="fill:#474700;stroke:none"/><polygon points="114,254 91,254 107,226 128,230 " style="fill:#474700;stroke:none"/><polygon points="281,149 279,171 307,179 310,157 " style="fill:#474700;stroke:none"/><polygon points="189,157 192,179 220,171 218,149 " style="fill:#474700;stroke:none"/><polygon points="249,121 249,146 281,149 286,124 " style="fill:#484800;stroke:none"/><polygon points="213,124 218,149 249,146 249,121 " style="fill:#484800;stroke:none"/><polygon points="292,103 286,124 319,134 332,114 " style="fill:#484800;stroke:none"/><polygon points="167,114 180,134 213,124 207,103 " style="fill:#484800;stroke:none"/><polygon points="344,104 332,114 366,133 383,125 " style="fill:#494900;stroke:none"/><polygon points="116,125 133,133 167,114 155,104 " style="fill:#494900;stroke:none"/><polygon points="429,194 434,174 456,210 449,229 " style="fill:#494900;stroke:none"/><polygon points="50,229 43,210 65,174 70,194 " style="fill:#494900;stroke:none"/><polygon points="286,124 281,149 310,157 319,134 " style="fill:#505000;stroke:none"/><polygon points="180,134 189,157 218,149 213,124 " style="fill:#505000;stroke:none"/><polygon points="396,129 383,125 413,153 429,159 " style="fill:#505000;stroke:none"/><polygon points="70,159 86,153 116,125 103,129 " style="fill:#505000;stroke:none"/><polygon points="331,192 336,206 355,224 349,209 " style="fill:#515100;stroke:none"/><polygon points="150,209 144,224 163,206 168,192 " style="fill:#515100;stroke:none"/><polygon points="355,224 371,230 385,254 367,245 " style="fill:#515100;stroke:none"/><polygon points="132,245 114,254 128,230 144,224 " style="fill:#515100;stroke:none"/><polygon points="310,157 307,179 331,192 336,171 " style="fill:#525200;stroke:none"/><polygon points="163,171 168,192 192,179 189,157 " style="fill:#525200;stroke:none"/><polygon points="332,114 319,134 348,150 366,133 " style="fill:#525200;stroke:none"/><polygon points="133,133 151,150 180,134 167,114 " style="fill:#525200;stroke:none"/><polygon points="319,134 310,157 336,171 348,150 " style="fill:#535300;stroke:none"/><polygon points="151,150 163,171 189,157 180,134 " style="fill:#535300;stroke:none"/><polygon points="408,254 432,245 438,280 414,284 " style="fill:#535300;stroke:none"/><polygon points="85,284 61,280 67,245 91,254 " style="fill:#535300;stroke:none"/><polygon points="434,174 429,159 449,194 456,210 " style="fill:#535300;stroke:none"/><polygon points="43,210 50,194 70,159 65,174 " style="fill:#545400;stroke:none"/><polygon points="385,254 408,254 414,284 389,280 " style="fill:#545400;stroke:none"/><polygon points="110,280 85,284 91,254 114,254 " style="fill:#545400;stroke:none"/><polygon points="383,125 366,133 392,157 413,153 " style="fill:#545400;stroke:none"/><polygon points="86,153 107,157 133,133 116,125 " style="fill:#555500;stroke:none"/><polygon points="336,171 331,192 349,209 355,189 " style="fill:#555500;stroke:none"/><polygon points="144,189 150,209 168,192 163,171 " style="fill:#555500;stroke:none"/><polygon points="432,245 449,229 456,267 438,280 " style="fill:#555500;stroke:none"/><polygon points="61,280 43,267 50,229 67,245 " style="fill:#565600;stroke:none"/><polygon points="349,209 355,224 367,245 361,228 " style="fill:#565600;stroke:none"/><polygon points="138,228 132,245 144,224 150,209 " style="fill:#565600;stroke:none"/><polygon points="367,245 385,254 389,280 371,267 " style="fill:#565600;stroke:none"/><polygon points="128,267 110,280 114,254 132,245 " style="fill:#575700;stroke:none"/><polygon points="366,133 348,150 371,170 392,157 " style="fill:#575700;stroke:none"/><polygon points="107,157 128,170 151,150 133,133 " style="fill:#575700;stroke:none"/><polygon points="348,150 336,171 355,189 371,170 " style="fill:#575700;stroke:none"/><polygon points="128,170 144,189 163,171 151,150 " style="fill:#585800;stroke:none"/><polygon points="429,159 413,153 432,185 449,194 " style="fill:#585800;stroke:none"/><polygon points="50,194 67,185 86,153 70,159 " style="fill:#585800;stroke:none"/><polygon points="449,229 456,210 463,249 456,267 " style="fill:#585800;stroke:none"/><polygon points="43,267 36,250 43,210 50,229 " style="fill:#585800;stroke:none"/><polygon points="355,189 349,209 361,228 367,210 " style="fill:#595900;stroke:none"/><polygon points="132,210 138,228 150,209 144,189 " style="fill:#595900;stroke:none"/><polygon points="361,228 367,245 371,267 365,249 " style="fill:#595900;stroke:none"/><polygon points="134,250 128,267 132,245 138,228 " style="fill:#595900;stroke:none"/><polygon points="389,280 414,284 408,314 385,305 " style="fill:#606000;stroke:none"/><polygon points="114,305 91,314 85,284 110,280 " style="fill:#606000;stroke:none"/><polygon points="414,284 438,280 432,314 408,314 " style="fill:#606000;stroke:none"/><polygon points="91,314 67,314 61,280 85,284 " style="fill:#606000;stroke:none"/><polygon points="413,153 392,157 408,185 432,185 " style="fill:#616100;stroke:none"/><polygon points="67,185 91,185 107,157 86,153 " style="fill:#616100;stroke:none"/><polygon points="371,267 389,280 385,305 367,289 " style="fill:#616100;stroke:none"/><polygon points="132,289 114,305 110,280 128,267 " style="fill:#616100;stroke:none"/><polygon points="371,170 355,189 367,210 385,194 " style="fill:#626200;stroke:none"/><polygon points="114,194 132,210 144,189 128,170 " style="fill:#626200;stroke:none"/><polygon points="456,210 449,194 456,232 463,249 " style="fill:#626200;stroke:none"/><polygon points="36,250 43,232 50,194 43,210 " style="fill:#626200;stroke:none"/><polygon points="392,157 371,170 385,194 408,185 " style="fill:#636300;stroke:none"/><polygon points="91,185 114,194 128,170 107,157 " style="fill:#636300;stroke:none"/><polygon points="438,280 456,267 449,305 432,314 " style="fill:#636300;stroke:none"/><polygon points="67,314 50,305 43,267 61,280 " style="fill:#636300;stroke:none"/><polygon points="367,210 361,228 365,249 371,232 " style="fill:#646400;stroke:none"/><polygon points="128,232 134,250 138,228 132,210 " style="fill:#646400;stroke:none"/><polygon points="365,249 371,267 367,289 361,271 " style="fill:#646400;stroke:none"/><polygon points="138,271 132,289 128,267 134,250 " style="fill:#646400;stroke:none"/><polygon points="449,194 432,185 438,219 456,232 " style="fill:#646400;stroke:none"/><polygon points="43,232 61,219 67,185 50,194 " style="fill:#656500;stroke:none"/><polygon points="385,305 408,314 392,342 371,329 " style="fill:#656500;stroke:none"/><polygon points="128,329 107,342 91,314 114,305 " style="fill:#656500;stroke:none"/><polygon points="456,267 463,249 456,289 449,305 " style="fill:#656500;stroke:none"/><polygon points="50,305 43,289 36,250 43,267 " style="fill:#666600;stroke:none"/><polygon points="367,289 385,305 371,329 355,310 " style="fill:#666600;stroke:none"/><polygon points="144,310 128,329 114,305 132,289 " style="fill:#666600;stroke:none"/><polygon points="385,194 367,210 371,232 389,219 " style="fill:#666600;stroke:none"/><polygon points="110,219 128,232 132,210 114,194 " style="fill:#676700;stroke:none"/><polygon points="408,314 432,314 413,346 392,342 " style="fill:#676700;stroke:none"/><polygon points="107,342 86,346 67,314 91,314 " style="fill:#676700;stroke:none"/><polygon points="432,185 408,185 414,215 438,219 " style="fill:#676700;stroke:none"/><polygon points="61,219 85,215 91,185 67,185 " style="fill:#686800;stroke:none"/><polygon points="408,185 385,194 389,219 414,215 " style="fill:#686800;stroke:none"/><polygon points="85,215 110,219 114,194 91,185 " style="fill:#686800;stroke:none"/><polygon points="371,232 365,249 361,271 367,254 " style="fill:#686800;stroke:none"/><polygon points="132,254 138,271 134,250 128,232 " style="fill:#696900;stroke:none"/><polygon points="361,271 367,289 355,310 349,290 " style="fill:#696900;stroke:none"/><polygon points="150,290 144,310 132,289 138,271 " style="fill:#696900;stroke:none"/><polygon points="463,249 456,232 449,270 456,289 " style="fill:#696900;stroke:none"/><polygon points="43,289 50,270 43,232 36,250 " style="fill:#707000;stroke:none"/><polygon points="432,314 449,305 429,340 413,346 " style="fill:#707000;stroke:none"/><polygon points="86,346 70,340 50,305 67,314 " style="fill:#707000;stroke:none"/><polygon points="355,310 371,329 348,349 336,328 " style="fill:#707000;stroke:none"/><polygon points="163,328 151,349 128,329 144,310 " style="fill:#707000;stroke:none"/><polygon points="371,329 392,342 366,366 348,349 " style="fill:#717100;stroke:none"/><polygon points="151,349 133,366 107,342 128,329 " style="fill:#717100;stroke:none"/><polygon points="389,219 371,232 367,254 385,245 " style="fill:#717100;stroke:none"/><polygon points="114,245 132,254 128,232 110,219 " style="fill:#717100;stroke:none"/><polygon points="367,254 361,271 349,290 355,275 " style="fill:#727200;stroke:none"/><polygon points="144,275 150,290 138,271 132,254 " style="fill:#727200;stroke:none"/><polygon points="456,232 438,219 432,254 449,270 " style="fill:#727200;stroke:none"/><polygon points="50,270 67,254 61,219 43,232 " style="fill:#727200;stroke:none"/><polygon points="349,290 355,310 336,328 331,307 " style="fill:#737300;stroke:none"/><polygon points="168,307 163,328 144,310 150,290 " style="fill:#737300;stroke:none"/><polygon points="392,342 413,346 383,374 366,366 " style="fill:#737300;stroke:none"/><polygon points="133,366 116,374 86,346 107,342 " style="fill:#737300;stroke:none"/><polygon points="414,215 389,219 385,245 408,245 " style="fill:#747400;stroke:none"/><polygon points="91,245 114,245 110,219 85,215 " style="fill:#747400;stroke:none"/><polygon points="449,305 456,289 434,325 429,340 " style="fill:#747400;stroke:none"/><polygon points="70,340 65,325 43,289 50,305 " style="fill:#747400;stroke:none"/><polygon points="438,219 414,215 408,245 432,254 " style="fill:#757500;stroke:none"/><polygon points="67,254 91,245 85,215 61,219 " style="fill:#757500;stroke:none"/><polygon points="336,328 348,349 319,365 310,342 " style="fill:#757500;stroke:none"/><polygon points="189,342 180,365 151,349 163,328 " style="fill:#757500;stroke:none"/><polygon points="348,349 366,366 332,385 319,365 " style="fill:#767600;stroke:none"/><polygon points="180,365 167,385 133,366 151,349 " style="fill:#767600;stroke:none"/><polygon points="331,307 336,328 310,342 307,320 " style="fill:#767600;stroke:none"/><polygon points="192,320 189,342 163,328 168,307 " style="fill:#767600;stroke:none"/><polygon points="385,245 367,254 355,275 371,269 " style="fill:#767600;stroke:none"/><polygon points="128,269 144,275 132,254 114,245 " style="fill:#777700;stroke:none"/><polygon points="355,275 349,290 331,307 336,293 " style="fill:#777700;stroke:none"/><polygon points="163,293 168,307 150,290 144,275 " style="fill:#777700;stroke:none"/><polygon points="413,346 429,340 396,370 383,374 " style="fill:#777700;stroke:none"/><polygon points="116,374 103,370 70,340 86,346 " style="fill:#787800;stroke:none"/><polygon points="310,342 319,365 286,375 281,350 " style="fill:#787800;stroke:none"/><polygon points="218,350 213,375 180,365 189,342 " style="fill:#787800;stroke:none"/><polygon points="456,289 449,270 429,305 434,325 " style="fill:#787800;stroke:none"/><polygon points="65,325 70,305 50,270 43,289 " style="fill:#797900;stroke:none"/><polygon points="366,366 383,374 344,395 332,385 " style="fill:#797900;stroke:none"/><polygon points="167,385 155,395 116,374 133,366 " style="fill:#797900;stroke:none"/><polygon points="319,365 332,385 292,396 286,375 " style="fill:#797900;stroke:none"/><polygon points="213,375 207,396 167,385 180,365 " style="fill:#808000;stroke:none"/><polygon points="281,350 286,375 250,378 250,353 " style="fill:#808000;stroke:none"/><polygon points="250,353 250,378 213,375 218,350 " style="fill:#808000;stroke:none"/><polygon points="307,320 310,342 281,350 279,328 " style="fill:#808000;stroke:none"/><polygon points="220,328 218,350 189,342 192,320 " style="fill:#818100;stroke:none"/><polygon points="408,245 385,245 371,269 392,273 " style="fill:#818100;stroke:none"/><polygon points="107,273 128,269 114,245 91,245 " style="fill:#818100;stroke:none"/><polygon points="286,375 292,396 250,400 250,378 " style="fill:#818100;stroke:none"/><polygon points="250,378 250,400 207,396 213,375 " style="fill:#818100;stroke:none"/><polygon points="279,328 281,350 250,353 250,331 " style="fill:#828200;stroke:none"/><polygon points="250,331 250,353 218,350 220,328 " style="fill:#828200;stroke:none"/><polygon points="336,293 331,307 307,320 310,307 " style="fill:#828200;stroke:none"/><polygon points="189,307 192,320 168,307 163,293 " style="fill:#828200;stroke:none"/><polygon points="449,270 432,254 413,286 429,305 " style="fill:#838300;stroke:none"/><polygon points="70,305 86,286 67,254 50,270 " style="fill:#838300;stroke:none"/><polygon points="371,269 355,275 336,293 348,289 " style="fill:#838300;stroke:none"/><polygon points="151,289 163,293 144,275 128,269 " style="fill:#838300;stroke:none"/><polygon points="432,254 408,245 392,273 413,286 " style="fill:#848400;stroke:none"/><polygon points="86,286 107,273 91,245 67,254 " style="fill:#848400;stroke:none"/><polygon points="429,340 434,325 400,356 396,370 " style="fill:#848400;stroke:none"/><polygon points="103,370 99,356 65,325 70,340 " style="fill:#848400;stroke:none"/><polygon points="332,385 344,395 298,409 292,396 " style="fill:#858500;stroke:none"/><polygon points="207,396 201,409 155,395 167,385 " style="fill:#858500;stroke:none"/><polygon points="310,307 307,320 279,328 281,315 " style="fill:#858500;stroke:none"/><polygon points="218,315 220,328 192,320 189,307 " style="fill:#858500;stroke:none"/><polygon points="383,374 396,370 353,394 344,395 " style="fill:#868600;stroke:none"/><polygon points="155,395 146,394 103,370 116,374 " style="fill:#868600;stroke:none"/><polygon points="292,396 298,409 250,413 250,400 " style="fill:#868600;stroke:none"/><polygon points="250,400 250,413 201,409 207,396 " style="fill:#868600;stroke:none"/><polygon points="281,315 279,328 250,331 250,318 " style="fill:#878700;stroke:none"/><polygon points="250,318 250,331 220,328 218,315 " style="fill:#878700;stroke:none"/><polygon points="348,289 336,293 310,307 319,305 " style="fill:#878700;stroke:none"/><polygon points="180,305 189,307 163,293 151,289 " style="fill:#878700;stroke:none"/><polygon points="392,273 371,269 348,289 366,297 " style="fill:#878700;stroke:none"/><polygon points="133,297 151,289 128,269 107,273 " style="fill:#888800;stroke:none"/><polygon points="434,325 429,305 396,336 400,356 " style="fill:#888800;stroke:none"/><polygon points="99,356 103,336 70,305 65,325 " style="fill:#888800;stroke:none"/><polygon points="344,395 353,394 303,408 298,409 " style="fill:#888800;stroke:none"/><polygon points="201,409 196,408 146,394 155,395 " style="fill:#898900;stroke:none"/><polygon points="413,286 392,273 366,297 383,314 " style="fill:#898900;stroke:none"/><polygon points="116,314 133,297 107,273 86,286 " style="fill:#898900;stroke:none"/><polygon points="429,305 413,286 383,314 396,336 " style="fill:#898900;stroke:none"/><polygon points="103,336 116,314 86,286 70,305 " style="fill:#909000;stroke:none"/><polygon points="396,370 400,356 356,380 353,394 " style="fill:#909000;stroke:none"/><polygon points="146,394 143,380 99,356 103,370 " style="fill:#909000;stroke:none"/><polygon points="319,305 310,307 281,315 286,315 " style="fill:#909000;stroke:none"/><polygon points="213,315 218,315 189,307 180,305 " style="fill:#919100;stroke:none"/><polygon points="298,409 303,408 250,413 250,413 " style="fill:#919100;stroke:none"/><polygon points="250,413 250,413 196,408 201,409 " style="fill:#919100;stroke:none"/><polygon points="286,315 281,315 250,318 250,318 " style="fill:#919100;stroke:none"/><polygon points="250,318 250,318 218,315 213,315 " style="fill:#929200;stroke:none"/><polygon points="366,297 348,289 319,305 332,316 " style="fill:#929200;stroke:none"/><polygon points="167,316 180,305 151,289 133,297 " style="fill:#929200;stroke:none"/><polygon points="400,356 396,336 353,359 356,380 " style="fill:#929200;stroke:none"/><polygon points="143,380 146,359 103,336 99,356 " style="fill:#939300;stroke:none"/><polygon points="353,394 356,380 305,395 303,408 " style="fill:#939300;stroke:none"/><polygon points="196,408 194,395 143,380 146,394 " style="fill:#939300;stroke:none"/><polygon points="383,314 366,297 332,316 344,335 " style="fill:#939300;stroke:none"/><polygon points="155,335 167,316 133,297 116,314 " style="fill:#939300;stroke:none"/><polygon points="332,316 319,305 286,315 292,327 " style="fill:#949400;stroke:none"/><polygon points="207,327 213,315 180,305 167,316 " style="fill:#949400;stroke:none"/><polygon points="396,336 383,314 344,335 353,359 " style="fill:#949400;stroke:none"/><polygon points="146,359 155,335 116,314 103,336 " style="fill:#949400;stroke:none"/><polygon points="303,408 305,395 250,400 250,413 " style="fill:#959500;stroke:none"/><polygon points="250,413 250,400 194,395 196,408 " style="fill:#959500;stroke:none"/><polygon points="292,327 286,315 250,318 250,331 " style="fill:#959500;stroke:none"/><polygon points="250,331 250,318 213,315 207,327 " style="fill:#959500;stroke:none"/><polygon points="356,380 353,359 303,373 305,395 " style="fill:#969600;stroke:none"/><polygon points="194,395 196,373 146,359 143,380 " style="fill:#969600;stroke:none"/><polygon points="344,335 332,316 292,327 298,349 " style="fill:#969600;stroke:none"/><polygon points="201,349 207,327 167,316 155,335 " style="fill:#969600;stroke:none"/><polygon points="353,359 344,335 298,349 303,373 " style="fill:#979700;stroke:none"/><polygon points="196,373 201,349 155,335 146,359 " style="fill:#979700;stroke:none"/><polygon points="305,395 303,373 250,378 250,400 " style="fill:#979700;stroke:none"/><polygon points="250,400 250,378 196,373 194,395 " style="fill:#979700;stroke:none"/><polygon points="298,349 292,327 250,331 250,353 " style="fill:#989800;stroke:none"/><polygon points="250,353 250,331 207,327 201,349 " style="fill:#989800;stroke:none"/><polygon points="303,373 298,349 250,353 250,378 " style="fill:#989800;stroke:none"/><polygon points="250,378 250,353 201,349 196,373 " style="fill:#989800;stroke:none"/></svg>