<svg xmlns="http://www.w3.org/2000/svg" version="1.1" width="500" height="500" style="background: #999999"> <polygon points="193,100 193,78 269,73 269,95 " style="fill:#303000;stroke:none"/><polygon points="269,95 269,73 342,87 342,109 " style="fill:#303000;stroke:none"/><polygon points="124,122 124,101 193,78 193,100 " style="fill:#303000;stroke:none"/><polygon points="193,78 193,56 269,51 269,73 " style="fill:#303000;stroke:none"/><polygon points="220,171 193,100 269,95 259,169 " style="fill:#313100;stroke:none"/><polygon points="269,73 269,51 342,65 342,87 " style="fill:#313100;stroke:none"/><polygon points="342,109 342,87 405,118 405,140 " style="fill:#313100;stroke:none"/><polygon points="259,169 269,95 342,109 298,176 " style="fill:#323200;stroke:none"/><polygon points="124,101 124,79 193,56 193,78 " style="fill:#323200;stroke:none"/><polygon points="184,183 124,122 193,100 220,171 " style="fill:#323200;stroke:none"/><polygon points="193,56 193,34 269,30 269,51 " style="fill:#333300;stroke:none"/><polygon points="70,160 70,139 124,101 124,122 " style="fill:#333300;stroke:none"/><polygon points="298,176 342,109 405,140 330,192 " style="fill:#333300;stroke:none"/><polygon points="269,51 269,30 342,44 342,65 " style="fill:#343400;stroke:none"/><polygon points="342,87 342,65 405,96 405,118 " style="fill:#343400;stroke:none"/><polygon points="124,79 124,57 193,34 193,56 " style="fill:#343400;stroke:none"/><polygon points="156,203 70,160 124,122 184,183 " style="fill:#353500;stroke:none"/><polygon points="405,140 405,118 448,162 448,184 " style="fill:#353500;stroke:none"/><polygon points="193,34 193,13 269,8 269,30 " style="fill:#353500;stroke:none"/><polygon points="70,139 70,117 124,79 124,101 " style="fill:#363600;stroke:none"/><polygon points="269,30 269,8 342,22 342,44 " style="fill:#363600;stroke:none"/><polygon points="342,65 342,44 405,74 405,96 " style="fill:#363600;stroke:none"/><polygon points="220,150 220,171 259,169 259,147 " style="fill:#373700;stroke:none"/><polygon points="330,192 405,140 448,184 353,215 " style="fill:#373700;stroke:none"/><polygon points="259,147 259,169 298,176 298,154 " style="fill:#373700;stroke:none"/><polygon points="124,57 124,35 193,13 193,34 " style="fill:#373700;stroke:none"/><polygon points="184,161 184,183 220,171 220,150 " style="fill:#383800;stroke:none"/><polygon points="405,118 405,96 448,140 448,162 " style="fill:#383800;stroke:none"/><polygon points="193,13 193,-8 269,-13 269,8 " style="fill:#383800;stroke:none"/><polygon points="298,154 298,176 330,192 330,171 " style="fill:#393900;stroke:none"/><polygon points="37,209 37,188 70,139 70,160 " style="fill:#393900;stroke:none"/><polygon points="70,117 70,95 124,57 124,79 " style="fill:#393900;stroke:none"/><polygon points="269,8 269,-13 342,0 342,22 " style="fill:#404000;stroke:none"/><polygon points="139,229 37,209 70,160 156,203 " style="fill:#404000;stroke:none"/><polygon points="342,44 342,22 405,53 405,74 " style="fill:#404000;stroke:none"/><polygon points="220,128 220,150 259,147 259,125 " style="fill:#414100;stroke:none"/><polygon points="156,181 156,203 184,183 184,161 " style="fill:#414100;stroke:none"/><polygon points="259,125 259,147 298,154 298,133 " style="fill:#414100;stroke:none"/><polygon points="124,35 124,14 193,-8 193,13 " style="fill:#424200;stroke:none"/><polygon points="184,140 184,161 220,150 220,128 " style="fill:#424200;stroke:none"/><polygon points="330,171 330,192 353,215 353,194 " style="fill:#424200;stroke:none"/><polygon points="405,96 405,74 448,119 448,140 " style="fill:#434300;stroke:none"/><polygon points="298,133 298,154 330,171 330,149 " style="fill:#434300;stroke:none"/><polygon points="37,188 37,166 70,117 70,139 " style="fill:#434300;stroke:none"/><polygon points="70,95 70,73 124,35 124,57 " style="fill:#444400;stroke:none"/><polygon points="353,215 448,184 468,236 363,242 " style="fill:#444400;stroke:none"/><polygon points="448,184 448,162 468,214 468,236 " style="fill:#444400;stroke:none"/><polygon points="342,22 342,0 405,31 405,53 " style="fill:#454500;stroke:none"/><polygon points="220,106 220,128 259,125 259,104 " style="fill:#454500;stroke:none"/><polygon points="156,160 156,181 184,161 184,140 " style="fill:#454500;stroke:none"/><polygon points="139,207 139,229 156,203 156,181 " style="fill:#454500;stroke:none"/><polygon points="259,104 259,125 298,133 298,111 " style="fill:#464600;stroke:none"/><polygon points="184,118 184,140 220,128 220,106 " style="fill:#464600;stroke:none"/><polygon points="330,149 330,171 353,194 353,172 " style="fill:#464600;stroke:none"/><polygon points="405,74 405,53 448,97 448,119 " style="fill:#474700;stroke:none"/><polygon points="298,111 298,133 330,149 330,127 " style="fill:#474700;stroke:none"/><polygon points="37,166 37,144 70,95 70,117 " style="fill:#474700;stroke:none"/><polygon points="70,73 70,52 124,14 124,35 " style="fill:#484800;stroke:none"/><polygon points="136,257 31,263 37,209 139,229 " style="fill:#484800;stroke:none"/><polygon points="353,194 353,215 363,242 363,221 " style="fill:#484800;stroke:none"/><polygon points="193,-8 220,63 259,60 269,-13 " style="fill:#494900;stroke:none"/><polygon points="448,162 448,140 468,192 468,214 " style="fill:#494900;stroke:none"/><polygon points="269,-13 259,60 298,67 342,0 " style="fill:#494900;stroke:none"/><polygon points="220,84 220,106 259,104 259,82 " style="fill:#505000;stroke:none"/><polygon points="31,263 31,241 37,188 37,209 " style="fill:#505000;stroke:none"/><polygon points="156,138 156,160 184,140 184,118 " style="fill:#505000;stroke:none"/><polygon points="139,185 139,207 156,181 156,160 " style="fill:#515100;stroke:none"/><polygon points="259,82 259,104 298,111 298,89 " style="fill:#515100;stroke:none"/><polygon points="124,14 184,74 220,63 193,-8 " style="fill:#515100;stroke:none"/><polygon points="136,235 136,257 139,229 139,207 " style="fill:#525200;stroke:none"/><polygon points="184,96 184,118 220,106 220,84 " style="fill:#525200;stroke:none"/><polygon points="330,127 330,149 353,172 353,150 " style="fill:#525200;stroke:none"/><polygon points="363,242 468,236 462,290 360,270 " style="fill:#525200;stroke:none"/><polygon points="405,53 405,31 448,75 448,97 " style="fill:#535300;stroke:none"/><polygon points="298,89 298,111 330,127 330,105 " style="fill:#535300;stroke:none"/><polygon points="37,144 37,122 70,73 70,95 " style="fill:#535300;stroke:none"/><polygon points="353,172 353,194 363,221 363,199 " style="fill:#545400;stroke:none"/><polygon points="342,0 298,67 330,84 405,31 " style="fill:#545400;stroke:none"/><polygon points="448,140 448,119 468,171 468,192 " style="fill:#545400;stroke:none"/><polygon points="363,221 363,242 360,270 360,249 " style="fill:#555500;stroke:none"/><polygon points="220,63 220,84 259,82 259,60 " style="fill:#555500;stroke:none"/><polygon points="31,241 31,220 37,166 37,188 " style="fill:#555500;stroke:none"/><polygon points="156,116 156,138 184,118 184,96 " style="fill:#565600;stroke:none"/><polygon points="139,163 139,185 156,160 156,138 " style="fill:#565600;stroke:none"/><polygon points="259,60 259,82 298,89 298,67 " style="fill:#565600;stroke:none"/><polygon points="468,236 468,214 462,268 462,290 " style="fill:#575700;stroke:none"/><polygon points="136,213 136,235 139,207 139,185 " style="fill:#575700;stroke:none"/><polygon points="184,74 184,96 220,84 220,63 " style="fill:#575700;stroke:none"/><polygon points="70,52 156,94 184,74 124,14 " style="fill:#585800;stroke:none"/><polygon points="146,284 51,315 31,263 136,257 " style="fill:#585800;stroke:none"/><polygon points="330,105 330,127 353,150 353,128 " style="fill:#585800;stroke:none"/><polygon points="146,262 146,284 136,257 136,235 " style="fill:#595900;stroke:none"/><polygon points="298,67 298,89 330,105 330,84 " style="fill:#595900;stroke:none"/><polygon points="37,122 37,101 70,52 70,73 " style="fill:#595900;stroke:none"/><polygon points="353,150 353,172 363,199 363,177 " style="fill:#606000;stroke:none"/><polygon points="448,119 448,97 468,149 468,171 " style="fill:#606000;stroke:none"/><polygon points="363,199 363,221 360,249 360,227 " style="fill:#606000;stroke:none"/><polygon points="31,220 31,198 37,144 37,166 " style="fill:#606000;stroke:none"/><polygon points="156,94 156,116 184,96 184,74 " style="fill:#616100;stroke:none"/><polygon points="405,31 330,84 353,107 448,75 " style="fill:#616100;stroke:none"/><polygon points="139,142 139,163 156,138 156,116 " style="fill:#616100;stroke:none"/><polygon points="360,249 360,270 343,296 343,274 " style="fill:#626200;stroke:none"/><polygon points="468,214 468,192 462,246 462,268 " style="fill:#626200;stroke:none"/><polygon points="136,191 136,213 139,185 139,163 " style="fill:#626200;stroke:none"/><polygon points="360,270 462,290 429,339 343,296 " style="fill:#636300;stroke:none"/><polygon points="51,315 51,293 31,241 31,263 " style="fill:#636300;stroke:none"/><polygon points="330,84 330,105 353,128 353,107 " style="fill:#636300;stroke:none"/><polygon points="146,240 146,262 136,235 136,213 " style="fill:#646400;stroke:none"/><polygon points="353,128 353,150 363,177 363,155 " style="fill:#646400;stroke:none"/><polygon points="169,285 169,307 146,284 146,262 " style="fill:#646400;stroke:none"/><polygon points="448,97 448,75 468,127 468,149 " style="fill:#656500;stroke:none"/><polygon points="37,101 139,120 156,94 70,52 " style="fill:#656500;stroke:none"/><polygon points="363,177 363,199 360,227 360,205 " style="fill:#656500;stroke:none"/><polygon points="31,198 31,176 37,122 37,144 " style="fill:#666600;stroke:none"/><polygon points="139,120 139,142 156,116 156,94 " style="fill:#666600;stroke:none"/><polygon points="360,227 360,249 343,274 343,252 " style="fill:#666600;stroke:none"/><polygon points="169,307 94,359 51,315 146,284 " style="fill:#676700;stroke:none"/><polygon points="343,274 343,296 315,316 315,294 " style="fill:#676700;stroke:none"/><polygon points="468,192 468,171 462,224 462,246 " style="fill:#676700;stroke:none"/><polygon points="136,170 136,191 139,163 139,142 " style="fill:#686800;stroke:none"/><polygon points="51,293 51,272 31,220 31,241 " style="fill:#686800;stroke:none"/><polygon points="146,218 146,240 136,213 136,191 " style="fill:#686800;stroke:none"/><polygon points="462,290 462,268 429,317 429,339 " style="fill:#686800;stroke:none"/><polygon points="201,301 201,323 169,307 169,285 " style="fill:#696900;stroke:none"/><polygon points="353,107 353,128 363,155 363,134 " style="fill:#696900;stroke:none"/><polygon points="169,263 169,285 146,262 146,240 " style="fill:#696900;stroke:none"/><polygon points="448,75 353,107 363,134 468,127 " style="fill:#707000;stroke:none"/><polygon points="343,296 429,339 375,377 315,316 " style="fill:#707000;stroke:none"/><polygon points="315,294 315,316 279,328 279,306 " style="fill:#707000;stroke:none"/><polygon points="363,155 363,177 360,205 360,183 " style="fill:#717100;stroke:none"/><polygon points="31,176 31,154 37,101 37,122 " style="fill:#717100;stroke:none"/><polygon points="240,308 240,330 201,323 201,301 " style="fill:#717100;stroke:none"/><polygon points="360,205 360,227 343,252 343,231 " style="fill:#727200;stroke:none"/><polygon points="343,252 343,274 315,294 315,272 " style="fill:#727200;stroke:none"/><polygon points="468,171 468,149 462,203 462,224 " style="fill:#727200;stroke:none"/><polygon points="279,306 279,328 240,330 240,308 " style="fill:#737300;stroke:none"/><polygon points="136,148 136,170 139,142 139,120 " style="fill:#737300;stroke:none"/><polygon points="51,272 51,250 31,198 31,220 " style="fill:#737300;stroke:none"/><polygon points="201,323 157,390 94,359 169,307 " style="fill:#747400;stroke:none"/><polygon points="146,197 146,218 136,191 136,170 " style="fill:#747400;stroke:none"/><polygon points="462,268 462,246 429,295 429,317 " style="fill:#747400;stroke:none"/><polygon points="201,279 201,301 169,285 169,263 " style="fill:#757500;stroke:none"/><polygon points="94,359 94,338 51,293 51,315 " style="fill:#757500;stroke:none"/><polygon points="31,154 136,148 139,120 37,101 " style="fill:#757500;stroke:none"/><polygon points="169,241 169,263 146,240 146,218 " style="fill:#757500;stroke:none"/><polygon points="315,272 315,294 279,306 279,284 " style="fill:#767600;stroke:none"/><polygon points="363,134 363,155 360,183 360,162 " style="fill:#767600;stroke:none"/><polygon points="315,316 375,377 306,399 279,328 " style="fill:#767600;stroke:none"/><polygon points="240,287 240,308 201,301 201,279 " style="fill:#777700;stroke:none"/><polygon points="360,183 360,205 343,231 343,209 " style="fill:#777700;stroke:none"/><polygon points="343,231 343,252 315,272 315,250 " style="fill:#777700;stroke:none"/><polygon points="468,149 468,127 462,181 462,203 " style="fill:#787800;stroke:none"/><polygon points="279,284 279,306 240,308 240,287 " style="fill:#787800;stroke:none"/><polygon points="240,330 230,404 157,390 201,323 " style="fill:#787800;stroke:none"/><polygon points="51,250 51,228 31,176 31,198 " style="fill:#797900;stroke:none"/><polygon points="279,328 306,399 230,404 240,330 " style="fill:#797900;stroke:none"/><polygon points="146,175 146,197 136,170 136,148 " style="fill:#797900;stroke:none"/><polygon points="468,127 363,134 360,162 462,181 " style="fill:#808000;stroke:none"/><polygon points="429,339 429,317 375,355 375,377 " style="fill:#808000;stroke:none"/><polygon points="462,246 462,224 429,273 429,295 " style="fill:#808000;stroke:none"/><polygon points="201,258 201,279 169,263 169,241 " style="fill:#818100;stroke:none"/><polygon points="94,338 94,316 51,272 51,293 " style="fill:#818100;stroke:none"/><polygon points="169,220 169,241 146,218 146,197 " style="fill:#818100;stroke:none"/><polygon points="315,250 315,272 279,284 279,262 " style="fill:#828200;stroke:none"/><polygon points="240,265 240,287 201,279 201,258 " style="fill:#828200;stroke:none"/><polygon points="360,162 360,183 343,209 343,187 " style="fill:#828200;stroke:none"/><polygon points="343,209 343,231 315,250 315,229 " style="fill:#838300;stroke:none"/><polygon points="279,262 279,284 240,287 240,265 " style="fill:#838300;stroke:none"/><polygon points="157,390 157,368 94,338 94,359 " style="fill:#838300;stroke:none"/><polygon points="51,228 51,206 31,154 31,176 " style="fill:#838300;stroke:none"/><polygon points="51,206 146,175 136,148 31,154 " style="fill:#848400;stroke:none"/><polygon points="429,317 429,295 375,333 375,355 " style="fill:#848400;stroke:none"/><polygon points="462,224 462,203 429,252 429,273 " style="fill:#848400;stroke:none"/><polygon points="201,236 201,258 169,241 169,220 " style="fill:#858500;stroke:none"/><polygon points="94,316 94,294 51,250 51,272 " style="fill:#858500;stroke:none"/><polygon points="169,198 169,220 146,197 146,175 " style="fill:#858500;stroke:none"/><polygon points="315,229 315,250 279,262 279,241 " style="fill:#868600;stroke:none"/><polygon points="375,377 375,355 306,378 306,399 " style="fill:#868600;stroke:none"/><polygon points="240,243 240,265 201,258 201,236 " style="fill:#868600;stroke:none"/><polygon points="343,187 343,209 315,229 315,207 " style="fill:#878700;stroke:none"/><polygon points="279,241 279,262 240,265 240,243 " style="fill:#878700;stroke:none"/><polygon points="157,368 157,347 94,316 94,338 " style="fill:#878700;stroke:none"/><polygon points="462,181 360,162 343,187 429,230 " style="fill:#888800;stroke:none"/><polygon points="230,404 230,382 157,368 157,390 " style="fill:#888800;stroke:none"/><polygon points="429,295 429,273 375,311 375,333 " style="fill:#888800;stroke:none"/><polygon points="462,203 462,181 429,230 429,252 " style="fill:#898900;stroke:none"/><polygon points="201,214 201,236 169,220 169,198 " style="fill:#898900;stroke:none"/><polygon points="306,399 306,378 230,382 230,404 " style="fill:#898900;stroke:none"/><polygon points="94,294 94,272 51,228 51,250 " style="fill:#909000;stroke:none"/><polygon points="315,207 315,229 279,241 279,219 " style="fill:#909000;stroke:none"/><polygon points="375,355 375,333 306,356 306,378 " style="fill:#909000;stroke:none"/><polygon points="240,221 240,243 201,236 201,214 " style="fill:#919100;stroke:none"/><polygon points="94,251 169,198 146,175 51,206 " style="fill:#919100;stroke:none"/><polygon points="279,219 279,241 240,243 240,221 " style="fill:#919100;stroke:none"/><polygon points="157,347 157,325 94,294 94,316 " style="fill:#919100;stroke:none"/><polygon points="230,382 230,361 157,347 157,368 " style="fill:#929200;stroke:none"/><polygon points="429,273 429,252 375,290 375,311 " style="fill:#929200;stroke:none"/><polygon points="306,378 306,356 230,361 230,382 " style="fill:#929200;stroke:none"/><polygon points="94,272 94,251 51,206 51,228 " style="fill:#939300;stroke:none"/><polygon points="429,230 343,187 315,207 375,268 " style="fill:#939300;stroke:none"/><polygon points="375,333 375,311 306,334 306,356 " style="fill:#939300;stroke:none"/><polygon points="157,325 157,303 94,272 94,294 " style="fill:#949400;stroke:none"/><polygon points="230,361 230,339 157,325 157,347 " style="fill:#949400;stroke:none"/><polygon points="157,281 201,214 169,198 94,251 " style="fill:#949400;stroke:none"/><polygon points="429,252 429,230 375,268 375,290 " style="fill:#959500;stroke:none"/><polygon points="306,356 306,334 230,339 230,361 " style="fill:#959500;stroke:none"/><polygon points="375,268 315,207 279,219 306,291 " style="fill:#959500;stroke:none"/><polygon points="375,311 375,290 306,312 306,334 " style="fill:#969600;stroke:none"/><polygon points="230,295 240,221 201,214 157,281 " style="fill:#969600;stroke:none"/><polygon points="157,303 157,281 94,251 94,272 " style="fill:#969600;stroke:none"/><polygon points="230,339 230,317 157,303 157,325 " style="fill:#979700;stroke:none"/><polygon points="306,291 279,219 240,221 230,295 " style="fill:#979700;stroke:none"/><polygon points="306,334 306,312 230,317 230,339 " style="fill:#979700;stroke:none"/><polygon points="375,290 375,268 306,291 306,312 " style="fill:#989800;stroke:none"/><polygon points="230,317 230,295 157,281 157,303 " style="fill:#989800;stroke:none"/><polygon points="306,312 306,291 230,295 230,317 " style="fill:#989800;stroke:none"/></svg>